0
SECTION
2
HEADER
9
$INSUNITS
70
4
9
$ACADVER
1
AC1014
9
$HANDSEED
5
FFFF
0
ENDSEC
0
SECTION
2
TABLES
0
TABLE
2
VPORT
5
8
100
AcDbSymbolTable
0
ENDTAB
0
TABLE
2
LTYPE
5
5
100
AcDbSymbolTable
0
LTYPE
5
14
100
AcDbSymbolTableRecord
100
AcDbLinetypeTableRecord
2
BYBLOCK
70
0
0
LTYPE
5
15
100
AcDbSymbolTableRecord
100
AcDbLinetypeTableRecord
2
BYLAYER
70
0
0
ENDTAB
0
TABLE
2
LAYER
5
2
100
AcDbSymbolTable
70
2
0
LAYER
5
50
100
AcDbSymbolTableRecord
100
AcDbLayerTableRecord
2
0
70
0
6
CONTINUOUS
0
ENDTAB
0
TABLE
2
STYLE
5
3
100
AcDbSymbolTable
70
1
0
STYLE
5
11
100
AcDbSymbolTableRecord
100
AcDbTextStyleTableRecord
2
STANDARD
70
0
0
ENDTAB
0
TABLE
2
VIEW
5
6
100
AcDbSymbolTable
70
0
0
ENDTAB
0
TABLE
2
UCS
5
7
100
AcDbSymbolTable
70
0
0
ENDTAB
0
TABLE
2
APPID
5
9
100
AcDbSymbolTable
70
2
0
APPID
5
12
100
AcDbSymbolTableRecord
100
AcDbRegAppTableRecord
2
ACAD
70
0
0
ENDTAB
0
TABLE
2
DIMSTYLE
5
A
100
AcDbSymbolTable
70
1
0
ENDTAB
0
TABLE
2
BLOCK_RECORD
5
1
100
AcDbSymbolTable
70
1
0
BLOCK_RECORD
5
1F
100
AcDbSymbolTableRecord
100
AcDbBlockTableRecord
2
*MODEL_SPACE
0
BLOCK_RECORD
5
1B
100
AcDbSymbolTableRecord
100
AcDbBlockTableRecord
2
*PAPER_SPACE
0
ENDTAB
0
ENDSEC
0
SECTION
2
BLOCKS
0
BLOCK
5
20
100
AcDbEntity
100
AcDbBlockBegin
2
*MODEL_SPACE
0
ENDBLK
5
21
100
AcDbEntity
100
AcDbBlockEnd
0
BLOCK
5
1C
100
AcDbEntity
100
AcDbBlockBegin
2
*PAPER_SPACE
0
ENDBLK
5
1D
100
AcDbEntity
100
AcDbBlockEnd
0
ENDSEC
0
SECTION
2
ENTITIES
0
LWPOLYLINE
5
100
100
AcDbEntity
8
0
100
AcDbPolyline
90
8
70
1
43
0.0
10
241.15000000000003
20
-59.387500000000017
42
-0.41421356237309503
10
240.65000000000001
20
-58.88750000000001
10
240.65000000000001
20
-45.887500000000003
42
-0.41421356237309503
10
241.15000000000003
20
-45.387500000000003
10
254.15000000000003
20
-45.387499999999996
42
-0.41421356237309503
10
254.65000000000003
20
-45.887500000000003
10
254.65000000000003
20
-58.88750000000001
42
-0.41421356237309503
10
254.15000000000003
20
-59.387500000000003
0
LWPOLYLINE
5
101
100
AcDbEntity
8
0
100
AcDbPolyline
90
8
70
1
43
0.0
10
221.59999999999999
20
-45.887500000000003
42
-0.41421356237309503
10
222.10000000000002
20
-45.387500000000003
10
235.10000000000002
20
-45.387499999999996
42
-0.41421356237309503
10
235.60000000000002
20
-45.887500000000003
10
235.60000000000002
20
-58.88750000000001
42
-0.41421356237309503
10
235.10000000000002
20
-59.387500000000003
10
222.10000000000002
20
-59.387500000000017
42
-0.41421356237309503
10
221.59999999999999
20
-58.88750000000001
0
LWPOLYLINE
5
102
100
AcDbEntity
8
0
100
AcDbPolyline
90
44
70
1
43
0.0
10
266.84375
20
-64.4375
10
266.84375
20
-59.387500000000003
10
264.96249999999998
20
-59.387500000000017
42
-0.41421356237309503
10
264.46249999999998
20
-58.88750000000001
10
264.46249999999998
20
-45.887500000000003
42
-0.41421356237309503
10
264.96249999999998
20
-45.387500000000003
10
277.96249999999998
20
-45.387499999999996
42
-0.41421356237309503
10
278.46249999999998
20
-45.887500000000003
10
278.46249999999998
20
-46.599500000000006
10
281.34375
20
-46.599499999999992
42
-0.41421356237309503
10
281.84375
20
-47.099499999999999
10
281.84375
20
-52.849500000000006
42
-0.41421356237309503
10
281.34375
20
-53.349499999999999
10
278.46249999999998
20
-53.349499999999999
10
278.46249999999998
20
-54.912500000000009
10
280.34375
20
-54.912500000000001
42
-0.41421356237309503
10
280.84375
20
-55.412500000000009
10
280.84375
20
-68.412499999999994
42
-0.41421356237309503
10
280.34375
20
-68.912499999999994
10
279.63175000000001
20
-68.912499999999994
10
279.63175000000001
20
-70.475499999999997
10
281.34375
20
-70.475499999999997
42
-0.41421356237309503
10
281.84375
20
-70.975499999999997
10
281.84375
20
-76.725499999999997
42
-0.41421356237309503
10
281.34375
20
-77.225499999999997
10
279.63175000000001
20
-77.225499999999997
10
279.63175000000001
20
-78.9375
42
-0.41421356237309503
10
279.13175000000001
20
-79.4375
10
273.38175000000001
20
-79.437500000000014
42
-0.41421356237309503
10
272.88175000000001
20
-78.9375
10
272.88175000000001
20
-77.225499999999997
10
271.31875000000002
20
-77.225499999999997
10
271.31875000000002
20
-77.9375
42
-0.41421356237309503
10
270.81875000000002
20
-78.4375
10
255.75575000000003
20
-78.4375
10
255.75575000000003
20
-78.9375
42
-0.41421356237309503
10
255.25575000000003
20
-79.4375
10
249.50575000000001
20
-79.437500000000014
42
-0.41421356237309503
10
249.00575000000001
20
-78.9375
10
249.00575000000001
20
-78.4375
10
245.91250000000002
20
-78.437500000000014
42
-0.41421356237309503
10
245.41250000000002
20
-77.9375
10
245.41250000000002
20
-64.9375
42
-0.41421356237309503
10
245.91250000000002
20
-64.4375
0
LWPOLYLINE
5
103
100
AcDbEntity
8
0
100
AcDbPolyline
90
8
70
1
43
0.0
10
216.55000000000004
20
-58.88750000000001
42
-0.41421356237309503
10
216.05000000000004
20
-59.387500000000003
10
203.05000000000004
20
-59.387500000000017
42
-0.41421356237309503
10
202.55000000000001
20
-58.88750000000001
10
202.55000000000001
20
-45.887500000000003
42
-0.41421356237309503
10
203.05000000000004
20
-45.387500000000003
10
216.05000000000004
20
-45.387499999999996
42
-0.41421356237309503
10
216.55000000000004
20
-45.887500000000003
0
LWPOLYLINE
5
104
100
AcDbEntity
8
0
100
AcDbPolyline
90
8
70
1
43
0.0
10
311.30000000000001
20
-59.387500000000003
10
298.30000000000001
20
-59.387500000000017
42
-0.41421356237309503
10
297.80000000000001
20
-58.88750000000001
10
297.80000000000001
20
-45.887500000000003
42
-0.41421356237309503
10
298.30000000000001
20
-45.387500000000003
10
311.30000000000001
20
-45.387499999999996
42
-0.41421356237309503
10
311.80000000000001
20
-45.887500000000003
10
311.80000000000001
20
-58.88750000000001
42
-0.41421356237309503
0
LWPOLYLINE
5
105
100
AcDbEntity
8
0
100
AcDbPolyline
90
8
70
1
43
0.0
10
23.668749999999999
20
-77.9375
10
23.668749999999999
20
-64.9375
42
0.41421356237309503
10
23.168749999999999
20
-64.4375
10
5.40625
20
-64.4375
42
0.41421356237309503
10
4.90625
20
-64.9375
10
4.90625
20
-77.9375
42
0.41421356237309503
10
5.4062499999999991
20
-78.4375
10
23.168749999999999
20
-78.4375
42
0.41421356237309503
0
LWPOLYLINE
5
106
100
AcDbEntity
8
0
100
AcDbPolyline
90
8
70
1
43
0.0
10
68.412499999999994
20
-64.4375
42
-0.41421356237309503
10
68.912499999999994
20
-64.9375
10
68.912499999999994
20
-77.9375
42
-0.41421356237309503
10
68.412499999999994
20
-78.4375
10
55.412500000000009
20
-78.4375
42
-0.41421356237309503
10
54.912500000000009
20
-77.9375
10
54.912500000000009
20
-64.9375
42
-0.41421356237309503
10
55.412500000000009
20
-64.4375
0
LWPOLYLINE
5
107
100
AcDbEntity
8
0
100
AcDbPolyline
90
8
70
1
43
0.0
10
144.61250000000001
20
-64.4375
42
-0.41421356237309503
10
145.11250000000001
20
-64.9375
10
145.11250000000001
20
-77.9375
42
-0.41421356237309503
10
144.61250000000001
20
-78.4375
10
131.61250000000001
20
-78.437500000000014
42
-0.41421356237309503
10
131.11250000000001
20
-77.9375
10
131.11250000000001
20
-64.9375
42
-0.41421356237309503
10
131.61250000000001
20
-64.4375
0
LWPOLYLINE
5
108
100
AcDbEntity
8
0
100
AcDbPolyline
90
8
70
1
43
0.0
10
106.51250000000002
20
-64.4375
10
93.512500000000003
20
-64.4375
42
0.41421356237309503
10
93.012500000000017
20
-64.9375
10
93.012499999999989
20
-77.9375
42
0.41421356237309503
10
93.512500000000003
20
-78.4375
10
106.51250000000002
20
-78.4375
42
0.41421356237309503
10
107.01250000000002
20
-77.9375
10
107.01250000000002
20
-64.9375
42
0.41421356237309503
0
LWPOLYLINE
5
109
100
AcDbEntity
8
0
100
AcDbPolyline
90
8
70
1
43
0.0
10
87.962500000000006
20
-77.9375
10
87.96250000000002
20
-64.9375
42
0.41421356237309503
10
87.46250000000002
20
-64.4375
10
74.462500000000006
20
-64.4375
42
0.41421356237309503
10
73.962500000000006
20
-64.9375
10
73.962500000000006
20
-77.9375
42
0.41421356237309503
10
74.462500000000006
20
-78.4375
10
87.46250000000002
20
-78.4375
42
0.41421356237309503
0
LWPOLYLINE
5
110
100
AcDbEntity
8
0
100
AcDbPolyline
90
8
70
1
43
0.0
10
163.66250000000002
20
-64.4375
10
150.66249999999999
20
-64.4375
42
0.41421356237309503
10
150.16249999999999
20
-64.9375
10
150.16249999999999
20
-77.9375
42
0.41421356237309503
10
150.66249999999999
20
-78.4375
10
163.66250000000002
20
-78.4375
42
0.41421356237309503
10
164.16250000000002
20
-77.9375
10
164.16250000000002
20
-64.9375
42
0.41421356237309503
0
LWPOLYLINE
5
111
100
AcDbEntity
8
0
100
AcDbPolyline
90
8
70
1
43
0.0
10
112.0625
20
-77.9375
10
112.0625
20
-64.9375
42
-0.41421356237309503
10
112.56250000000001
20
-64.4375
10
125.5625
20
-64.4375
42
-0.41421356237309503
10
126.06250000000001
20
-64.9375
10
126.0625
20
-77.9375
42
-0.41421356237309503
10
125.5625
20
-78.4375
10
112.56250000000001
20
-78.437500000000014
42
-0.41421356237309503
0
LWPOLYLINE
5
112
100
AcDbEntity
8
0
100
AcDbPolyline
90
8
70
1
43
0.0
10
49.362500000000004
20
-78.4375
10
36.362499999999997
20
-78.4375
42
-0.41421356237309503
10
35.862499999999997
20
-77.9375
10
35.862500000000004
20
-64.9375
42
-0.41421356237309503
10
36.362499999999997
20
-64.4375
10
49.362500000000004
20
-64.4375
42
-0.41421356237309503
10
49.862499999999997
20
-64.9375
10
49.862499999999997
20
-77.9375
42
-0.41421356237309503
0
LWPOLYLINE
5
113
100
AcDbEntity
8
0
100
AcDbPolyline
90
8
70
1
43
0.0
10
207.31250000000003
20
-77.9375
10
207.3125
20
-64.9375
42
-0.41421356237309503
10
207.8125
20
-64.4375
10
220.8125
20
-64.4375
42
-0.41421356237309503
10
221.3125
20
-64.9375
10
221.3125
20
-77.9375
42
-0.41421356237309503
10
220.8125
20
-78.4375
10
207.8125
20
-78.437500000000014
42
-0.41421356237309503
0
LWPOLYLINE
5
114
100
AcDbEntity
8
0
100
AcDbPolyline
90
8
70
1
43
0.0
10
182.71250000000003
20
-64.4375
10
169.71250000000001
20
-64.4375
42
0.41421356237309503
10
169.21250000000001
20
-64.9375
10
169.21250000000001
20
-77.9375
42
0.41421356237309503
10
169.71250000000001
20
-78.4375
10
182.71250000000003
20
-78.4375
42
0.41421356237309503
10
183.21250000000003
20
-77.9375
10
183.21250000000003
20
-64.9375
42
0.41421356237309503
0
LWPOLYLINE
5
115
100
AcDbEntity
8
0
100
AcDbPolyline
90
8
70
1
43
0.0
10
201.76249999999999
20
-64.4375
10
188.76249999999999
20
-64.4375
42
0.41421356237309503
10
188.26249999999999
20
-64.9375
10
188.26249999999999
20
-77.9375
42
0.41421356237309503
10
188.76249999999999
20
-78.4375
10
201.76249999999999
20
-78.4375
42
0.41421356237309503
10
202.26249999999999
20
-77.9375
10
202.26249999999999
20
-64.9375
42
0.41421356237309503
0
LWPOLYLINE
5
116
100
AcDbEntity
8
0
100
AcDbPolyline
90
8
70
1
43
0.0
10
226.36250000000001
20
-64.9375
42
-0.41421356237309503
10
226.86250000000001
20
-64.4375
10
239.86250000000001
20
-64.4375
42
-0.41421356237309503
10
240.36250000000001
20
-64.9375
10
240.36250000000001
20
-77.9375
42
-0.41421356237309503
10
239.86250000000001
20
-78.4375
10
226.86250000000001
20
-78.437500000000014
42
-0.41421356237309503
10
226.36250000000001
20
-77.9375
0
LWPOLYLINE
5
117
100
AcDbEntity
8
0
100
AcDbPolyline
90
20
70
1
43
0.0
10
12.868250000000002
20
-97.987499999999997
10
12.868250000000002
20
-97.487500000000011
10
29.994250000000005
20
-97.487500000000011
10
29.994250000000005
20
-97.987499999999997
42
0.41421356237309503
10
30.494250000000001
20
-98.487500000000011
10
36.244250000000008
20
-98.487500000000011
42
0.41421356237309503
10
36.744250000000001
20
-97.987499999999997
10
36.744250000000001
20
-97.487500000000011
10
39.837499999999999
20
-97.487500000000011
42
0.41421356237309503
10
40.337500000000006
20
-96.987500000000011
10
40.337500000000006
20
-83.987499999999997
42
0.41421356237309503
10
39.837499999999999
20
-83.487500000000011
10
5.40625
20
-83.487499999999983
42
0.41421356237309503
10
4.90625
20
-83.987499999999997
10
4.90625
20
-96.987500000000011
42
0.41421356237309503
10
5.40625
20
-97.487500000000011
10
6.1182499999999997
20
-97.487500000000011
10
6.1182499999999997
20
-97.987499999999997
42
0.41421356237309503
10
6.6182499999999997
20
-98.487500000000011
10
12.36825
20
-98.487500000000011
42
0.41421356237309503
0
LWPOLYLINE
5
118
100
AcDbEntity
8
0
100
AcDbPolyline
90
8
70
1
43
0.0
10
59.387500000000003
20
-96.987500000000011
10
59.387500000000003
20
-83.987499999999997
42
0.41421356237309503
10
58.88750000000001
20
-83.487500000000011
10
45.887500000000003
20
-83.487499999999983
42
0.41421356237309503
10
45.387500000000003
20
-83.987499999999997
10
45.387500000000003
20
-96.987500000000011
42
0.41421356237309503
10
45.887500000000003
20
-97.487500000000011
10
58.88750000000001
20
-97.487500000000011
42
0.41421356237309503
0
LWPOLYLINE
5
119
100
AcDbEntity
8
0
100
AcDbPolyline
90
8
70
1
43
0.0
10
297.80000000000001
20
-77.9375
10
297.80000000000001
20
-64.9375
42
-0.41421356237309503
10
298.30000000000001
20
-64.4375
10
311.30000000000001
20
-64.4375
42
-0.41421356237309503
10
311.80000000000001
20
-64.9375
10
311.80000000000001
20
-77.9375
42
-0.41421356237309503
10
311.30000000000001
20
-78.4375
10
298.30000000000001
20
-78.437500000000014
42
-0.41421356237309503
0
LWPOLYLINE
5
120
100
AcDbEntity
8
0
100
AcDbPolyline
90
8
70
1
43
0.0
10
77.9375
20
-97.487500000000011
10
64.9375
20
-97.487500000000011
42
-0.41421356237309503
10
64.4375
20
-96.987500000000011
10
64.4375
20
-83.987499999999997
42
-0.41421356237309503
10
64.9375
20
-83.487500000000011
10
77.9375
20
-83.487499999999983
42
-0.41421356237309503
10
78.4375
20
-83.987499999999997
10
78.437500000000014
20
-96.987500000000011
42
-0.41421356237309503
0
LWPOLYLINE
5
121
100
AcDbEntity
8
0
100
AcDbPolyline
90
8
70
1
43
0.0
10
102.53749999999999
20
-96.987500000000011
10
102.53749999999999
20
-83.987499999999997
42
-0.41421356237309503
10
103.03750000000001
20
-83.487499999999983
10
116.03749999999999
20
-83.487499999999983
42
-0.41421356237309503
10
116.53750000000001
20
-83.987499999999997
10
116.53750000000001
20
-96.987500000000011
42
-0.41421356237309503
10
116.03749999999999
20
-97.487500000000011
10
103.03750000000001
20
-97.487500000000011
42
-0.41421356237309503
0
LWPOLYLINE
5
122
100
AcDbEntity
8
0
100
AcDbPolyline
90
8
70
1
43
0.0
10
121.58750000000001
20
-96.987500000000011
10
121.58750000000001
20
-83.987499999999997
42
-0.41421356237309503
10
122.08750000000002
20
-83.487500000000011
10
135.08750000000001
20
-83.487499999999983
42
-0.41421356237309503
10
135.58750000000001
20
-83.987499999999997
10
135.58750000000001
20
-96.987500000000011
42
-0.41421356237309503
10
135.08750000000001
20
-97.487500000000011
10
122.08750000000002
20
-97.487500000000011
42
-0.41421356237309503
0
LWPOLYLINE
5
123
100
AcDbEntity
8
0
100
AcDbPolyline
90
8
70
1
43
0.0
10
192.73750000000004
20
-96.987500000000011
10
192.73750000000004
20
-83.987499999999997
42
0.41421356237309503
10
192.23750000000001
20
-83.487499999999983
10
179.23750000000001
20
-83.487499999999983
42
0.41421356237309503
10
178.73750000000001
20
-83.987499999999997
10
178.73750000000001
20
-96.987500000000011
42
0.41421356237309503
10
179.23750000000001
20
-97.487500000000011
10
192.23750000000001
20
-97.487500000000011
42
0.41421356237309503
0
LWPOLYLINE
5
124
100
AcDbEntity
8
0
100
AcDbPolyline
90
8
70
1
43
0.0
10
83.487500000000011
20
-96.987500000000011
10
83.487499999999983
20
-83.987499999999997
42
-0.41421356237309503
10
83.987499999999997
20
-83.487499999999983
10
96.987500000000011
20
-83.487499999999983
42
-0.41421356237309503
10
97.487500000000011
20
-83.987499999999997
10
97.487500000000011
20
-96.987500000000011
42
-0.41421356237309503
10
96.987500000000011
20
-97.487500000000011
10
83.987499999999997
20
-97.487500000000011
42
-0.41421356237309503
0
LWPOLYLINE
5
125
100
AcDbEntity
8
0
100
AcDbPolyline
90
8
70
1
43
0.0
10
216.83750000000003
20
-96.987500000000011
10
216.83750000000001
20
-83.987499999999997
42
-0.41421356237309503
10
217.33750000000001
20
-83.487499999999983
10
230.33750000000001
20
-83.487499999999983
42
-0.41421356237309503
10
230.83750000000003
20
-83.987499999999997
10
230.83750000000003
20
-96.987500000000011
42
-0.41421356237309503
10
230.33750000000001
20
-97.487500000000011
10
217.33750000000001
20
-97.487500000000011
42
-0.41421356237309503
0
LWPOLYLINE
5
126
100
AcDbEntity
8
0
100
AcDbPolyline
90
8
70
1
43
0.0
10
197.78749999999999
20
-83.987499999999997
42
-0.41421356237309503
10
198.28749999999999
20
-83.487499999999983
10
211.28749999999999
20
-83.487499999999983
42
-0.41421356237309503
10
211.78750000000002
20
-83.987499999999997
10
211.78750000000002
20
-96.987500000000011
42
-0.41421356237309503
10
211.28749999999999
20
-97.487500000000011
10
198.28749999999999
20
-97.487500000000011
42
-0.41421356237309503
10
197.78749999999999
20
-96.987500000000011
0
LWPOLYLINE
5
127
100
AcDbEntity
8
0
100
AcDbPolyline
90
8
70
1
43
0.0
10
154.63750000000002
20
-96.987500000000011
42
-0.41421356237309503
10
154.13749999999999
20
-97.487500000000011
10
141.13749999999999
20
-97.487500000000011
42
-0.41421356237309503
10
140.63749999999999
20
-96.987500000000011
10
140.63749999999999
20
-83.987499999999997
42
-0.41421356237309503
10
141.13749999999999
20
-83.487500000000011
10
154.13749999999999
20
-83.487499999999983
42
-0.41421356237309503
10
154.63750000000002
20
-83.987499999999997
0
LWPOLYLINE
5
128
100
AcDbEntity
8
0
100
AcDbPolyline
90
8
70
1
43
0.0
10
160.1875
20
-97.487500000000011
42
-0.41421356237309503
10
159.6875
20
-96.987500000000011
10
159.6875
20
-83.987499999999997
42
-0.41421356237309503
10
160.1875
20
-83.487499999999983
10
173.1875
20
-83.487499999999983
42
-0.41421356237309503
10
173.68750000000003
20
-83.987499999999997
10
173.68750000000003
20
-96.987500000000011
42
-0.41421356237309503
10
173.1875
20
-97.487500000000011
0
LWPOLYLINE
5
129
100
AcDbEntity
8
0
100
AcDbPolyline
90
8
70
1
43
0.0
10
52.53125
20
-103.03750000000001
42
-0.41421356237309503
10
53.031250000000007
20
-102.53749999999999
10
66.03125
20
-102.53749999999999
42
-0.41421356237309503
10
66.53125
20
-103.03750000000001
10
66.531250000000014
20
-116.03749999999999
42
-0.41421356237309503
10
66.03125
20
-116.53750000000001
10
53.031250000000007
20
-116.53749999999999
42
-0.41421356237309503
10
52.531250000000007
20
-116.03749999999999
0
LWPOLYLINE
5
130
100
AcDbEntity
8
0
100
AcDbPolyline
90
8
70
1
43
0.0
10
123.96875
20
-103.03750000000001
42
-0.41421356237309503
10
124.46875
20
-102.53749999999999
10
137.46875
20
-102.53749999999999
42
-0.41421356237309503
10
137.96875
20
-103.03750000000001
10
137.96875000000003
20
-116.03749999999999
42
-0.41421356237309503
10
137.46875
20
-116.53750000000001
10
124.46875
20
-116.53750000000001
42
-0.41421356237309503
10
123.96875
20
-116.03749999999999
0
LWPOLYLINE
5
131
100
AcDbEntity
8
0
100
AcDbPolyline
90
8
70
1
43
0.0
10
18.40625
20
-102.53749999999999
42
-0.41421356237309503
10
18.906250000000004
20
-103.03750000000001
10
18.906250000000007
20
-116.03749999999999
42
-0.41421356237309503
10
18.40625
20
-116.53750000000001
10
5.40625
20
-116.53750000000001
42
-0.41421356237309503
10
4.90625
20
-116.03749999999999
10
4.9062499999999929
20
-103.03750000000001
42
-0.41421356237309503
10
5.4062499999999991
20
-102.53749999999999
0
LWPOLYLINE
5
132
100
AcDbEntity
8
0
100
AcDbPolyline
90
8
70
1
43
0.0
10
311.30000000000001
20
-83.487499999999983
42
-0.41421356237309503
10
311.80000000000001
20
-83.987499999999997
10
311.80000000000001
20
-96.987500000000011
42
-0.41421356237309503
10
311.30000000000001
20
-97.487500000000011
10
298.30000000000001
20
-97.487500000000011
42
-0.41421356237309503
10
297.80000000000001
20
-96.987500000000011
10
297.80000000000001
20
-83.987499999999997
42
-0.41421356237309503
10
298.30000000000001
20
-83.487499999999983
0
LWPOLYLINE
5
133
100
AcDbEntity
8
0
100
AcDbPolyline
90
8
70
1
43
0.0
10
287.98750000000001
20
-101.75
42
-0.41421356237309503
10
287.48750000000001
20
-102.25000000000001
10
274.48750000000007
20
-102.25000000000001
42
-0.41421356237309503
10
273.98750000000001
20
-101.75
10
273.98750000000001
20
-88.75
42
-0.41421356237309503
10
274.48750000000007
20
-88.250000000000014
10
287.48750000000001
20
-88.25
42
-0.41421356237309503
10
287.98750000000001
20
-88.75
0
LWPOLYLINE
5
134
100
AcDbEntity
8
0
100
AcDbPolyline
90
8
70
1
43
0.0
10
257.03125000000006
20
-96.987500000000011
42
-0.41421356237309503
10
256.53125
20
-97.487500000000011
10
243.53125000000003
20
-97.487500000000011
42
-0.41421356237309503
10
243.03125
20
-96.987500000000011
10
243.03125
20
-83.987499999999997
42
-0.41421356237309503
10
243.53125000000003
20
-83.487499999999983
10
256.53125
20
-83.487499999999983
42
-0.41421356237309503
10
257.03125
20
-83.987499999999997
0
LWPOLYLINE
5
135
100
AcDbEntity
8
0
100
AcDbPolyline
90
8
70
1
43
0.0
10
42.21875
20
-102.53749999999999
42
-0.41421356237309503
10
42.71875
20
-103.03750000000001
10
42.718750000000007
20
-116.03749999999999
42
-0.41421356237309503
10
42.21875
20
-116.53750000000001
10
29.21875
20
-116.53749999999999
42
-0.41421356237309503
10
28.71875
20
-116.03749999999999
10
28.718749999999993
20
-103.03750000000001
42
-0.41421356237309503
10
29.21875
20
-102.53749999999999
0
LWPOLYLINE
5
136
100
AcDbEntity
8
0
100
AcDbPolyline
90
8
70
1
43
0.0
10
254.93750000000003
20
-107.80000000000001
42
-0.41421356237309503
10
255.43750000000003
20
-107.30000000000001
10
268.4375
20
-107.30000000000001
42
-0.41421356237309503
10
268.9375
20
-107.80000000000001
10
268.9375
20
-120.8
42
-0.41421356237309503
10
268.4375
20
-121.30000000000001
10
255.43750000000003
20
-121.30000000000001
42
-0.41421356237309503
10
254.93750000000003
20
-120.8
0
LWPOLYLINE
5
137
100
AcDbEntity
8
0
100
AcDbPolyline
90
8
70
1
43
0.0
10
197.78749999999999
20
-103.03750000000001
42
-0.41421356237309503
10
198.28749999999999
20
-102.53749999999999
10
211.28749999999999
20
-102.53749999999999
42
-0.41421356237309503
10
211.78750000000002
20
-103.03750000000001
10
211.78750000000002
20
-116.03749999999999
42
-0.41421356237309503
10
211.28749999999999
20
-116.53750000000001
10
198.28749999999999
20
-116.53750000000001
42
-0.41421356237309503
10
197.78750000000002
20
-116.03749999999999
0
LWPOLYLINE
5
138
100
AcDbEntity
8
0
100
AcDbPolyline
90
8
70
1
43
0.0
10
307.03750000000002
20
-120.8
10
307.03750000000002
20
-107.80000000000001
42
0.41421356237309503
10
306.53750000000002
20
-107.30000000000001
10
293.53750000000002
20
-107.30000000000001
42
0.41421356237309503
10
293.03750000000002
20
-107.80000000000001
10
293.03750000000002
20
-120.8
42
0.41421356237309503
10
293.53750000000002
20
-121.30000000000001
10
306.53750000000002
20
-121.30000000000001
42
0.41421356237309503
0
LWPOLYLINE
5
139
100
AcDbEntity
8
0
100
AcDbPolyline
90
8
70
1
43
0.0
10
239.86250000000001
20
-102.53749999999999
10
226.86250000000001
20
-102.53749999999999
42
0.41421356237309503
10
226.36250000000001
20
-103.03750000000001
10
226.36250000000001
20
-116.03749999999999
42
0.41421356237309503
10
226.86250000000001
20
-116.53750000000001
10
239.86250000000001
20
-116.53750000000001
42
0.41421356237309503
10
240.36250000000001
20
-116.03749999999999
10
240.36250000000001
20
-103.03750000000001
42
0.41421356237309503
0
LWPOLYLINE
5
140
100
AcDbEntity
8
0
100
AcDbPolyline
90
8
70
1
43
0.0
10
274.48750000000007
20
-121.30000000000001
42
-0.41421356237309503
10
273.98750000000001
20
-120.8
10
273.98750000000001
20
-107.80000000000001
42
-0.41421356237309503
10
274.48750000000007
20
-107.30000000000001
10
287.48750000000001
20
-107.30000000000001
42
-0.41421356237309503
10
287.98750000000001
20
-107.80000000000001
10
287.98750000000001
20
-120.8
42
-0.41421356237309503
10
287.48750000000001
20
-121.30000000000001
0
LWPOLYLINE
5
141
100
AcDbEntity
8
0
100
AcDbPolyline
90
4
70
1
43
0.0
10
314.32499999999999
20
0
10
0
20
0
10
0
20
-123.825
10
314.32499999999999
20
-123.825
0
LWPOLYLINE
5
142
100
AcDbEntity
8
0
100
AcDbPolyline
90
8
70
1
43
0.0
10
64.4375
20
-3.0249999999999999
42
-0.41421356237309503
10
64.9375
20
-2.5249999999999999
10
77.9375
20
-2.5250000000000017
42
-0.41421356237309503
10
78.4375
20
-3.0249999999999999
10
78.4375
20
-16.024999999999999
42
-0.41421356237309503
10
77.9375
20
-16.525000000000002
10
64.9375
20
-16.524999999999999
42
-0.41421356237309503
10
64.4375
20
-16.024999999999999
0
LWPOLYLINE
5
143
100
AcDbEntity
8
0
100
AcDbPolyline
90
8
70
1
43
0.0
10
59.387500000000003
20
-16.024999999999999
10
59.387500000000003
20
-3.0249999999999999
42
0.41421356237309503
10
58.88750000000001
20
-2.5249999999999999
10
45.887500000000003
20
-2.5249999999999999
42
0.41421356237309503
10
45.387500000000003
20
-3.0249999999999999
10
45.387500000000003
20
-16.024999999999999
42
0.41421356237309503
10
45.887500000000003
20
-16.525000000000002
10
58.88750000000001
20
-16.525000000000002
42
0.41421356237309503
0
LWPOLYLINE
5
144
100
AcDbEntity
8
0
100
AcDbPolyline
90
8
70
1
43
0.0
10
83.487499999999983
20
-3.0249999999999999
42
-0.41421356237309503
10
83.987499999999997
20
-2.5249999999999999
10
96.987500000000011
20
-2.5249999999999928
42
-0.41421356237309503
10
97.487500000000011
20
-3.0249999999999999
10
97.487500000000011
20
-16.024999999999999
42
-0.41421356237309503
10
96.987500000000011
20
-16.524999999999999
10
83.987499999999997
20
-16.525000000000006
42
-0.41421356237309503
10
83.487500000000011
20
-16.024999999999999
0
LWPOLYLINE
5
145
100
AcDbEntity
8
0
100
AcDbPolyline
90
8
70
1
43
0.0
10
16.024999999999999
20
-2.5249999999999995
42
-0.41421356237309503
10
16.525000000000002
20
-3.0249999999999999
10
16.525000000000002
20
-16.024999999999999
42
-0.41421356237309503
10
16.024999999999999
20
-16.524999999999999
10
3.0249999999999999
20
-16.525000000000002
42
-0.41421356237309503
10
2.5249999999999999
20
-16.024999999999999
10
2.5249999999999999
20
-3.0249999999999999
42
-0.41421356237309503
10
3.0249999999999999
20
-2.5249999999999999
0
LWPOLYLINE
5
146
100
AcDbEntity
8
0
100
AcDbPolyline
90
8
70
1
43
0.0
10
40.337500000000006
20
-16.024999999999999
42
-0.41421356237309503
10
39.837499999999999
20
-16.525000000000002
10
26.837499999999999
20
-16.524999999999999
42
-0.41421356237309503
10
26.337499999999999
20
-16.024999999999999
10
26.337499999999999
20
-3.0249999999999999
42
-0.41421356237309503
10
26.837499999999999
20
-2.5249999999999999
10
39.837499999999999
20
-2.5249999999999972
42
-0.41421356237309503
10
40.337500000000006
20
-3.0249999999999999
0
LWPOLYLINE
5
147
100
AcDbEntity
8
0
100
AcDbPolyline
90
8
70
1
43
0.0
10
226.36250000000004
20
-16.024999999999999
10
226.36250000000001
20
-3.0249999999999999
42
-0.41421356237309503
10
226.86250000000001
20
-2.5249999999999999
10
239.86250000000001
20
-2.5249999999999928
42
-0.41421356237309503
10
240.36250000000001
20
-3.0249999999999999
10
240.36250000000001
20
-16.024999999999999
42
-0.41421356237309503
10
239.86250000000001
20
-16.524999999999999
10
226.86250000000001
20
-16.525000000000006
42
-0.41421356237309503
0
LWPOLYLINE
5
148
100
AcDbEntity
8
0
100
AcDbPolyline
90
8
70
1
43
0.0
10
177.94999999999999
20
-2.5249999999999928
42
-0.41421356237309503
10
178.44999999999999
20
-3.0249999999999999
10
178.44999999999999
20
-16.024999999999999
42
-0.41421356237309503
10
177.94999999999999
20
-16.524999999999999
10
164.95000000000002
20
-16.525000000000006
42
-0.41421356237309503
10
164.44999999999999
20
-16.024999999999999
10
164.44999999999999
20
-3.0249999999999999
42
-0.41421356237309503
10
164.95000000000002
20
-2.5249999999999999
0
LWPOLYLINE
5
149
100
AcDbEntity
8
0
100
AcDbPolyline
90
8
70
1
43
0.0
10
139.84999999999999
20
-2.5249999999999999
10
126.85000000000001
20
-2.5249999999999999
42
0.41421356237309503
10
126.34999999999999
20
-3.0249999999999999
10
126.34999999999999
20
-16.024999999999999
42
0.41421356237309503
10
126.85000000000001
20
-16.525000000000002
10
139.84999999999999
20
-16.525000000000002
42
0.41421356237309503
10
140.34999999999999
20
-16.024999999999999
10
140.34999999999999
20
-3.0249999999999999
42
0.41421356237309503
0
LWPOLYLINE
5
150
100
AcDbEntity
8
0
100
AcDbPolyline
90
8
70
1
43
0.0
10
159.40000000000001
20
-16.024999999999999
42
-0.41421356237309503
10
158.90000000000001
20
-16.525000000000002
10
145.90000000000001
20
-16.525000000000006
42
-0.41421356237309503
10
145.40000000000001
20
-16.024999999999999
10
145.40000000000001
20
-3.0249999999999999
42
-0.41421356237309503
10
145.90000000000001
20
-2.5249999999999999
10
158.90000000000001
20
-2.5249999999999928
42
-0.41421356237309503
10
159.40000000000001
20
-3.0249999999999999
0
LWPOLYLINE
5
151
100
AcDbEntity
8
0
100
AcDbPolyline
90
8
70
1
43
0.0
10
220.8125
20
-2.5249999999999999
10
207.8125
20
-2.5249999999999999
42
0.41421356237309503
10
207.31250000000003
20
-3.0249999999999999
10
207.3125
20
-16.024999999999999
42
0.41421356237309503
10
207.8125
20
-16.524999999999999
10
220.8125
20
-16.525000000000002
42
0.41421356237309503
10
221.3125
20
-16.024999999999999
10
221.3125
20
-3.0249999999999999
42
0.41421356237309503
0
LWPOLYLINE
5
152
100
AcDbEntity
8
0
100
AcDbPolyline
90
8
70
1
43
0.0
10
107.30000000000001
20
-3.0249999999999999
42
-0.41421356237309503
10
107.80000000000001
20
-2.5249999999999999
10
120.8
20
-2.5249999999999928
42
-0.41421356237309503
10
121.30000000000001
20
-3.0249999999999999
10
121.30000000000001
20
-16.024999999999999
42
-0.41421356237309503
10
120.8
20
-16.525000000000002
10
107.80000000000001
20
-16.525000000000006
42
-0.41421356237309503
10
107.30000000000001
20
-16.024999999999999
0
LWPOLYLINE
5
153
100
AcDbEntity
8
0
100
AcDbPolyline
90
8
70
1
43
0.0
10
188.26249999999999
20
-3.0249999999999999
42
-0.41421356237309503
10
188.76249999999999
20
-2.5249999999999999
10
201.76249999999999
20
-2.5249999999999928
42
-0.41421356237309503
10
202.26249999999999
20
-3.0249999999999999
10
202.26249999999999
20
-16.024999999999999
42
-0.41421356237309503
10
201.76249999999999
20
-16.525000000000002
10
188.76249999999999
20
-16.525000000000006
42
-0.41421356237309503
10
188.26249999999999
20
-16.024999999999999
0
LWPOLYLINE
5
154
100
AcDbEntity
8
0
100
AcDbPolyline
90
8
70
1
43
0.0
10
258.91250000000002
20
-16.524999999999999
10
245.91250000000002
20
-16.525000000000006
42
-0.41421356237309503
10
245.41250000000002
20
-16.024999999999999
10
245.41250000000002
20
-3.0249999999999999
42
-0.41421356237309503
10
245.91250000000002
20
-2.5249999999999999
10
258.91250000000002
20
-2.5249999999999928
42
-0.41421356237309503
10
259.41250000000002
20
-3.0249999999999999
10
259.41250000000002
20
-16.024999999999999
42
-0.41421356237309503
0
LWPOLYLINE
5
155
100
AcDbEntity
8
0
100
AcDbPolyline
90
8
70
1
43
0.0
10
79.224999999999994
20
-40.337499999999991
42
-0.41421356237309503
10
78.724999999999994
20
-39.837499999999999
10
78.724999999999994
20
-26.837499999999999
42
-0.41421356237309503
10
79.224999999999994
20
-26.337499999999999
10
92.224999999999994
20
-26.337499999999991
42
-0.41421356237309503
10
92.725000000000009
20
-26.837499999999999
10
92.725000000000009
20
-39.837499999999999
42
-0.41421356237309503
10
92.224999999999994
20
-40.337500000000006
0
LWPOLYLINE
5
156
100
AcDbEntity
8
0
100
AcDbPolyline
90
8
70
1
43
0.0
10
97.77500000000002
20
-39.837499999999999
10
97.775000000000006
20
-26.837499999999999
42
-0.41421356237309503
10
98.275000000000006
20
-26.337499999999999
10
111.27500000000001
20
-26.337499999999991
42
-0.41421356237309503
10
111.77500000000002
20
-26.837499999999999
10
111.77500000000002
20
-39.837499999999999
42
-0.41421356237309503
10
111.27500000000001
20
-40.337500000000006
10
98.275000000000006
20
-40.337500000000013
42
-0.41421356237309503
0
LWPOLYLINE
5
157
100
AcDbEntity
8
0
100
AcDbPolyline
90
8
70
1
43
0.0
10
41.125
20
-40.337499999999991
42
-0.41421356237309503
10
40.625
20
-39.837499999999999
10
40.625
20
-26.837499999999999
42
-0.41421356237309503
10
41.125
20
-26.337499999999999
10
54.125000000000007
20
-26.337499999999999
42
-0.41421356237309503
10
54.625
20
-26.837499999999999
10
54.625
20
-39.837499999999999
42
-0.41421356237309503
10
54.125000000000007
20
-40.337500000000006
0
LWPOLYLINE
5
158
100
AcDbEntity
8
0
100
AcDbPolyline
90
8
70
1
43
0.0
10
60.174999999999997
20
-40.337499999999991
42
-0.41421356237309503
10
59.675000000000004
20
-39.837499999999999
10
59.675000000000004
20
-26.837499999999999
42
-0.41421356237309503
10
60.174999999999997
20
-26.337499999999999
10
73.174999999999997
20
-26.337499999999999
42
-0.41421356237309503
10
73.674999999999997
20
-26.837499999999999
10
73.674999999999997
20
-39.837499999999999
42
-0.41421356237309503
10
73.174999999999997
20
-40.337500000000006
0
LWPOLYLINE
5
159
100
AcDbEntity
8
0
100
AcDbPolyline
90
8
70
1
43
0.0
10
283.22500000000002
20
-16.024999999999999
10
283.22500000000002
20
-3.0249999999999999
42
0.41421356237309503
10
282.72500000000002
20
-2.5249999999999999
10
269.72500000000002
20
-2.5249999999999999
42
0.41421356237309503
10
269.22500000000002
20
-3.0249999999999999
10
269.22500000000002
20
-16.024999999999999
42
0.41421356237309503
10
269.72500000000002
20
-16.525000000000002
10
282.72500000000002
20
-16.525000000000002
42
0.41421356237309503
0
LWPOLYLINE
5
160
100
AcDbEntity
8
0
100
AcDbPolyline
90
8
70
1
43
0.0
10
2.5250000000000017
20
-26.837499999999999
42
-0.41421356237309503
10
3.0249999999999999
20
-26.337499999999999
10
16.024999999999999
20
-26.337499999999999
42
-0.41421356237309503
10
16.524999999999999
20
-26.837499999999999
10
16.525000000000002
20
-39.837499999999999
42
-0.41421356237309503
10
16.024999999999999
20
-40.337500000000006
10
3.0249999999999999
20
-40.337500000000006
42
-0.41421356237309503
10
2.5249999999999999
20
-39.837499999999999
0
LWPOLYLINE
5
161
100
AcDbEntity
8
0
100
AcDbPolyline
90
8
70
1
43
0.0
10
35.075000000000003
20
-40.337500000000006
10
22.074999999999999
20
-40.337499999999991
42
-0.41421356237309503
10
21.575000000000003
20
-39.837499999999999
10
21.575000000000003
20
-26.837499999999999
42
-0.41421356237309503
10
22.074999999999999
20
-26.337499999999999
10
35.075000000000003
20
-26.337499999999999
42
-0.41421356237309503
10
35.575000000000003
20
-26.837499999999999
10
35.575000000000003
20
-39.837499999999999
42
-0.41421356237309503
0
LWPOLYLINE
5
162
100
AcDbEntity
8
0
100
AcDbPolyline
90
8
70
1
43
0.0
10
311.80000000000001
20
-16.024999999999999
10
311.80000000000001
20
-3.0249999999999999
42
0.41421356237309503
10
311.30000000000001
20
-2.5249999999999999
10
298.30000000000001
20
-2.5249999999999999
42
0.41421356237309503
10
297.80000000000001
20
-3.0249999999999999
10
297.80000000000001
20
-16.024999999999999
42
0.41421356237309503
10
298.30000000000001
20
-16.525000000000002
10
311.30000000000001
20
-16.525000000000002
42
0.41421356237309503
0
LWPOLYLINE
5
163
100
AcDbEntity
8
0
100
AcDbPolyline
90
8
70
1
43
0.0
10
193.02500000000003
20
-26.837499999999999
42
-0.41421356237309503
10
193.52500000000003
20
-26.337499999999999
10
206.52500000000003
20
-26.337499999999991
42
-0.41421356237309503
10
207.02500000000001
20
-26.837499999999999
10
207.02500000000003
20
-39.837499999999999
42
-0.41421356237309503
10
206.52500000000003
20
-40.337500000000006
10
193.52500000000003
20
-40.337500000000013
42
-0.41421356237309503
10
193.02500000000003
20
-39.837499999999999
0
LWPOLYLINE
5
164
100
AcDbEntity
8
0
100
AcDbPolyline
90
8
70
1
43
0.0
10
116.82500000000002
20
-26.837499999999999
42
-0.41421356237309503
10
117.32500000000002
20
-26.337499999999999
10
130.32499999999999
20
-26.337499999999991
42
-0.41421356237309503
10
130.82499999999999
20
-26.837499999999999
10
130.82499999999999
20
-39.837499999999999
42
-0.41421356237309503
10
130.32499999999999
20
-40.337500000000006
10
117.32500000000002
20
-40.337500000000013
42
-0.41421356237309503
10
116.82500000000002
20
-39.837499999999999
0
LWPOLYLINE
5
165
100
AcDbEntity
8
0
100
AcDbPolyline
90
8
70
1
43
0.0
10
173.97500000000002
20
-26.837499999999999
42
-0.41421356237309503
10
174.47500000000002
20
-26.337499999999999
10
187.47499999999999
20
-26.337499999999991
42
-0.41421356237309503
10
187.97499999999999
20
-26.837499999999999
10
187.97499999999999
20
-39.837499999999999
42
-0.41421356237309503
10
187.47499999999999
20
-40.337500000000006
10
174.47500000000002
20
-40.337500000000013
42
-0.41421356237309503
10
173.97500000000002
20
-39.837499999999999
0
LWPOLYLINE
5
166
100
AcDbEntity
8
0
100
AcDbPolyline
90
8
70
1
43
0.0
10
225.57500000000002
20
-26.337499999999991
42
-0.41421356237309503
10
226.07500000000002
20
-26.837499999999999
10
226.07500000000002
20
-39.837499999999999
42
-0.41421356237309503
10
225.57500000000002
20
-40.337500000000006
10
212.57499999999999
20
-40.337500000000013
42
-0.41421356237309503
10
212.07499999999999
20
-39.837499999999999
10
212.07499999999999
20
-26.837499999999999
42
-0.41421356237309503
10
212.57499999999999
20
-26.337499999999999
0
LWPOLYLINE
5
167
100
AcDbEntity
8
0
100
AcDbPolyline
90
8
70
1
43
0.0
10
149.375
20
-26.337499999999991
42
-0.41421356237309503
10
149.875
20
-26.837499999999999
10
149.875
20
-39.837499999999999
42
-0.41421356237309503
10
149.375
20
-40.337500000000006
10
136.375
20
-40.337500000000013
42
-0.41421356237309503
10
135.875
20
-39.837499999999999
10
135.87500000000003
20
-26.837499999999999
42
-0.41421356237309503
10
136.375
20
-26.337499999999999
0
LWPOLYLINE
5
168
100
AcDbEntity
8
0
100
AcDbPolyline
90
8
70
1
43
0.0
10
168.42500000000001
20
-26.337499999999999
10
155.42500000000001
20
-26.337499999999999
42
0.41421356237309503
10
154.92500000000001
20
-26.837499999999999
10
154.92500000000001
20
-39.837499999999999
42
0.41421356237309503
10
155.42500000000001
20
-40.337500000000006
10
168.42500000000001
20
-40.337500000000006
42
0.41421356237309503
10
168.92500000000001
20
-39.837499999999999
10
168.92500000000001
20
-26.837499999999999
42
0.41421356237309503
0
LWPOLYLINE
5
169
100
AcDbEntity
8
0
100
AcDbPolyline
90
8
70
1
43
0.0
10
244.62500000000003
20
-26.337499999999999
10
231.625
20
-26.337499999999999
42
0.41421356237309503
10
231.125
20
-26.837499999999999
10
231.125
20
-39.837499999999999
42
0.41421356237309503
10
231.625
20
-40.337500000000006
10
244.62500000000003
20
-40.337500000000006
42
0.41421356237309503
10
245.12500000000003
20
-39.837499999999999
10
245.12500000000003
20
-26.837499999999999
42
0.41421356237309503
0
LWPOLYLINE
5
170
100
AcDbEntity
8
0
100
AcDbPolyline
90
20
70
1
43
0.0
10
251.387
20
-40.837500000000006
10
251.387
20
-40.337500000000006
10
250.67500000000001
20
-40.337500000000013
42
-0.41421356237309503
10
250.17500000000001
20
-39.837499999999999
10
250.17500000000001
20
-26.837499999999999
42
-0.41421356237309503
10
250.67500000000001
20
-26.337499999999999
10
282.72500000000002
20
-26.337499999999991
42
-0.41421356237309503
10
283.22500000000002
20
-26.837499999999999
10
283.22500000000002
20
-39.837499999999999
42
-0.41421356237309503
10
282.72500000000002
20
-40.337500000000006
10
282.01299999999998
20
-40.337500000000006
10
282.01299999999998
20
-40.837500000000006
42
-0.41421356237309503
10
281.51299999999998
20
-41.337499999999999
10
275.76299999999998
20
-41.337500000000006
42
-0.41421356237309503
10
275.26299999999998
20
-40.837500000000006
10
275.26299999999998
20
-40.337500000000006
10
258.137
20
-40.337500000000006
10
258.137
20
-40.837500000000006
42
-0.41421356237309503
10
257.637
20
-41.337499999999999
10
251.887
20
-41.337500000000006
42
-0.41421356237309503
0
LWPOLYLINE
5
171
100
AcDbEntity
8
0
100
AcDbPolyline
90
8
70
1
43
0.0
10
311.30000000000001
20
-26.337499999999991
42
-0.41421356237309503
10
311.80000000000001
20
-26.837499999999999
10
311.80000000000001
20
-39.837499999999999
42
-0.41421356237309503
10
311.30000000000001
20
-40.337500000000006
10
298.30000000000001
20
-40.337500000000013
42
-0.41421356237309503
10
297.80000000000001
20
-39.837499999999999
10
297.80000000000001
20
-26.837499999999999
42
-0.41421356237309503
10
298.30000000000001
20
-26.337499999999999
0
LWPOLYLINE
5
172
100
AcDbEntity
8
0
100
AcDbPolyline
90
8
70
1
43
0.0
10
21.287500000000001
20
-58.88750000000001
42
-0.41421356237309503
10
20.787500000000001
20
-59.387500000000003
10
7.7875000000000005
20
-59.387500000000003
42
-0.41421356237309503
10
7.2874999999999996
20
-58.88750000000001
10
7.2875000000000023
20
-45.887500000000003
42
-0.41421356237309503
10
7.7875000000000005
20
-45.387500000000003
10
20.787500000000001
20
-45.387500000000003
42
-0.41421356237309503
10
21.287500000000001
20
-45.887500000000003
0
LWPOLYLINE
5
173
100
AcDbEntity
8
0
100
AcDbPolyline
90
8
70
1
43
0.0
10
31.100000000000001
20
-45.887500000000003
42
-0.41421356237309503
10
31.600000000000001
20
-45.387500000000003
10
44.600000000000001
20
-45.387500000000003
42
-0.41421356237309503
10
45.100000000000009
20
-45.887500000000003
10
45.099999999999994
20
-58.88750000000001
42
-0.41421356237309503
10
44.600000000000001
20
-59.387500000000003
10
31.600000000000001
20
-59.387500000000003
42
-0.41421356237309503
10
31.100000000000001
20
-58.88750000000001
0
LWPOLYLINE
5
174
100
AcDbEntity
8
0
100
AcDbPolyline
90
8
70
1
43
0.0
10
63.650000000000006
20
-59.387500000000003
10
50.650000000000006
20
-59.387500000000003
42
-0.41421356237309503
10
50.150000000000006
20
-58.88750000000001
10
50.150000000000006
20
-45.887500000000003
42
-0.41421356237309503
10
50.650000000000006
20
-45.387500000000003
10
63.650000000000006
20
-45.387500000000003
42
-0.41421356237309503
10
64.150000000000006
20
-45.887500000000003
10
64.150000000000006
20
-58.88750000000001
42
-0.41421356237309503
0
LWPOLYLINE
5
175
100
AcDbEntity
8
0
100
AcDbPolyline
90
8
70
1
43
0.0
10
121.30000000000001
20
-58.88750000000001
10
121.30000000000001
20
-45.887500000000003
42
0.41421356237309503
10
120.8
20
-45.387500000000003
10
107.80000000000001
20
-45.387500000000003
42
0.41421356237309503
10
107.30000000000001
20
-45.887500000000003
10
107.30000000000001
20
-58.88750000000001
42
0.41421356237309503
10
107.80000000000001
20
-59.387500000000003
10
120.8
20
-59.387500000000003
42
0.41421356237309503
0
LWPOLYLINE
5
176
100
AcDbEntity
8
0
100
AcDbPolyline
90
8
70
1
43
0.0
10
126.35000000000002
20
-45.887500000000003
42
-0.41421356237309503
10
126.85000000000001
20
-45.387500000000003
10
139.84999999999999
20
-45.387499999999996
42
-0.41421356237309503
10
140.34999999999999
20
-45.887500000000003
10
140.34999999999999
20
-58.88750000000001
42
-0.41421356237309503
10
139.84999999999999
20
-59.387500000000003
10
126.85000000000001
20
-59.387500000000017
42
-0.41421356237309503
10
126.34999999999999
20
-58.88750000000001
0
LWPOLYLINE
5
177
100
AcDbEntity
8
0
100
AcDbPolyline
90
8
70
1
43
0.0
10
145.40000000000003
20
-45.887500000000003
42
-0.41421356237309503
10
145.90000000000001
20
-45.387500000000003
10
158.90000000000001
20
-45.387499999999996
42
-0.41421356237309503
10
159.40000000000001
20
-45.887500000000003
10
159.40000000000001
20
-58.88750000000001
42
-0.41421356237309503
10
158.90000000000001
20
-59.387500000000003
10
145.90000000000001
20
-59.387500000000017
42
-0.41421356237309503
10
145.40000000000001
20
-58.88750000000001
0
LWPOLYLINE
5
178
100
AcDbEntity
8
0
100
AcDbPolyline
90
8
70
1
43
0.0
10
197.5
20
-58.88750000000001
10
197.50000000000003
20
-45.887500000000003
42
0.41421356237309503
10
197.00000000000003
20
-45.387500000000003
10
184.00000000000003
20
-45.387500000000003
42
0.41421356237309503
10
183.5
20
-45.887500000000003
10
183.5
20
-58.88750000000001
42
0.41421356237309503
10
184.00000000000003
20
-59.387500000000003
10
197.00000000000003
20
-59.387500000000003
42
0.41421356237309503
0
LWPOLYLINE
5
179
100
AcDbEntity
8
0
100
AcDbPolyline
90
8
70
1
43
0.0
10
83.200000000000003
20
-58.88750000000001
42
-0.41421356237309503
10
82.700000000000017
20
-59.387500000000003
10
69.700000000000003
20
-59.387500000000003
42
-0.41421356237309503
10
69.200000000000003
20
-58.88750000000001
10
69.200000000000003
20
-45.887500000000003
42
-0.41421356237309503
10
69.700000000000003
20
-45.387500000000003
10
82.700000000000017
20
-45.387499999999996
42
-0.41421356237309503
10
83.200000000000017
20
-45.887500000000003
0
LWPOLYLINE
5
180
100
AcDbEntity
8
0
100
AcDbPolyline
90
8
70
1
43
0.0
10
177.94999999999999
20
-45.387500000000003
10
164.95000000000002
20
-45.387500000000003
42
0.41421356237309503
10
164.44999999999999
20
-45.887500000000003
10
164.44999999999999
20
-58.88750000000001
42
0.41421356237309503
10
164.95000000000002
20
-59.387500000000003
10
177.94999999999999
20
-59.387500000000003
42
0.41421356237309503
10
178.44999999999999
20
-58.88750000000001
10
178.44999999999999
20
-45.887500000000003
42
0.41421356237309503
0
LWPOLYLINE
5
181
100
AcDbEntity
8
0
100
AcDbPolyline
90
8
70
1
43
0.0
10
102.25000000000001
20
-58.88750000000001
10
102.25000000000001
20
-45.887500000000003
42
0.41421356237309503
10
101.75
20
-45.387500000000003
10
88.75
20
-45.387500000000003
42
0.41421356237309503
10
88.25
20
-45.887500000000003
10
88.25
20
-58.88750000000001
42
0.41421356237309503
10
88.75
20
-59.387500000000003
10
101.75
20
-59.387500000000003
42
0.41421356237309503
0
LWPOLYLINE
5
182
100
AcDbEntity
8
0
100
AcDbPolyline
90
8
70
1
43
0.0
10
84.343750000000014
20
-115.03749999999998
42
-0.41421356237309503
10
83.84375
20
-115.53749999999999
10
78.09375
20
-115.53749999999997
42
-0.41421356237309503
10
77.59375
20
-115.03749999999998
10
77.59375
20
-102.03749999999999
42
-0.41421356237309503
10
78.09375
20
-101.53749999999999
10
83.84375
20
-101.53749999999999
42
-0.41421356237309503
10
84.343750000000014
20
-102.03749999999999
0
LWPOLYLINE
5
183
100
AcDbEntity
8
0
100
AcDbPolyline
90
8
70
1
43
0.0
10
183.84375000000003
20
-101.53749999999999
10
178.09375
20
-101.53749999999999
42
0.41421356237309503
10
177.59375000000003
20
-102.03749999999999
10
177.59375000000003
20
-115.03749999999998
42
0.41421356237309503
10
178.09375
20
-115.53749999999999
10
183.84375000000003
20
-115.53749999999999
42
0.41421356237309503
10
184.34375
20
-115.03749999999998
10
184.34375
20
-102.03749999999999
42
0.41421356237309503
0
ENDSEC
0
SECTION
2
OBJECTS
0
DICTIONARY
5
C
100
AcDbDictionary
3
ACAD_GROUP
350
D
3
ACAD_MLINESTYLE
350
17
0
DICTIONARY
5
D
100
AcDbDictionary
0
DICTIONARY
5
1A
330
C
100
AcDbDictionary
0
DICTIONARY
5
17
100
AcDbDictionary
0
ENDSEC
0
EOF
