G04 #@! TF.GenerationSoftware,KiCad,Pcbnew,(5.1.4)-1*
G04 #@! TF.CreationDate,2023-02-22T10:45:21+08:00*
G04 #@! TF.ProjectId,C-13X-PCB,432d3133-582d-4504-9342-2e6b69636164,rev?*
G04 #@! TF.SameCoordinates,Original*
G04 #@! TF.FileFunction,Other,Comment*
%FSLAX46Y46*%
G04 Gerber Fmt 4.6, Leading zero omitted, Abs format (unit mm)*
G04 Created by KiCad (PCBNEW (5.1.4)-1) date 2023-02-22 10:45:21*
%MOMM*%
%LPD*%
G04 APERTURE LIST*
%ADD10C,0.070000*%
G04 APERTURE END LIST*
D10*
X88455654Y-35899702D02*
X88455654Y-35499702D01*
X88684226Y-35899702D02*
X88512797Y-35671130D01*
X88684226Y-35499702D02*
X88455654Y-35728273D01*
X88855654Y-35690178D02*
X88988988Y-35690178D01*
X89046130Y-35899702D02*
X88855654Y-35899702D01*
X88855654Y-35499702D01*
X89046130Y-35499702D01*
X89217559Y-35690178D02*
X89350892Y-35690178D01*
X89408035Y-35899702D02*
X89217559Y-35899702D01*
X89217559Y-35499702D01*
X89408035Y-35499702D01*
X89579464Y-35899702D02*
X89579464Y-35499702D01*
X89731845Y-35499702D01*
X89769940Y-35518750D01*
X89788988Y-35537797D01*
X89808035Y-35575892D01*
X89808035Y-35633035D01*
X89788988Y-35671130D01*
X89769940Y-35690178D01*
X89731845Y-35709226D01*
X89579464Y-35709226D01*
X90055654Y-35499702D02*
X90131845Y-35499702D01*
X90169940Y-35518750D01*
X90208035Y-35556845D01*
X90227083Y-35633035D01*
X90227083Y-35766369D01*
X90208035Y-35842559D01*
X90169940Y-35880654D01*
X90131845Y-35899702D01*
X90055654Y-35899702D01*
X90017559Y-35880654D01*
X89979464Y-35842559D01*
X89960416Y-35766369D01*
X89960416Y-35633035D01*
X89979464Y-35556845D01*
X90017559Y-35518750D01*
X90055654Y-35499702D01*
X90398511Y-35499702D02*
X90398511Y-35823511D01*
X90417559Y-35861607D01*
X90436607Y-35880654D01*
X90474702Y-35899702D01*
X90550892Y-35899702D01*
X90588988Y-35880654D01*
X90608035Y-35861607D01*
X90627083Y-35823511D01*
X90627083Y-35499702D01*
X90760416Y-35499702D02*
X90988988Y-35499702D01*
X90874702Y-35899702D02*
X90874702Y-35499702D01*
M02*
