G04 #@! TF.GenerationSoftware,KiCad,Pcbnew,(5.1.4)-1*
G04 #@! TF.CreationDate,2023-02-22T10:45:21+08:00*
G04 #@! TF.ProjectId,C-13X-PCB,432d3133-582d-4504-9342-2e6b69636164,rev?*
G04 #@! TF.SameCoordinates,Original*
G04 #@! TF.FileFunction,Paste,Bot*
G04 #@! TF.FilePolarity,Positive*
%FSLAX46Y46*%
G04 Gerber Fmt 4.6, Leading zero omitted, Abs format (unit mm)*
G04 Created by KiCad (PCBNEW (5.1.4)-1) date 2023-02-22 10:45:21*
%MOMM*%
%LPD*%
G04 APERTURE LIST*
%ADD10C,0.100000*%
%ADD11C,1.000000*%
%ADD12C,0.875000*%
%ADD13R,1.060000X0.650000*%
%ADD14R,0.700000X0.700000*%
%ADD15C,1.200000*%
%ADD16C,0.550000*%
%ADD17R,1.000000X1.700000*%
%ADD18C,0.600000*%
%ADD19C,1.425000*%
%ADD20R,1.200000X0.900000*%
%ADD21C,0.975000*%
G04 APERTURE END LIST*
D10*
G36*
X216027000Y-75501500D02*
G01*
X218059000Y-75184000D01*
X218059000Y-72644000D01*
X216027000Y-72326500D01*
X216027000Y-75501500D01*
G37*
X216027000Y-75501500D02*
X218059000Y-75184000D01*
X218059000Y-72644000D01*
X216027000Y-72326500D01*
X216027000Y-75501500D01*
G36*
X204470000Y-74930000D02*
G01*
X202438000Y-75247500D01*
X202438000Y-77787500D01*
X204470000Y-78105000D01*
X204470000Y-74930000D01*
G37*
X204470000Y-74930000D02*
X202438000Y-75247500D01*
X202438000Y-77787500D01*
X204470000Y-78105000D01*
X204470000Y-74930000D01*
G36*
X180411476Y-76054944D02*
G01*
X182357472Y-75389415D01*
X181916406Y-72888003D01*
X179860143Y-72928180D01*
X180411476Y-76054944D01*
G37*
X180411476Y-76054944D02*
X182357472Y-75389415D01*
X181916406Y-72888003D01*
X179860143Y-72928180D01*
X180411476Y-76054944D01*
G36*
X168930813Y-77498979D02*
G01*
X166984817Y-78164508D01*
X167425883Y-80665920D01*
X169482146Y-80625743D01*
X168930813Y-77498979D01*
G37*
X168930813Y-77498979D02*
X166984817Y-78164508D01*
X167425883Y-80665920D01*
X169482146Y-80625743D01*
X168930813Y-77498979D01*
G36*
X149925521Y-81430440D02*
G01*
X151871517Y-80764911D01*
X151430451Y-78263499D01*
X149374188Y-78303676D01*
X149925521Y-81430440D01*
G37*
X149925521Y-81430440D02*
X151871517Y-80764911D01*
X151430451Y-78263499D01*
X149374188Y-78303676D01*
X149925521Y-81430440D01*
G36*
X138444858Y-82874475D02*
G01*
X136498862Y-83540004D01*
X136939928Y-86041416D01*
X138996191Y-86001239D01*
X138444858Y-82874475D01*
G37*
X138444858Y-82874475D02*
X136498862Y-83540004D01*
X136939928Y-86041416D01*
X138996191Y-86001239D01*
X138444858Y-82874475D01*
G36*
X91142266Y-86987876D02*
G01*
X93198528Y-87028053D01*
X93639595Y-84526641D01*
X91693599Y-83861111D01*
X91142266Y-86987876D01*
G37*
X91142266Y-86987876D02*
X93198528Y-87028053D01*
X93639595Y-84526641D01*
X91693599Y-83861111D01*
X91142266Y-86987876D01*
G36*
X79860082Y-84418206D02*
G01*
X77803820Y-84378030D01*
X77362753Y-86879441D01*
X79308749Y-87544971D01*
X79860082Y-84418206D01*
G37*
X79860082Y-84418206D02*
X77803820Y-84378030D01*
X77362753Y-86879441D01*
X79308749Y-87544971D01*
X79860082Y-84418206D01*
G36*
X55966164Y-80785380D02*
G01*
X58022426Y-80825557D01*
X58463493Y-78324145D01*
X56517497Y-77658615D01*
X55966164Y-80785380D01*
G37*
X55966164Y-80785380D02*
X58022426Y-80825557D01*
X58463493Y-78324145D01*
X56517497Y-77658615D01*
X55966164Y-80785380D01*
G36*
X44683980Y-78215710D02*
G01*
X42627718Y-78175534D01*
X42186651Y-80676945D01*
X44132647Y-81342475D01*
X44683980Y-78215710D01*
G37*
X44683980Y-78215710D02*
X42627718Y-78175534D01*
X42186651Y-80676945D01*
X44132647Y-81342475D01*
X44683980Y-78215710D01*
G36*
X20764500Y-75501500D02*
G01*
X22796500Y-75184000D01*
X22796500Y-72644000D01*
X20764500Y-72326500D01*
X20764500Y-75501500D01*
G37*
X20764500Y-75501500D02*
X22796500Y-75184000D01*
X22796500Y-72644000D01*
X20764500Y-72326500D01*
X20764500Y-75501500D01*
G36*
X9207500Y-74930000D02*
G01*
X7175500Y-75247500D01*
X7175500Y-77787500D01*
X9207500Y-78105000D01*
X9207500Y-74930000D01*
G37*
X9207500Y-74930000D02*
X7175500Y-75247500D01*
X7175500Y-77787500D01*
X9207500Y-78105000D01*
X9207500Y-74930000D01*
G36*
X220789500Y-56451500D02*
G01*
X222821500Y-56134000D01*
X222821500Y-53594000D01*
X220789500Y-53276500D01*
X220789500Y-56451500D01*
G37*
X220789500Y-56451500D02*
X222821500Y-56134000D01*
X222821500Y-53594000D01*
X220789500Y-53276500D01*
X220789500Y-56451500D01*
G36*
X209232500Y-55880000D02*
G01*
X207200500Y-56197500D01*
X207200500Y-58737500D01*
X209232500Y-59055000D01*
X209232500Y-55880000D01*
G37*
X209232500Y-55880000D02*
X207200500Y-56197500D01*
X207200500Y-58737500D01*
X209232500Y-59055000D01*
X209232500Y-55880000D01*
G36*
X199358250Y-56451500D02*
G01*
X201390250Y-56134000D01*
X201390250Y-53594000D01*
X199358250Y-53276500D01*
X199358250Y-56451500D01*
G37*
X199358250Y-56451500D02*
X201390250Y-56134000D01*
X201390250Y-53594000D01*
X199358250Y-53276500D01*
X199358250Y-56451500D01*
G36*
X187801250Y-55880000D02*
G01*
X185769250Y-56197500D01*
X185769250Y-58737500D01*
X187801250Y-59055000D01*
X187801250Y-55880000D01*
G37*
X187801250Y-55880000D02*
X185769250Y-56197500D01*
X185769250Y-58737500D01*
X187801250Y-59055000D01*
X187801250Y-55880000D01*
G36*
X177103478Y-57294355D02*
G01*
X179049474Y-56628826D01*
X178608408Y-54127414D01*
X176552145Y-54167591D01*
X177103478Y-57294355D01*
G37*
X177103478Y-57294355D02*
X179049474Y-56628826D01*
X178608408Y-54127414D01*
X176552145Y-54167591D01*
X177103478Y-57294355D01*
G36*
X165622815Y-58738390D02*
G01*
X163676819Y-59403919D01*
X164117885Y-61905331D01*
X166174148Y-61865154D01*
X165622815Y-58738390D01*
G37*
X165622815Y-58738390D02*
X163676819Y-59403919D01*
X164117885Y-61905331D01*
X166174148Y-61865154D01*
X165622815Y-58738390D01*
G36*
X158342891Y-60602353D02*
G01*
X160288887Y-59936824D01*
X159847821Y-57435412D01*
X157791558Y-57475589D01*
X158342891Y-60602353D01*
G37*
X158342891Y-60602353D02*
X160288887Y-59936824D01*
X159847821Y-57435412D01*
X157791558Y-57475589D01*
X158342891Y-60602353D01*
G36*
X146862228Y-62046388D02*
G01*
X144916232Y-62711917D01*
X145357298Y-65213329D01*
X147413561Y-65173152D01*
X146862228Y-62046388D01*
G37*
X146862228Y-62046388D02*
X144916232Y-62711917D01*
X145357298Y-65213329D01*
X147413561Y-65173152D01*
X146862228Y-62046388D01*
G36*
X139582303Y-63910351D02*
G01*
X141528299Y-63244822D01*
X141087233Y-60743410D01*
X139030970Y-60783587D01*
X139582303Y-63910351D01*
G37*
X139582303Y-63910351D02*
X141528299Y-63244822D01*
X141087233Y-60743410D01*
X139030970Y-60783587D01*
X139582303Y-63910351D01*
G36*
X128101640Y-65354386D02*
G01*
X126155644Y-66019915D01*
X126596710Y-68521327D01*
X128652973Y-68481150D01*
X128101640Y-65354386D01*
G37*
X128101640Y-65354386D02*
X126155644Y-66019915D01*
X126596710Y-68521327D01*
X128652973Y-68481150D01*
X128101640Y-65354386D01*
G36*
X106175631Y-70294788D02*
G01*
X108231893Y-70334965D01*
X108672960Y-67833553D01*
X106726964Y-67168023D01*
X106175631Y-70294788D01*
G37*
X106175631Y-70294788D02*
X108231893Y-70334965D01*
X108672960Y-67833553D01*
X106726964Y-67168023D01*
X106175631Y-70294788D01*
G36*
X94893447Y-67725118D02*
G01*
X92837185Y-67684942D01*
X92396118Y-70186353D01*
X94342114Y-70851883D01*
X94893447Y-67725118D01*
G37*
X94893447Y-67725118D02*
X92837185Y-67684942D01*
X92396118Y-70186353D01*
X94342114Y-70851883D01*
X94893447Y-67725118D01*
G36*
X87415043Y-66986789D02*
G01*
X89471305Y-67026966D01*
X89912372Y-64525554D01*
X87966376Y-63860024D01*
X87415043Y-66986789D01*
G37*
X87415043Y-66986789D02*
X89471305Y-67026966D01*
X89912372Y-64525554D01*
X87966376Y-63860024D01*
X87415043Y-66986789D01*
G36*
X76132859Y-64417119D02*
G01*
X74076597Y-64376943D01*
X73635530Y-66878354D01*
X75581526Y-67543884D01*
X76132859Y-64417119D01*
G37*
X76132859Y-64417119D02*
X74076597Y-64376943D01*
X73635530Y-66878354D01*
X75581526Y-67543884D01*
X76132859Y-64417119D01*
G36*
X68654456Y-63678792D02*
G01*
X70710718Y-63718969D01*
X71151785Y-61217557D01*
X69205789Y-60552027D01*
X68654456Y-63678792D01*
G37*
X68654456Y-63678792D02*
X70710718Y-63718969D01*
X71151785Y-61217557D01*
X69205789Y-60552027D01*
X68654456Y-63678792D01*
G36*
X57372272Y-61109122D02*
G01*
X55316010Y-61068946D01*
X54874943Y-63570357D01*
X56820939Y-64235887D01*
X57372272Y-61109122D01*
G37*
X57372272Y-61109122D02*
X55316010Y-61068946D01*
X54874943Y-63570357D01*
X56820939Y-64235887D01*
X57372272Y-61109122D01*
G36*
X49893868Y-60370794D02*
G01*
X51950130Y-60410971D01*
X52391197Y-57909559D01*
X50445201Y-57244029D01*
X49893868Y-60370794D01*
G37*
X49893868Y-60370794D02*
X51950130Y-60410971D01*
X52391197Y-57909559D01*
X50445201Y-57244029D01*
X49893868Y-60370794D01*
G36*
X38611684Y-57801124D02*
G01*
X36555422Y-57760948D01*
X36114355Y-60262359D01*
X38060351Y-60927889D01*
X38611684Y-57801124D01*
G37*
X38611684Y-57801124D02*
X36555422Y-57760948D01*
X36114355Y-60262359D01*
X38060351Y-60927889D01*
X38611684Y-57801124D01*
G36*
X23145750Y-56451500D02*
G01*
X25177750Y-56134000D01*
X25177750Y-53594000D01*
X23145750Y-53276500D01*
X23145750Y-56451500D01*
G37*
X23145750Y-56451500D02*
X25177750Y-56134000D01*
X25177750Y-53594000D01*
X23145750Y-53276500D01*
X23145750Y-56451500D01*
G36*
X11588750Y-55880000D02*
G01*
X9556750Y-56197500D01*
X9556750Y-58737500D01*
X11588750Y-59055000D01*
X11588750Y-55880000D01*
G37*
X11588750Y-55880000D02*
X9556750Y-56197500D01*
X9556750Y-58737500D01*
X11588750Y-59055000D01*
X11588750Y-55880000D01*
G36*
X209835750Y-37401500D02*
G01*
X211867750Y-37084000D01*
X211867750Y-34544000D01*
X209835750Y-34226500D01*
X209835750Y-37401500D01*
G37*
X209835750Y-37401500D02*
X211867750Y-37084000D01*
X211867750Y-34544000D01*
X209835750Y-34226500D01*
X209835750Y-37401500D01*
G36*
X198278750Y-36830000D02*
G01*
X196246750Y-37147500D01*
X196246750Y-39687500D01*
X198278750Y-40005000D01*
X198278750Y-36830000D01*
G37*
X198278750Y-36830000D02*
X196246750Y-37147500D01*
X196246750Y-39687500D01*
X198278750Y-40005000D01*
X198278750Y-36830000D01*
G36*
X183175774Y-36879769D02*
G01*
X185121770Y-36214240D01*
X184680704Y-33712828D01*
X182624441Y-33753005D01*
X183175774Y-36879769D01*
G37*
X183175774Y-36879769D02*
X185121770Y-36214240D01*
X184680704Y-33712828D01*
X182624441Y-33753005D01*
X183175774Y-36879769D01*
G36*
X171695111Y-38323804D02*
G01*
X169749115Y-38989333D01*
X170190181Y-41490745D01*
X172246444Y-41450568D01*
X171695111Y-38323804D01*
G37*
X171695111Y-38323804D02*
X169749115Y-38989333D01*
X170190181Y-41490745D01*
X172246444Y-41450568D01*
X171695111Y-38323804D01*
G36*
X164415187Y-40187767D02*
G01*
X166361183Y-39522238D01*
X165920117Y-37020826D01*
X163863854Y-37061003D01*
X164415187Y-40187767D01*
G37*
X164415187Y-40187767D02*
X166361183Y-39522238D01*
X165920117Y-37020826D01*
X163863854Y-37061003D01*
X164415187Y-40187767D01*
G36*
X152934524Y-41631802D02*
G01*
X150988528Y-42297331D01*
X151429594Y-44798743D01*
X153485857Y-44758566D01*
X152934524Y-41631802D01*
G37*
X152934524Y-41631802D02*
X150988528Y-42297331D01*
X151429594Y-44798743D01*
X153485857Y-44758566D01*
X152934524Y-41631802D01*
G36*
X145654598Y-43495765D02*
G01*
X147600594Y-42830236D01*
X147159528Y-40328824D01*
X145103265Y-40369001D01*
X145654598Y-43495765D01*
G37*
X145654598Y-43495765D02*
X147600594Y-42830236D01*
X147159528Y-40328824D01*
X145103265Y-40369001D01*
X145654598Y-43495765D01*
G36*
X134173935Y-44939800D02*
G01*
X132227939Y-45605329D01*
X132669005Y-48106741D01*
X134725268Y-48066564D01*
X134173935Y-44939800D01*
G37*
X134173935Y-44939800D02*
X132227939Y-45605329D01*
X132669005Y-48106741D01*
X134725268Y-48066564D01*
X134173935Y-44939800D01*
G36*
X100103335Y-49880201D02*
G01*
X102159597Y-49920378D01*
X102600664Y-47418966D01*
X100654668Y-46753436D01*
X100103335Y-49880201D01*
G37*
X100103335Y-49880201D02*
X102159597Y-49920378D01*
X102600664Y-47418966D01*
X100654668Y-46753436D01*
X100103335Y-49880201D01*
G36*
X88821151Y-47310531D02*
G01*
X86764889Y-47270355D01*
X86323822Y-49771766D01*
X88269818Y-50437296D01*
X88821151Y-47310531D01*
G37*
X88821151Y-47310531D02*
X86764889Y-47270355D01*
X86323822Y-49771766D01*
X88269818Y-50437296D01*
X88821151Y-47310531D01*
G36*
X81342748Y-46572203D02*
G01*
X83399010Y-46612380D01*
X83840077Y-44110968D01*
X81894081Y-43445438D01*
X81342748Y-46572203D01*
G37*
X81342748Y-46572203D02*
X83399010Y-46612380D01*
X83840077Y-44110968D01*
X81894081Y-43445438D01*
X81342748Y-46572203D01*
G36*
X70060564Y-44002533D02*
G01*
X68004302Y-43962357D01*
X67563235Y-46463768D01*
X69509231Y-47129298D01*
X70060564Y-44002533D01*
G37*
X70060564Y-44002533D02*
X68004302Y-43962357D01*
X67563235Y-46463768D01*
X69509231Y-47129298D01*
X70060564Y-44002533D01*
G36*
X62582160Y-43264206D02*
G01*
X64638422Y-43304383D01*
X65079489Y-40802971D01*
X63133493Y-40137441D01*
X62582160Y-43264206D01*
G37*
X62582160Y-43264206D02*
X64638422Y-43304383D01*
X65079489Y-40802971D01*
X63133493Y-40137441D01*
X62582160Y-43264206D01*
G36*
X51299976Y-40694536D02*
G01*
X49243714Y-40654360D01*
X48802647Y-43155771D01*
X50748643Y-43821301D01*
X51299976Y-40694536D01*
G37*
X51299976Y-40694536D02*
X49243714Y-40654360D01*
X48802647Y-43155771D01*
X50748643Y-43821301D01*
X51299976Y-40694536D01*
G36*
X43821572Y-39956208D02*
G01*
X45877834Y-39996385D01*
X46318901Y-37494973D01*
X44372905Y-36829443D01*
X43821572Y-39956208D01*
G37*
X43821572Y-39956208D02*
X45877834Y-39996385D01*
X46318901Y-37494973D01*
X44372905Y-36829443D01*
X43821572Y-39956208D01*
G36*
X32539388Y-37386538D02*
G01*
X30483126Y-37346362D01*
X30042059Y-39847773D01*
X31988055Y-40513303D01*
X32539388Y-37386538D01*
G37*
X32539388Y-37386538D02*
X30483126Y-37346362D01*
X30042059Y-39847773D01*
X31988055Y-40513303D01*
X32539388Y-37386538D01*
G36*
X22193250Y-37401500D02*
G01*
X24225250Y-37084000D01*
X24225250Y-34544000D01*
X22193250Y-34226500D01*
X22193250Y-37401500D01*
G37*
X22193250Y-37401500D02*
X24225250Y-37084000D01*
X24225250Y-34544000D01*
X22193250Y-34226500D01*
X22193250Y-37401500D01*
G36*
X10636250Y-36830000D02*
G01*
X8604250Y-37147500D01*
X8604250Y-39687500D01*
X10636250Y-40005000D01*
X10636250Y-36830000D01*
G37*
X10636250Y-36830000D02*
X8604250Y-37147500D01*
X8604250Y-39687500D01*
X10636250Y-40005000D01*
X10636250Y-36830000D01*
G36*
X214122000Y-18351500D02*
G01*
X216154000Y-18034000D01*
X216154000Y-15494000D01*
X214122000Y-15176500D01*
X214122000Y-18351500D01*
G37*
X214122000Y-18351500D02*
X216154000Y-18034000D01*
X216154000Y-15494000D01*
X214122000Y-15176500D01*
X214122000Y-18351500D01*
G36*
X202565000Y-17780000D02*
G01*
X200533000Y-18097500D01*
X200533000Y-20637500D01*
X202565000Y-20955000D01*
X202565000Y-17780000D01*
G37*
X202565000Y-17780000D02*
X200533000Y-18097500D01*
X200533000Y-20637500D01*
X202565000Y-20955000D01*
X202565000Y-17780000D01*
G36*
X195072000Y-17399000D02*
G01*
X197104000Y-17081500D01*
X197104000Y-14541500D01*
X195072000Y-14224000D01*
X195072000Y-17399000D01*
G37*
X195072000Y-17399000D02*
X197104000Y-17081500D01*
X197104000Y-14541500D01*
X195072000Y-14224000D01*
X195072000Y-17399000D01*
G36*
X183515000Y-16827500D02*
G01*
X181483000Y-17145000D01*
X181483000Y-19685000D01*
X183515000Y-20002500D01*
X183515000Y-16827500D01*
G37*
X183515000Y-16827500D02*
X181483000Y-17145000D01*
X181483000Y-19685000D01*
X183515000Y-20002500D01*
X183515000Y-16827500D01*
G36*
X175177629Y-18946181D02*
G01*
X177123625Y-18280652D01*
X176682559Y-15779240D01*
X174626296Y-15819417D01*
X175177629Y-18946181D01*
G37*
X175177629Y-18946181D02*
X177123625Y-18280652D01*
X176682559Y-15779240D01*
X174626296Y-15819417D01*
X175177629Y-18946181D01*
G36*
X163696966Y-20390216D02*
G01*
X161750970Y-21055745D01*
X162192036Y-23557157D01*
X164248299Y-23516980D01*
X163696966Y-20390216D01*
G37*
X163696966Y-20390216D02*
X161750970Y-21055745D01*
X162192036Y-23557157D01*
X164248299Y-23516980D01*
X163696966Y-20390216D01*
G36*
X156417042Y-22254178D02*
G01*
X158363038Y-21588649D01*
X157921972Y-19087237D01*
X155865709Y-19127414D01*
X156417042Y-22254178D01*
G37*
X156417042Y-22254178D02*
X158363038Y-21588649D01*
X157921972Y-19087237D01*
X155865709Y-19127414D01*
X156417042Y-22254178D01*
G36*
X144936379Y-23698213D02*
G01*
X142990383Y-24363742D01*
X143431449Y-26865154D01*
X145487712Y-26824977D01*
X144936379Y-23698213D01*
G37*
X144936379Y-23698213D02*
X142990383Y-24363742D01*
X143431449Y-26865154D01*
X145487712Y-26824977D01*
X144936379Y-23698213D01*
G36*
X137656454Y-25562177D02*
G01*
X139602450Y-24896648D01*
X139161384Y-22395236D01*
X137105121Y-22435413D01*
X137656454Y-25562177D01*
G37*
X137656454Y-25562177D02*
X139602450Y-24896648D01*
X139161384Y-22395236D01*
X137105121Y-22435413D01*
X137656454Y-25562177D01*
G36*
X126175791Y-27006212D02*
G01*
X124229795Y-27671741D01*
X124670861Y-30173153D01*
X126727124Y-30132976D01*
X126175791Y-27006212D01*
G37*
X126175791Y-27006212D02*
X124229795Y-27671741D01*
X124670861Y-30173153D01*
X126727124Y-30132976D01*
X126175791Y-27006212D01*
G36*
X98721186Y-30292613D02*
G01*
X100777448Y-30332790D01*
X101218515Y-27831378D01*
X99272519Y-27165848D01*
X98721186Y-30292613D01*
G37*
X98721186Y-30292613D02*
X100777448Y-30332790D01*
X101218515Y-27831378D01*
X99272519Y-27165848D01*
X98721186Y-30292613D01*
G36*
X87439002Y-27722943D02*
G01*
X85382740Y-27682767D01*
X84941673Y-30184178D01*
X86887669Y-30849708D01*
X87439002Y-27722943D01*
G37*
X87439002Y-27722943D02*
X85382740Y-27682767D01*
X84941673Y-30184178D01*
X86887669Y-30849708D01*
X87439002Y-27722943D01*
G36*
X79960598Y-26984616D02*
G01*
X82016860Y-27024793D01*
X82457927Y-24523381D01*
X80511931Y-23857851D01*
X79960598Y-26984616D01*
G37*
X79960598Y-26984616D02*
X82016860Y-27024793D01*
X82457927Y-24523381D01*
X80511931Y-23857851D01*
X79960598Y-26984616D01*
G36*
X68678414Y-24414946D02*
G01*
X66622152Y-24374770D01*
X66181085Y-26876181D01*
X68127081Y-27541711D01*
X68678414Y-24414946D01*
G37*
X68678414Y-24414946D02*
X66622152Y-24374770D01*
X66181085Y-26876181D01*
X68127081Y-27541711D01*
X68678414Y-24414946D01*
G36*
X61200011Y-23676618D02*
G01*
X63256273Y-23716795D01*
X63697340Y-21215383D01*
X61751344Y-20549853D01*
X61200011Y-23676618D01*
G37*
X61200011Y-23676618D02*
X63256273Y-23716795D01*
X63697340Y-21215383D01*
X61751344Y-20549853D01*
X61200011Y-23676618D01*
G36*
X49917827Y-21106948D02*
G01*
X47861565Y-21066772D01*
X47420498Y-23568183D01*
X49366494Y-24233713D01*
X49917827Y-21106948D01*
G37*
X49917827Y-21106948D02*
X47861565Y-21066772D01*
X47420498Y-23568183D01*
X49366494Y-24233713D01*
X49917827Y-21106948D01*
G36*
X42439423Y-20368620D02*
G01*
X44495685Y-20408797D01*
X44936752Y-17907385D01*
X42990756Y-17241855D01*
X42439423Y-20368620D01*
G37*
X42439423Y-20368620D02*
X44495685Y-20408797D01*
X44936752Y-17907385D01*
X42990756Y-17241855D01*
X42439423Y-20368620D01*
G36*
X31157239Y-17798950D02*
G01*
X29100977Y-17758774D01*
X28659910Y-20260185D01*
X30605906Y-20925715D01*
X31157239Y-17798950D01*
G37*
X31157239Y-17798950D02*
X29100977Y-17758774D01*
X28659910Y-20260185D01*
X30605906Y-20925715D01*
X31157239Y-17798950D01*
G36*
X22669500Y-18351500D02*
G01*
X24701500Y-18034000D01*
X24701500Y-15494000D01*
X22669500Y-15176500D01*
X22669500Y-18351500D01*
G37*
X22669500Y-18351500D02*
X24701500Y-18034000D01*
X24701500Y-15494000D01*
X22669500Y-15176500D01*
X22669500Y-18351500D01*
G36*
X11112500Y-17780000D02*
G01*
X9080500Y-18097500D01*
X9080500Y-20637500D01*
X11112500Y-20955000D01*
X11112500Y-17780000D01*
G37*
X11112500Y-17780000D02*
X9080500Y-18097500D01*
X9080500Y-20637500D01*
X11112500Y-20955000D01*
X11112500Y-17780000D01*
D11*
G36*
X101877691Y-36876053D02*
G01*
X101898926Y-36879203D01*
X101919750Y-36884419D01*
X101939962Y-36891651D01*
X101959368Y-36900830D01*
X101977781Y-36911866D01*
X101995024Y-36924654D01*
X102010930Y-36939070D01*
X102025346Y-36954976D01*
X102038134Y-36972219D01*
X102049170Y-36990632D01*
X102058349Y-37010038D01*
X102065581Y-37030250D01*
X102070797Y-37051074D01*
X102073947Y-37072309D01*
X102075000Y-37093750D01*
X102075000Y-37531250D01*
X102073947Y-37552691D01*
X102070797Y-37573926D01*
X102065581Y-37594750D01*
X102058349Y-37614962D01*
X102049170Y-37634368D01*
X102038134Y-37652781D01*
X102025346Y-37670024D01*
X102010930Y-37685930D01*
X101995024Y-37700346D01*
X101977781Y-37713134D01*
X101959368Y-37724170D01*
X101939962Y-37733349D01*
X101919750Y-37740581D01*
X101898926Y-37745797D01*
X101877691Y-37748947D01*
X101856250Y-37750000D01*
X101343750Y-37750000D01*
X101322309Y-37748947D01*
X101301074Y-37745797D01*
X101280250Y-37740581D01*
X101260038Y-37733349D01*
X101240632Y-37724170D01*
X101222219Y-37713134D01*
X101204976Y-37700346D01*
X101189070Y-37685930D01*
X101174654Y-37670024D01*
X101161866Y-37652781D01*
X101150830Y-37634368D01*
X101141651Y-37614962D01*
X101134419Y-37594750D01*
X101129203Y-37573926D01*
X101126053Y-37552691D01*
X101125000Y-37531250D01*
X101125000Y-37093750D01*
X101126053Y-37072309D01*
X101129203Y-37051074D01*
X101134419Y-37030250D01*
X101141651Y-37010038D01*
X101150830Y-36990632D01*
X101161866Y-36972219D01*
X101174654Y-36954976D01*
X101189070Y-36939070D01*
X101204976Y-36924654D01*
X101222219Y-36911866D01*
X101240632Y-36900830D01*
X101260038Y-36891651D01*
X101280250Y-36884419D01*
X101301074Y-36879203D01*
X101322309Y-36876053D01*
X101343750Y-36875000D01*
X101856250Y-36875000D01*
X101877691Y-36876053D01*
X101877691Y-36876053D01*
G37*
D12*
X101600000Y-37312500D03*
D11*
G36*
X101877691Y-38451053D02*
G01*
X101898926Y-38454203D01*
X101919750Y-38459419D01*
X101939962Y-38466651D01*
X101959368Y-38475830D01*
X101977781Y-38486866D01*
X101995024Y-38499654D01*
X102010930Y-38514070D01*
X102025346Y-38529976D01*
X102038134Y-38547219D01*
X102049170Y-38565632D01*
X102058349Y-38585038D01*
X102065581Y-38605250D01*
X102070797Y-38626074D01*
X102073947Y-38647309D01*
X102075000Y-38668750D01*
X102075000Y-39106250D01*
X102073947Y-39127691D01*
X102070797Y-39148926D01*
X102065581Y-39169750D01*
X102058349Y-39189962D01*
X102049170Y-39209368D01*
X102038134Y-39227781D01*
X102025346Y-39245024D01*
X102010930Y-39260930D01*
X101995024Y-39275346D01*
X101977781Y-39288134D01*
X101959368Y-39299170D01*
X101939962Y-39308349D01*
X101919750Y-39315581D01*
X101898926Y-39320797D01*
X101877691Y-39323947D01*
X101856250Y-39325000D01*
X101343750Y-39325000D01*
X101322309Y-39323947D01*
X101301074Y-39320797D01*
X101280250Y-39315581D01*
X101260038Y-39308349D01*
X101240632Y-39299170D01*
X101222219Y-39288134D01*
X101204976Y-39275346D01*
X101189070Y-39260930D01*
X101174654Y-39245024D01*
X101161866Y-39227781D01*
X101150830Y-39209368D01*
X101141651Y-39189962D01*
X101134419Y-39169750D01*
X101129203Y-39148926D01*
X101126053Y-39127691D01*
X101125000Y-39106250D01*
X101125000Y-38668750D01*
X101126053Y-38647309D01*
X101129203Y-38626074D01*
X101134419Y-38605250D01*
X101141651Y-38585038D01*
X101150830Y-38565632D01*
X101161866Y-38547219D01*
X101174654Y-38529976D01*
X101189070Y-38514070D01*
X101204976Y-38499654D01*
X101222219Y-38486866D01*
X101240632Y-38475830D01*
X101260038Y-38466651D01*
X101280250Y-38459419D01*
X101301074Y-38454203D01*
X101322309Y-38451053D01*
X101343750Y-38450000D01*
X101856250Y-38450000D01*
X101877691Y-38451053D01*
X101877691Y-38451053D01*
G37*
D12*
X101600000Y-38887500D03*
D13*
X110818750Y-30956250D03*
X110818750Y-30006250D03*
X110818750Y-31906250D03*
X113018750Y-31906250D03*
X113018750Y-30956250D03*
X113018750Y-30006250D03*
D14*
X146965000Y-30395000D03*
X146965000Y-29295000D03*
X145135000Y-29295000D03*
X145135000Y-30395000D03*
X189002000Y-24172000D03*
X189002000Y-23072000D03*
X187172000Y-23072000D03*
X187172000Y-24172000D03*
X193522000Y-62823000D03*
X193522000Y-63923000D03*
X195352000Y-63923000D03*
X195352000Y-62823000D03*
X145135000Y-68919000D03*
X145135000Y-70019000D03*
X146965000Y-70019000D03*
X146965000Y-68919000D03*
X103225000Y-75269000D03*
X103225000Y-76369000D03*
X105055000Y-76369000D03*
X105055000Y-75269000D03*
X66014000Y-70316000D03*
X66014000Y-71416000D03*
X67844000Y-71416000D03*
X67844000Y-70316000D03*
X31216000Y-64601000D03*
X31216000Y-65701000D03*
X33046000Y-65701000D03*
X33046000Y-64601000D03*
X31522000Y-25188000D03*
X31522000Y-24088000D03*
X29692000Y-24088000D03*
X29692000Y-25188000D03*
X68352000Y-31919000D03*
X68352000Y-30819000D03*
X66522000Y-30819000D03*
X66522000Y-31919000D03*
X97752500Y-35475000D03*
X97752500Y-34375000D03*
X95922500Y-34375000D03*
X95922500Y-35475000D03*
D15*
X107554401Y-38471612D03*
D11*
G36*
X107625112Y-37552373D02*
G01*
X108473640Y-38400901D01*
X107483690Y-39390851D01*
X106635162Y-38542323D01*
X107625112Y-37552373D01*
X107625112Y-37552373D01*
G37*
D15*
X105998766Y-40027247D03*
D11*
G36*
X106069477Y-39108008D02*
G01*
X106918005Y-39956536D01*
X105928055Y-40946486D01*
X105079527Y-40097958D01*
X106069477Y-39108008D01*
X106069477Y-39108008D01*
G37*
D15*
X107200847Y-41229328D03*
D11*
G36*
X107271558Y-40310089D02*
G01*
X108120086Y-41158617D01*
X107130136Y-42148567D01*
X106281608Y-41300039D01*
X107271558Y-40310089D01*
X107271558Y-40310089D01*
G37*
D15*
X108756482Y-39673693D03*
D11*
G36*
X108827193Y-38754454D02*
G01*
X109675721Y-39602982D01*
X108685771Y-40592932D01*
X107837243Y-39744404D01*
X108827193Y-38754454D01*
X108827193Y-38754454D01*
G37*
D16*
X107815146Y-49471542D03*
D11*
G36*
X108151022Y-48746758D02*
G01*
X108539930Y-49135666D01*
X107479270Y-50196326D01*
X107090362Y-49807418D01*
X108151022Y-48746758D01*
X108151022Y-48746758D01*
G37*
D16*
X108380832Y-50037227D03*
D11*
G36*
X108716708Y-49312443D02*
G01*
X109105616Y-49701351D01*
X108044956Y-50762011D01*
X107656048Y-50373103D01*
X108716708Y-49312443D01*
X108716708Y-49312443D01*
G37*
D16*
X108946517Y-50602912D03*
D11*
G36*
X109282393Y-49878128D02*
G01*
X109671301Y-50267036D01*
X108610641Y-51327696D01*
X108221733Y-50938788D01*
X109282393Y-49878128D01*
X109282393Y-49878128D01*
G37*
D16*
X109512202Y-51168598D03*
D11*
G36*
X109848078Y-50443814D02*
G01*
X110236986Y-50832722D01*
X109176326Y-51893382D01*
X108787418Y-51504474D01*
X109848078Y-50443814D01*
X109848078Y-50443814D01*
G37*
D16*
X110077888Y-51734283D03*
D11*
G36*
X110413764Y-51009499D02*
G01*
X110802672Y-51398407D01*
X109742012Y-52459067D01*
X109353104Y-52070159D01*
X110413764Y-51009499D01*
X110413764Y-51009499D01*
G37*
D16*
X110643573Y-52299969D03*
D11*
G36*
X110979449Y-51575185D02*
G01*
X111368357Y-51964093D01*
X110307697Y-53024753D01*
X109918789Y-52635845D01*
X110979449Y-51575185D01*
X110979449Y-51575185D01*
G37*
D16*
X111209259Y-52865654D03*
D11*
G36*
X111545135Y-52140870D02*
G01*
X111934043Y-52529778D01*
X110873383Y-53590438D01*
X110484475Y-53201530D01*
X111545135Y-52140870D01*
X111545135Y-52140870D01*
G37*
D16*
X111774944Y-53431340D03*
D11*
G36*
X112110820Y-52706556D02*
G01*
X112499728Y-53095464D01*
X111439068Y-54156124D01*
X111050160Y-53767216D01*
X112110820Y-52706556D01*
X112110820Y-52706556D01*
G37*
D16*
X112340630Y-53997025D03*
D11*
G36*
X112676506Y-53272241D02*
G01*
X113065414Y-53661149D01*
X112004754Y-54721809D01*
X111615846Y-54332901D01*
X112676506Y-53272241D01*
X112676506Y-53272241D01*
G37*
D16*
X112906315Y-54562710D03*
D11*
G36*
X113242191Y-53837926D02*
G01*
X113631099Y-54226834D01*
X112570439Y-55287494D01*
X112181531Y-54898586D01*
X113242191Y-53837926D01*
X113242191Y-53837926D01*
G37*
D16*
X113472000Y-55128396D03*
D11*
G36*
X113807876Y-54403612D02*
G01*
X114196784Y-54792520D01*
X113136124Y-55853180D01*
X112747216Y-55464272D01*
X113807876Y-54403612D01*
X113807876Y-54403612D01*
G37*
D16*
X115876164Y-55128396D03*
D11*
G36*
X115151380Y-54792520D02*
G01*
X115540288Y-54403612D01*
X116600948Y-55464272D01*
X116212040Y-55853180D01*
X115151380Y-54792520D01*
X115151380Y-54792520D01*
G37*
D16*
X116441849Y-54562710D03*
D11*
G36*
X115717065Y-54226834D02*
G01*
X116105973Y-53837926D01*
X117166633Y-54898586D01*
X116777725Y-55287494D01*
X115717065Y-54226834D01*
X115717065Y-54226834D01*
G37*
D16*
X117007534Y-53997025D03*
D11*
G36*
X116282750Y-53661149D02*
G01*
X116671658Y-53272241D01*
X117732318Y-54332901D01*
X117343410Y-54721809D01*
X116282750Y-53661149D01*
X116282750Y-53661149D01*
G37*
D16*
X117573220Y-53431340D03*
D11*
G36*
X116848436Y-53095464D02*
G01*
X117237344Y-52706556D01*
X118298004Y-53767216D01*
X117909096Y-54156124D01*
X116848436Y-53095464D01*
X116848436Y-53095464D01*
G37*
D16*
X118138905Y-52865654D03*
D11*
G36*
X117414121Y-52529778D02*
G01*
X117803029Y-52140870D01*
X118863689Y-53201530D01*
X118474781Y-53590438D01*
X117414121Y-52529778D01*
X117414121Y-52529778D01*
G37*
D16*
X118704591Y-52299969D03*
D11*
G36*
X117979807Y-51964093D02*
G01*
X118368715Y-51575185D01*
X119429375Y-52635845D01*
X119040467Y-53024753D01*
X117979807Y-51964093D01*
X117979807Y-51964093D01*
G37*
D16*
X119270276Y-51734283D03*
D11*
G36*
X118545492Y-51398407D02*
G01*
X118934400Y-51009499D01*
X119995060Y-52070159D01*
X119606152Y-52459067D01*
X118545492Y-51398407D01*
X118545492Y-51398407D01*
G37*
D16*
X119835962Y-51168598D03*
D11*
G36*
X119111178Y-50832722D02*
G01*
X119500086Y-50443814D01*
X120560746Y-51504474D01*
X120171838Y-51893382D01*
X119111178Y-50832722D01*
X119111178Y-50832722D01*
G37*
D16*
X120401647Y-50602912D03*
D11*
G36*
X119676863Y-50267036D02*
G01*
X120065771Y-49878128D01*
X121126431Y-50938788D01*
X120737523Y-51327696D01*
X119676863Y-50267036D01*
X119676863Y-50267036D01*
G37*
D16*
X120967332Y-50037227D03*
D11*
G36*
X120242548Y-49701351D02*
G01*
X120631456Y-49312443D01*
X121692116Y-50373103D01*
X121303208Y-50762011D01*
X120242548Y-49701351D01*
X120242548Y-49701351D01*
G37*
D16*
X121533018Y-49471542D03*
D11*
G36*
X120808234Y-49135666D02*
G01*
X121197142Y-48746758D01*
X122257802Y-49807418D01*
X121868894Y-50196326D01*
X120808234Y-49135666D01*
X120808234Y-49135666D01*
G37*
D16*
X121533018Y-47067378D03*
D11*
G36*
X121868894Y-46342594D02*
G01*
X122257802Y-46731502D01*
X121197142Y-47792162D01*
X120808234Y-47403254D01*
X121868894Y-46342594D01*
X121868894Y-46342594D01*
G37*
D16*
X120967332Y-46501693D03*
D11*
G36*
X121303208Y-45776909D02*
G01*
X121692116Y-46165817D01*
X120631456Y-47226477D01*
X120242548Y-46837569D01*
X121303208Y-45776909D01*
X121303208Y-45776909D01*
G37*
D16*
X120401647Y-45936008D03*
D11*
G36*
X120737523Y-45211224D02*
G01*
X121126431Y-45600132D01*
X120065771Y-46660792D01*
X119676863Y-46271884D01*
X120737523Y-45211224D01*
X120737523Y-45211224D01*
G37*
D16*
X119835962Y-45370322D03*
D11*
G36*
X120171838Y-44645538D02*
G01*
X120560746Y-45034446D01*
X119500086Y-46095106D01*
X119111178Y-45706198D01*
X120171838Y-44645538D01*
X120171838Y-44645538D01*
G37*
D16*
X119270276Y-44804637D03*
D11*
G36*
X119606152Y-44079853D02*
G01*
X119995060Y-44468761D01*
X118934400Y-45529421D01*
X118545492Y-45140513D01*
X119606152Y-44079853D01*
X119606152Y-44079853D01*
G37*
D16*
X118704591Y-44238951D03*
D11*
G36*
X119040467Y-43514167D02*
G01*
X119429375Y-43903075D01*
X118368715Y-44963735D01*
X117979807Y-44574827D01*
X119040467Y-43514167D01*
X119040467Y-43514167D01*
G37*
D16*
X118138905Y-43673266D03*
D11*
G36*
X118474781Y-42948482D02*
G01*
X118863689Y-43337390D01*
X117803029Y-44398050D01*
X117414121Y-44009142D01*
X118474781Y-42948482D01*
X118474781Y-42948482D01*
G37*
D16*
X117573220Y-43107580D03*
D11*
G36*
X117909096Y-42382796D02*
G01*
X118298004Y-42771704D01*
X117237344Y-43832364D01*
X116848436Y-43443456D01*
X117909096Y-42382796D01*
X117909096Y-42382796D01*
G37*
D16*
X117007534Y-42541895D03*
D11*
G36*
X117343410Y-41817111D02*
G01*
X117732318Y-42206019D01*
X116671658Y-43266679D01*
X116282750Y-42877771D01*
X117343410Y-41817111D01*
X117343410Y-41817111D01*
G37*
D16*
X116441849Y-41976210D03*
D11*
G36*
X116777725Y-41251426D02*
G01*
X117166633Y-41640334D01*
X116105973Y-42700994D01*
X115717065Y-42312086D01*
X116777725Y-41251426D01*
X116777725Y-41251426D01*
G37*
D16*
X115876164Y-41410524D03*
D11*
G36*
X116212040Y-40685740D02*
G01*
X116600948Y-41074648D01*
X115540288Y-42135308D01*
X115151380Y-41746400D01*
X116212040Y-40685740D01*
X116212040Y-40685740D01*
G37*
D16*
X113472000Y-41410524D03*
D11*
G36*
X112747216Y-41074648D02*
G01*
X113136124Y-40685740D01*
X114196784Y-41746400D01*
X113807876Y-42135308D01*
X112747216Y-41074648D01*
X112747216Y-41074648D01*
G37*
D16*
X112906315Y-41976210D03*
D11*
G36*
X112181531Y-41640334D02*
G01*
X112570439Y-41251426D01*
X113631099Y-42312086D01*
X113242191Y-42700994D01*
X112181531Y-41640334D01*
X112181531Y-41640334D01*
G37*
D16*
X112340630Y-42541895D03*
D11*
G36*
X111615846Y-42206019D02*
G01*
X112004754Y-41817111D01*
X113065414Y-42877771D01*
X112676506Y-43266679D01*
X111615846Y-42206019D01*
X111615846Y-42206019D01*
G37*
D16*
X111774944Y-43107580D03*
D11*
G36*
X111050160Y-42771704D02*
G01*
X111439068Y-42382796D01*
X112499728Y-43443456D01*
X112110820Y-43832364D01*
X111050160Y-42771704D01*
X111050160Y-42771704D01*
G37*
D16*
X111209259Y-43673266D03*
D11*
G36*
X110484475Y-43337390D02*
G01*
X110873383Y-42948482D01*
X111934043Y-44009142D01*
X111545135Y-44398050D01*
X110484475Y-43337390D01*
X110484475Y-43337390D01*
G37*
D16*
X110643573Y-44238951D03*
D11*
G36*
X109918789Y-43903075D02*
G01*
X110307697Y-43514167D01*
X111368357Y-44574827D01*
X110979449Y-44963735D01*
X109918789Y-43903075D01*
X109918789Y-43903075D01*
G37*
D16*
X110077888Y-44804637D03*
D11*
G36*
X109353104Y-44468761D02*
G01*
X109742012Y-44079853D01*
X110802672Y-45140513D01*
X110413764Y-45529421D01*
X109353104Y-44468761D01*
X109353104Y-44468761D01*
G37*
D16*
X109512202Y-45370322D03*
D11*
G36*
X108787418Y-45034446D02*
G01*
X109176326Y-44645538D01*
X110236986Y-45706198D01*
X109848078Y-46095106D01*
X108787418Y-45034446D01*
X108787418Y-45034446D01*
G37*
D16*
X108946517Y-45936008D03*
D11*
G36*
X108221733Y-45600132D02*
G01*
X108610641Y-45211224D01*
X109671301Y-46271884D01*
X109282393Y-46660792D01*
X108221733Y-45600132D01*
X108221733Y-45600132D01*
G37*
D16*
X108380832Y-46501693D03*
D11*
G36*
X107656048Y-46165817D02*
G01*
X108044956Y-45776909D01*
X109105616Y-46837569D01*
X108716708Y-47226477D01*
X107656048Y-46165817D01*
X107656048Y-46165817D01*
G37*
D16*
X107815146Y-47067378D03*
D11*
G36*
X107090362Y-46731502D02*
G01*
X107479270Y-46342594D01*
X108539930Y-47403254D01*
X108151022Y-47792162D01*
X107090362Y-46731502D01*
X107090362Y-46731502D01*
G37*
D17*
X125893750Y-32568750D03*
X125893750Y-38868750D03*
X129693750Y-32568750D03*
X129693750Y-38868750D03*
X125893750Y-41300000D03*
X125893750Y-47600000D03*
X129693750Y-41300000D03*
X129693750Y-47600000D03*
D11*
G36*
X113783941Y-38451053D02*
G01*
X113805176Y-38454203D01*
X113826000Y-38459419D01*
X113846212Y-38466651D01*
X113865618Y-38475830D01*
X113884031Y-38486866D01*
X113901274Y-38499654D01*
X113917180Y-38514070D01*
X113931596Y-38529976D01*
X113944384Y-38547219D01*
X113955420Y-38565632D01*
X113964599Y-38585038D01*
X113971831Y-38605250D01*
X113977047Y-38626074D01*
X113980197Y-38647309D01*
X113981250Y-38668750D01*
X113981250Y-39106250D01*
X113980197Y-39127691D01*
X113977047Y-39148926D01*
X113971831Y-39169750D01*
X113964599Y-39189962D01*
X113955420Y-39209368D01*
X113944384Y-39227781D01*
X113931596Y-39245024D01*
X113917180Y-39260930D01*
X113901274Y-39275346D01*
X113884031Y-39288134D01*
X113865618Y-39299170D01*
X113846212Y-39308349D01*
X113826000Y-39315581D01*
X113805176Y-39320797D01*
X113783941Y-39323947D01*
X113762500Y-39325000D01*
X113250000Y-39325000D01*
X113228559Y-39323947D01*
X113207324Y-39320797D01*
X113186500Y-39315581D01*
X113166288Y-39308349D01*
X113146882Y-39299170D01*
X113128469Y-39288134D01*
X113111226Y-39275346D01*
X113095320Y-39260930D01*
X113080904Y-39245024D01*
X113068116Y-39227781D01*
X113057080Y-39209368D01*
X113047901Y-39189962D01*
X113040669Y-39169750D01*
X113035453Y-39148926D01*
X113032303Y-39127691D01*
X113031250Y-39106250D01*
X113031250Y-38668750D01*
X113032303Y-38647309D01*
X113035453Y-38626074D01*
X113040669Y-38605250D01*
X113047901Y-38585038D01*
X113057080Y-38565632D01*
X113068116Y-38547219D01*
X113080904Y-38529976D01*
X113095320Y-38514070D01*
X113111226Y-38499654D01*
X113128469Y-38486866D01*
X113146882Y-38475830D01*
X113166288Y-38466651D01*
X113186500Y-38459419D01*
X113207324Y-38454203D01*
X113228559Y-38451053D01*
X113250000Y-38450000D01*
X113762500Y-38450000D01*
X113783941Y-38451053D01*
X113783941Y-38451053D01*
G37*
D12*
X113506250Y-38887500D03*
D11*
G36*
X113783941Y-36876053D02*
G01*
X113805176Y-36879203D01*
X113826000Y-36884419D01*
X113846212Y-36891651D01*
X113865618Y-36900830D01*
X113884031Y-36911866D01*
X113901274Y-36924654D01*
X113917180Y-36939070D01*
X113931596Y-36954976D01*
X113944384Y-36972219D01*
X113955420Y-36990632D01*
X113964599Y-37010038D01*
X113971831Y-37030250D01*
X113977047Y-37051074D01*
X113980197Y-37072309D01*
X113981250Y-37093750D01*
X113981250Y-37531250D01*
X113980197Y-37552691D01*
X113977047Y-37573926D01*
X113971831Y-37594750D01*
X113964599Y-37614962D01*
X113955420Y-37634368D01*
X113944384Y-37652781D01*
X113931596Y-37670024D01*
X113917180Y-37685930D01*
X113901274Y-37700346D01*
X113884031Y-37713134D01*
X113865618Y-37724170D01*
X113846212Y-37733349D01*
X113826000Y-37740581D01*
X113805176Y-37745797D01*
X113783941Y-37748947D01*
X113762500Y-37750000D01*
X113250000Y-37750000D01*
X113228559Y-37748947D01*
X113207324Y-37745797D01*
X113186500Y-37740581D01*
X113166288Y-37733349D01*
X113146882Y-37724170D01*
X113128469Y-37713134D01*
X113111226Y-37700346D01*
X113095320Y-37685930D01*
X113080904Y-37670024D01*
X113068116Y-37652781D01*
X113057080Y-37634368D01*
X113047901Y-37614962D01*
X113040669Y-37594750D01*
X113035453Y-37573926D01*
X113032303Y-37552691D01*
X113031250Y-37531250D01*
X113031250Y-37093750D01*
X113032303Y-37072309D01*
X113035453Y-37051074D01*
X113040669Y-37030250D01*
X113047901Y-37010038D01*
X113057080Y-36990632D01*
X113068116Y-36972219D01*
X113080904Y-36954976D01*
X113095320Y-36939070D01*
X113111226Y-36924654D01*
X113128469Y-36911866D01*
X113146882Y-36900830D01*
X113166288Y-36891651D01*
X113186500Y-36884419D01*
X113207324Y-36879203D01*
X113228559Y-36876053D01*
X113250000Y-36875000D01*
X113762500Y-36875000D01*
X113783941Y-36876053D01*
X113783941Y-36876053D01*
G37*
D12*
X113506250Y-37312500D03*
D11*
G36*
X115371441Y-36876053D02*
G01*
X115392676Y-36879203D01*
X115413500Y-36884419D01*
X115433712Y-36891651D01*
X115453118Y-36900830D01*
X115471531Y-36911866D01*
X115488774Y-36924654D01*
X115504680Y-36939070D01*
X115519096Y-36954976D01*
X115531884Y-36972219D01*
X115542920Y-36990632D01*
X115552099Y-37010038D01*
X115559331Y-37030250D01*
X115564547Y-37051074D01*
X115567697Y-37072309D01*
X115568750Y-37093750D01*
X115568750Y-37531250D01*
X115567697Y-37552691D01*
X115564547Y-37573926D01*
X115559331Y-37594750D01*
X115552099Y-37614962D01*
X115542920Y-37634368D01*
X115531884Y-37652781D01*
X115519096Y-37670024D01*
X115504680Y-37685930D01*
X115488774Y-37700346D01*
X115471531Y-37713134D01*
X115453118Y-37724170D01*
X115433712Y-37733349D01*
X115413500Y-37740581D01*
X115392676Y-37745797D01*
X115371441Y-37748947D01*
X115350000Y-37750000D01*
X114837500Y-37750000D01*
X114816059Y-37748947D01*
X114794824Y-37745797D01*
X114774000Y-37740581D01*
X114753788Y-37733349D01*
X114734382Y-37724170D01*
X114715969Y-37713134D01*
X114698726Y-37700346D01*
X114682820Y-37685930D01*
X114668404Y-37670024D01*
X114655616Y-37652781D01*
X114644580Y-37634368D01*
X114635401Y-37614962D01*
X114628169Y-37594750D01*
X114622953Y-37573926D01*
X114619803Y-37552691D01*
X114618750Y-37531250D01*
X114618750Y-37093750D01*
X114619803Y-37072309D01*
X114622953Y-37051074D01*
X114628169Y-37030250D01*
X114635401Y-37010038D01*
X114644580Y-36990632D01*
X114655616Y-36972219D01*
X114668404Y-36954976D01*
X114682820Y-36939070D01*
X114698726Y-36924654D01*
X114715969Y-36911866D01*
X114734382Y-36900830D01*
X114753788Y-36891651D01*
X114774000Y-36884419D01*
X114794824Y-36879203D01*
X114816059Y-36876053D01*
X114837500Y-36875000D01*
X115350000Y-36875000D01*
X115371441Y-36876053D01*
X115371441Y-36876053D01*
G37*
D12*
X115093750Y-37312500D03*
D11*
G36*
X115371441Y-38451053D02*
G01*
X115392676Y-38454203D01*
X115413500Y-38459419D01*
X115433712Y-38466651D01*
X115453118Y-38475830D01*
X115471531Y-38486866D01*
X115488774Y-38499654D01*
X115504680Y-38514070D01*
X115519096Y-38529976D01*
X115531884Y-38547219D01*
X115542920Y-38565632D01*
X115552099Y-38585038D01*
X115559331Y-38605250D01*
X115564547Y-38626074D01*
X115567697Y-38647309D01*
X115568750Y-38668750D01*
X115568750Y-39106250D01*
X115567697Y-39127691D01*
X115564547Y-39148926D01*
X115559331Y-39169750D01*
X115552099Y-39189962D01*
X115542920Y-39209368D01*
X115531884Y-39227781D01*
X115519096Y-39245024D01*
X115504680Y-39260930D01*
X115488774Y-39275346D01*
X115471531Y-39288134D01*
X115453118Y-39299170D01*
X115433712Y-39308349D01*
X115413500Y-39315581D01*
X115392676Y-39320797D01*
X115371441Y-39323947D01*
X115350000Y-39325000D01*
X114837500Y-39325000D01*
X114816059Y-39323947D01*
X114794824Y-39320797D01*
X114774000Y-39315581D01*
X114753788Y-39308349D01*
X114734382Y-39299170D01*
X114715969Y-39288134D01*
X114698726Y-39275346D01*
X114682820Y-39260930D01*
X114668404Y-39245024D01*
X114655616Y-39227781D01*
X114644580Y-39209368D01*
X114635401Y-39189962D01*
X114628169Y-39169750D01*
X114622953Y-39148926D01*
X114619803Y-39127691D01*
X114618750Y-39106250D01*
X114618750Y-38668750D01*
X114619803Y-38647309D01*
X114622953Y-38626074D01*
X114628169Y-38605250D01*
X114635401Y-38585038D01*
X114644580Y-38565632D01*
X114655616Y-38547219D01*
X114668404Y-38529976D01*
X114682820Y-38514070D01*
X114698726Y-38499654D01*
X114715969Y-38486866D01*
X114734382Y-38475830D01*
X114753788Y-38466651D01*
X114774000Y-38459419D01*
X114794824Y-38454203D01*
X114816059Y-38451053D01*
X114837500Y-38450000D01*
X115350000Y-38450000D01*
X115371441Y-38451053D01*
X115371441Y-38451053D01*
G37*
D12*
X115093750Y-38887500D03*
D11*
G36*
X107973691Y-24354053D02*
G01*
X107994926Y-24357203D01*
X108015750Y-24362419D01*
X108035962Y-24369651D01*
X108055368Y-24378830D01*
X108073781Y-24389866D01*
X108091024Y-24402654D01*
X108106930Y-24417070D01*
X108121346Y-24432976D01*
X108134134Y-24450219D01*
X108145170Y-24468632D01*
X108154349Y-24488038D01*
X108161581Y-24508250D01*
X108166797Y-24529074D01*
X108169947Y-24550309D01*
X108171000Y-24571750D01*
X108171000Y-25009250D01*
X108169947Y-25030691D01*
X108166797Y-25051926D01*
X108161581Y-25072750D01*
X108154349Y-25092962D01*
X108145170Y-25112368D01*
X108134134Y-25130781D01*
X108121346Y-25148024D01*
X108106930Y-25163930D01*
X108091024Y-25178346D01*
X108073781Y-25191134D01*
X108055368Y-25202170D01*
X108035962Y-25211349D01*
X108015750Y-25218581D01*
X107994926Y-25223797D01*
X107973691Y-25226947D01*
X107952250Y-25228000D01*
X107439750Y-25228000D01*
X107418309Y-25226947D01*
X107397074Y-25223797D01*
X107376250Y-25218581D01*
X107356038Y-25211349D01*
X107336632Y-25202170D01*
X107318219Y-25191134D01*
X107300976Y-25178346D01*
X107285070Y-25163930D01*
X107270654Y-25148024D01*
X107257866Y-25130781D01*
X107246830Y-25112368D01*
X107237651Y-25092962D01*
X107230419Y-25072750D01*
X107225203Y-25051926D01*
X107222053Y-25030691D01*
X107221000Y-25009250D01*
X107221000Y-24571750D01*
X107222053Y-24550309D01*
X107225203Y-24529074D01*
X107230419Y-24508250D01*
X107237651Y-24488038D01*
X107246830Y-24468632D01*
X107257866Y-24450219D01*
X107270654Y-24432976D01*
X107285070Y-24417070D01*
X107300976Y-24402654D01*
X107318219Y-24389866D01*
X107336632Y-24378830D01*
X107356038Y-24369651D01*
X107376250Y-24362419D01*
X107397074Y-24357203D01*
X107418309Y-24354053D01*
X107439750Y-24353000D01*
X107952250Y-24353000D01*
X107973691Y-24354053D01*
X107973691Y-24354053D01*
G37*
D12*
X107696000Y-24790500D03*
D11*
G36*
X107973691Y-22779053D02*
G01*
X107994926Y-22782203D01*
X108015750Y-22787419D01*
X108035962Y-22794651D01*
X108055368Y-22803830D01*
X108073781Y-22814866D01*
X108091024Y-22827654D01*
X108106930Y-22842070D01*
X108121346Y-22857976D01*
X108134134Y-22875219D01*
X108145170Y-22893632D01*
X108154349Y-22913038D01*
X108161581Y-22933250D01*
X108166797Y-22954074D01*
X108169947Y-22975309D01*
X108171000Y-22996750D01*
X108171000Y-23434250D01*
X108169947Y-23455691D01*
X108166797Y-23476926D01*
X108161581Y-23497750D01*
X108154349Y-23517962D01*
X108145170Y-23537368D01*
X108134134Y-23555781D01*
X108121346Y-23573024D01*
X108106930Y-23588930D01*
X108091024Y-23603346D01*
X108073781Y-23616134D01*
X108055368Y-23627170D01*
X108035962Y-23636349D01*
X108015750Y-23643581D01*
X107994926Y-23648797D01*
X107973691Y-23651947D01*
X107952250Y-23653000D01*
X107439750Y-23653000D01*
X107418309Y-23651947D01*
X107397074Y-23648797D01*
X107376250Y-23643581D01*
X107356038Y-23636349D01*
X107336632Y-23627170D01*
X107318219Y-23616134D01*
X107300976Y-23603346D01*
X107285070Y-23588930D01*
X107270654Y-23573024D01*
X107257866Y-23555781D01*
X107246830Y-23537368D01*
X107237651Y-23517962D01*
X107230419Y-23497750D01*
X107225203Y-23476926D01*
X107222053Y-23455691D01*
X107221000Y-23434250D01*
X107221000Y-22996750D01*
X107222053Y-22975309D01*
X107225203Y-22954074D01*
X107230419Y-22933250D01*
X107237651Y-22913038D01*
X107246830Y-22893632D01*
X107257866Y-22875219D01*
X107270654Y-22857976D01*
X107285070Y-22842070D01*
X107300976Y-22827654D01*
X107318219Y-22814866D01*
X107336632Y-22803830D01*
X107356038Y-22794651D01*
X107376250Y-22787419D01*
X107397074Y-22782203D01*
X107418309Y-22779053D01*
X107439750Y-22778000D01*
X107952250Y-22778000D01*
X107973691Y-22779053D01*
X107973691Y-22779053D01*
G37*
D12*
X107696000Y-23215500D03*
D11*
G36*
X115093255Y-18657454D02*
G01*
X115117523Y-18661054D01*
X115141322Y-18667015D01*
X115164421Y-18675280D01*
X115186600Y-18685770D01*
X115207643Y-18698382D01*
X115227349Y-18712997D01*
X115245527Y-18729473D01*
X115262003Y-18747651D01*
X115276618Y-18767357D01*
X115289230Y-18788400D01*
X115299720Y-18810579D01*
X115307985Y-18833678D01*
X115313946Y-18857477D01*
X115317546Y-18881745D01*
X115318750Y-18906249D01*
X115318750Y-20206251D01*
X115317546Y-20230755D01*
X115313946Y-20255023D01*
X115307985Y-20278822D01*
X115299720Y-20301921D01*
X115289230Y-20324100D01*
X115276618Y-20345143D01*
X115262003Y-20364849D01*
X115245527Y-20383027D01*
X115227349Y-20399503D01*
X115207643Y-20414118D01*
X115186600Y-20426730D01*
X115164421Y-20437220D01*
X115141322Y-20445485D01*
X115117523Y-20451446D01*
X115093255Y-20455046D01*
X115068751Y-20456250D01*
X114368749Y-20456250D01*
X114344245Y-20455046D01*
X114319977Y-20451446D01*
X114296178Y-20445485D01*
X114273079Y-20437220D01*
X114250900Y-20426730D01*
X114229857Y-20414118D01*
X114210151Y-20399503D01*
X114191973Y-20383027D01*
X114175497Y-20364849D01*
X114160882Y-20345143D01*
X114148270Y-20324100D01*
X114137780Y-20301921D01*
X114129515Y-20278822D01*
X114123554Y-20255023D01*
X114119954Y-20230755D01*
X114118750Y-20206251D01*
X114118750Y-18906249D01*
X114119954Y-18881745D01*
X114123554Y-18857477D01*
X114129515Y-18833678D01*
X114137780Y-18810579D01*
X114148270Y-18788400D01*
X114160882Y-18767357D01*
X114175497Y-18747651D01*
X114191973Y-18729473D01*
X114210151Y-18712997D01*
X114229857Y-18698382D01*
X114250900Y-18685770D01*
X114273079Y-18675280D01*
X114296178Y-18667015D01*
X114319977Y-18661054D01*
X114344245Y-18657454D01*
X114368749Y-18656250D01*
X115068751Y-18656250D01*
X115093255Y-18657454D01*
X115093255Y-18657454D01*
G37*
D15*
X114718750Y-19556250D03*
D11*
G36*
X109493255Y-18657454D02*
G01*
X109517523Y-18661054D01*
X109541322Y-18667015D01*
X109564421Y-18675280D01*
X109586600Y-18685770D01*
X109607643Y-18698382D01*
X109627349Y-18712997D01*
X109645527Y-18729473D01*
X109662003Y-18747651D01*
X109676618Y-18767357D01*
X109689230Y-18788400D01*
X109699720Y-18810579D01*
X109707985Y-18833678D01*
X109713946Y-18857477D01*
X109717546Y-18881745D01*
X109718750Y-18906249D01*
X109718750Y-20206251D01*
X109717546Y-20230755D01*
X109713946Y-20255023D01*
X109707985Y-20278822D01*
X109699720Y-20301921D01*
X109689230Y-20324100D01*
X109676618Y-20345143D01*
X109662003Y-20364849D01*
X109645527Y-20383027D01*
X109627349Y-20399503D01*
X109607643Y-20414118D01*
X109586600Y-20426730D01*
X109564421Y-20437220D01*
X109541322Y-20445485D01*
X109517523Y-20451446D01*
X109493255Y-20455046D01*
X109468751Y-20456250D01*
X108768749Y-20456250D01*
X108744245Y-20455046D01*
X108719977Y-20451446D01*
X108696178Y-20445485D01*
X108673079Y-20437220D01*
X108650900Y-20426730D01*
X108629857Y-20414118D01*
X108610151Y-20399503D01*
X108591973Y-20383027D01*
X108575497Y-20364849D01*
X108560882Y-20345143D01*
X108548270Y-20324100D01*
X108537780Y-20301921D01*
X108529515Y-20278822D01*
X108523554Y-20255023D01*
X108519954Y-20230755D01*
X108518750Y-20206251D01*
X108518750Y-18906249D01*
X108519954Y-18881745D01*
X108523554Y-18857477D01*
X108529515Y-18833678D01*
X108537780Y-18810579D01*
X108548270Y-18788400D01*
X108560882Y-18767357D01*
X108575497Y-18747651D01*
X108591973Y-18729473D01*
X108610151Y-18712997D01*
X108629857Y-18698382D01*
X108650900Y-18685770D01*
X108673079Y-18675280D01*
X108696178Y-18667015D01*
X108719977Y-18661054D01*
X108744245Y-18657454D01*
X108768749Y-18656250D01*
X109468751Y-18656250D01*
X109493255Y-18657454D01*
X109493255Y-18657454D01*
G37*
D15*
X109118750Y-19556250D03*
D11*
G36*
X113583453Y-22656972D02*
G01*
X113598014Y-22659132D01*
X113612293Y-22662709D01*
X113626153Y-22667668D01*
X113639460Y-22673962D01*
X113652086Y-22681530D01*
X113663909Y-22690298D01*
X113674816Y-22700184D01*
X113684702Y-22711091D01*
X113693470Y-22722914D01*
X113701038Y-22735540D01*
X113707332Y-22748847D01*
X113712291Y-22762707D01*
X113715868Y-22776986D01*
X113718028Y-22791547D01*
X113718750Y-22806250D01*
X113718750Y-24056250D01*
X113718028Y-24070953D01*
X113715868Y-24085514D01*
X113712291Y-24099793D01*
X113707332Y-24113653D01*
X113701038Y-24126960D01*
X113693470Y-24139586D01*
X113684702Y-24151409D01*
X113674816Y-24162316D01*
X113663909Y-24172202D01*
X113652086Y-24180970D01*
X113639460Y-24188538D01*
X113626153Y-24194832D01*
X113612293Y-24199791D01*
X113598014Y-24203368D01*
X113583453Y-24205528D01*
X113568750Y-24206250D01*
X113268750Y-24206250D01*
X113254047Y-24205528D01*
X113239486Y-24203368D01*
X113225207Y-24199791D01*
X113211347Y-24194832D01*
X113198040Y-24188538D01*
X113185414Y-24180970D01*
X113173591Y-24172202D01*
X113162684Y-24162316D01*
X113152798Y-24151409D01*
X113144030Y-24139586D01*
X113136462Y-24126960D01*
X113130168Y-24113653D01*
X113125209Y-24099793D01*
X113121632Y-24085514D01*
X113119472Y-24070953D01*
X113118750Y-24056250D01*
X113118750Y-22806250D01*
X113119472Y-22791547D01*
X113121632Y-22776986D01*
X113125209Y-22762707D01*
X113130168Y-22748847D01*
X113136462Y-22735540D01*
X113144030Y-22722914D01*
X113152798Y-22711091D01*
X113162684Y-22700184D01*
X113173591Y-22690298D01*
X113185414Y-22681530D01*
X113198040Y-22673962D01*
X113211347Y-22667668D01*
X113225207Y-22662709D01*
X113239486Y-22659132D01*
X113254047Y-22656972D01*
X113268750Y-22656250D01*
X113568750Y-22656250D01*
X113583453Y-22656972D01*
X113583453Y-22656972D01*
G37*
D18*
X113418750Y-23431250D03*
D11*
G36*
X112583453Y-22656972D02*
G01*
X112598014Y-22659132D01*
X112612293Y-22662709D01*
X112626153Y-22667668D01*
X112639460Y-22673962D01*
X112652086Y-22681530D01*
X112663909Y-22690298D01*
X112674816Y-22700184D01*
X112684702Y-22711091D01*
X112693470Y-22722914D01*
X112701038Y-22735540D01*
X112707332Y-22748847D01*
X112712291Y-22762707D01*
X112715868Y-22776986D01*
X112718028Y-22791547D01*
X112718750Y-22806250D01*
X112718750Y-24056250D01*
X112718028Y-24070953D01*
X112715868Y-24085514D01*
X112712291Y-24099793D01*
X112707332Y-24113653D01*
X112701038Y-24126960D01*
X112693470Y-24139586D01*
X112684702Y-24151409D01*
X112674816Y-24162316D01*
X112663909Y-24172202D01*
X112652086Y-24180970D01*
X112639460Y-24188538D01*
X112626153Y-24194832D01*
X112612293Y-24199791D01*
X112598014Y-24203368D01*
X112583453Y-24205528D01*
X112568750Y-24206250D01*
X112268750Y-24206250D01*
X112254047Y-24205528D01*
X112239486Y-24203368D01*
X112225207Y-24199791D01*
X112211347Y-24194832D01*
X112198040Y-24188538D01*
X112185414Y-24180970D01*
X112173591Y-24172202D01*
X112162684Y-24162316D01*
X112152798Y-24151409D01*
X112144030Y-24139586D01*
X112136462Y-24126960D01*
X112130168Y-24113653D01*
X112125209Y-24099793D01*
X112121632Y-24085514D01*
X112119472Y-24070953D01*
X112118750Y-24056250D01*
X112118750Y-22806250D01*
X112119472Y-22791547D01*
X112121632Y-22776986D01*
X112125209Y-22762707D01*
X112130168Y-22748847D01*
X112136462Y-22735540D01*
X112144030Y-22722914D01*
X112152798Y-22711091D01*
X112162684Y-22700184D01*
X112173591Y-22690298D01*
X112185414Y-22681530D01*
X112198040Y-22673962D01*
X112211347Y-22667668D01*
X112225207Y-22662709D01*
X112239486Y-22659132D01*
X112254047Y-22656972D01*
X112268750Y-22656250D01*
X112568750Y-22656250D01*
X112583453Y-22656972D01*
X112583453Y-22656972D01*
G37*
D18*
X112418750Y-23431250D03*
D11*
G36*
X111583453Y-22656972D02*
G01*
X111598014Y-22659132D01*
X111612293Y-22662709D01*
X111626153Y-22667668D01*
X111639460Y-22673962D01*
X111652086Y-22681530D01*
X111663909Y-22690298D01*
X111674816Y-22700184D01*
X111684702Y-22711091D01*
X111693470Y-22722914D01*
X111701038Y-22735540D01*
X111707332Y-22748847D01*
X111712291Y-22762707D01*
X111715868Y-22776986D01*
X111718028Y-22791547D01*
X111718750Y-22806250D01*
X111718750Y-24056250D01*
X111718028Y-24070953D01*
X111715868Y-24085514D01*
X111712291Y-24099793D01*
X111707332Y-24113653D01*
X111701038Y-24126960D01*
X111693470Y-24139586D01*
X111684702Y-24151409D01*
X111674816Y-24162316D01*
X111663909Y-24172202D01*
X111652086Y-24180970D01*
X111639460Y-24188538D01*
X111626153Y-24194832D01*
X111612293Y-24199791D01*
X111598014Y-24203368D01*
X111583453Y-24205528D01*
X111568750Y-24206250D01*
X111268750Y-24206250D01*
X111254047Y-24205528D01*
X111239486Y-24203368D01*
X111225207Y-24199791D01*
X111211347Y-24194832D01*
X111198040Y-24188538D01*
X111185414Y-24180970D01*
X111173591Y-24172202D01*
X111162684Y-24162316D01*
X111152798Y-24151409D01*
X111144030Y-24139586D01*
X111136462Y-24126960D01*
X111130168Y-24113653D01*
X111125209Y-24099793D01*
X111121632Y-24085514D01*
X111119472Y-24070953D01*
X111118750Y-24056250D01*
X111118750Y-22806250D01*
X111119472Y-22791547D01*
X111121632Y-22776986D01*
X111125209Y-22762707D01*
X111130168Y-22748847D01*
X111136462Y-22735540D01*
X111144030Y-22722914D01*
X111152798Y-22711091D01*
X111162684Y-22700184D01*
X111173591Y-22690298D01*
X111185414Y-22681530D01*
X111198040Y-22673962D01*
X111211347Y-22667668D01*
X111225207Y-22662709D01*
X111239486Y-22659132D01*
X111254047Y-22656972D01*
X111268750Y-22656250D01*
X111568750Y-22656250D01*
X111583453Y-22656972D01*
X111583453Y-22656972D01*
G37*
D18*
X111418750Y-23431250D03*
D11*
G36*
X110583453Y-22656972D02*
G01*
X110598014Y-22659132D01*
X110612293Y-22662709D01*
X110626153Y-22667668D01*
X110639460Y-22673962D01*
X110652086Y-22681530D01*
X110663909Y-22690298D01*
X110674816Y-22700184D01*
X110684702Y-22711091D01*
X110693470Y-22722914D01*
X110701038Y-22735540D01*
X110707332Y-22748847D01*
X110712291Y-22762707D01*
X110715868Y-22776986D01*
X110718028Y-22791547D01*
X110718750Y-22806250D01*
X110718750Y-24056250D01*
X110718028Y-24070953D01*
X110715868Y-24085514D01*
X110712291Y-24099793D01*
X110707332Y-24113653D01*
X110701038Y-24126960D01*
X110693470Y-24139586D01*
X110684702Y-24151409D01*
X110674816Y-24162316D01*
X110663909Y-24172202D01*
X110652086Y-24180970D01*
X110639460Y-24188538D01*
X110626153Y-24194832D01*
X110612293Y-24199791D01*
X110598014Y-24203368D01*
X110583453Y-24205528D01*
X110568750Y-24206250D01*
X110268750Y-24206250D01*
X110254047Y-24205528D01*
X110239486Y-24203368D01*
X110225207Y-24199791D01*
X110211347Y-24194832D01*
X110198040Y-24188538D01*
X110185414Y-24180970D01*
X110173591Y-24172202D01*
X110162684Y-24162316D01*
X110152798Y-24151409D01*
X110144030Y-24139586D01*
X110136462Y-24126960D01*
X110130168Y-24113653D01*
X110125209Y-24099793D01*
X110121632Y-24085514D01*
X110119472Y-24070953D01*
X110118750Y-24056250D01*
X110118750Y-22806250D01*
X110119472Y-22791547D01*
X110121632Y-22776986D01*
X110125209Y-22762707D01*
X110130168Y-22748847D01*
X110136462Y-22735540D01*
X110144030Y-22722914D01*
X110152798Y-22711091D01*
X110162684Y-22700184D01*
X110173591Y-22690298D01*
X110185414Y-22681530D01*
X110198040Y-22673962D01*
X110211347Y-22667668D01*
X110225207Y-22662709D01*
X110239486Y-22659132D01*
X110254047Y-22656972D01*
X110268750Y-22656250D01*
X110568750Y-22656250D01*
X110583453Y-22656972D01*
X110583453Y-22656972D01*
G37*
D18*
X110418750Y-23431250D03*
D11*
G36*
X109130754Y-32463704D02*
G01*
X109155023Y-32467304D01*
X109178821Y-32473265D01*
X109201921Y-32481530D01*
X109224099Y-32492020D01*
X109245143Y-32504633D01*
X109264848Y-32519247D01*
X109283027Y-32535723D01*
X109299503Y-32553902D01*
X109314117Y-32573607D01*
X109326730Y-32594651D01*
X109337220Y-32616829D01*
X109345485Y-32639929D01*
X109351446Y-32663727D01*
X109355046Y-32687996D01*
X109356250Y-32712500D01*
X109356250Y-33962500D01*
X109355046Y-33987004D01*
X109351446Y-34011273D01*
X109345485Y-34035071D01*
X109337220Y-34058171D01*
X109326730Y-34080349D01*
X109314117Y-34101393D01*
X109299503Y-34121098D01*
X109283027Y-34139277D01*
X109264848Y-34155753D01*
X109245143Y-34170367D01*
X109224099Y-34182980D01*
X109201921Y-34193470D01*
X109178821Y-34201735D01*
X109155023Y-34207696D01*
X109130754Y-34211296D01*
X109106250Y-34212500D01*
X108181250Y-34212500D01*
X108156746Y-34211296D01*
X108132477Y-34207696D01*
X108108679Y-34201735D01*
X108085579Y-34193470D01*
X108063401Y-34182980D01*
X108042357Y-34170367D01*
X108022652Y-34155753D01*
X108004473Y-34139277D01*
X107987997Y-34121098D01*
X107973383Y-34101393D01*
X107960770Y-34080349D01*
X107950280Y-34058171D01*
X107942015Y-34035071D01*
X107936054Y-34011273D01*
X107932454Y-33987004D01*
X107931250Y-33962500D01*
X107931250Y-32712500D01*
X107932454Y-32687996D01*
X107936054Y-32663727D01*
X107942015Y-32639929D01*
X107950280Y-32616829D01*
X107960770Y-32594651D01*
X107973383Y-32573607D01*
X107987997Y-32553902D01*
X108004473Y-32535723D01*
X108022652Y-32519247D01*
X108042357Y-32504633D01*
X108063401Y-32492020D01*
X108085579Y-32481530D01*
X108108679Y-32473265D01*
X108132477Y-32467304D01*
X108156746Y-32463704D01*
X108181250Y-32462500D01*
X109106250Y-32462500D01*
X109130754Y-32463704D01*
X109130754Y-32463704D01*
G37*
D19*
X108643750Y-33337500D03*
D11*
G36*
X106155754Y-32463704D02*
G01*
X106180023Y-32467304D01*
X106203821Y-32473265D01*
X106226921Y-32481530D01*
X106249099Y-32492020D01*
X106270143Y-32504633D01*
X106289848Y-32519247D01*
X106308027Y-32535723D01*
X106324503Y-32553902D01*
X106339117Y-32573607D01*
X106351730Y-32594651D01*
X106362220Y-32616829D01*
X106370485Y-32639929D01*
X106376446Y-32663727D01*
X106380046Y-32687996D01*
X106381250Y-32712500D01*
X106381250Y-33962500D01*
X106380046Y-33987004D01*
X106376446Y-34011273D01*
X106370485Y-34035071D01*
X106362220Y-34058171D01*
X106351730Y-34080349D01*
X106339117Y-34101393D01*
X106324503Y-34121098D01*
X106308027Y-34139277D01*
X106289848Y-34155753D01*
X106270143Y-34170367D01*
X106249099Y-34182980D01*
X106226921Y-34193470D01*
X106203821Y-34201735D01*
X106180023Y-34207696D01*
X106155754Y-34211296D01*
X106131250Y-34212500D01*
X105206250Y-34212500D01*
X105181746Y-34211296D01*
X105157477Y-34207696D01*
X105133679Y-34201735D01*
X105110579Y-34193470D01*
X105088401Y-34182980D01*
X105067357Y-34170367D01*
X105047652Y-34155753D01*
X105029473Y-34139277D01*
X105012997Y-34121098D01*
X104998383Y-34101393D01*
X104985770Y-34080349D01*
X104975280Y-34058171D01*
X104967015Y-34035071D01*
X104961054Y-34011273D01*
X104957454Y-33987004D01*
X104956250Y-33962500D01*
X104956250Y-32712500D01*
X104957454Y-32687996D01*
X104961054Y-32663727D01*
X104967015Y-32639929D01*
X104975280Y-32616829D01*
X104985770Y-32594651D01*
X104998383Y-32573607D01*
X105012997Y-32553902D01*
X105029473Y-32535723D01*
X105047652Y-32519247D01*
X105067357Y-32504633D01*
X105088401Y-32492020D01*
X105110579Y-32481530D01*
X105133679Y-32473265D01*
X105157477Y-32467304D01*
X105181746Y-32463704D01*
X105206250Y-32462500D01*
X106131250Y-32462500D01*
X106155754Y-32463704D01*
X106155754Y-32463704D01*
G37*
D19*
X105668750Y-33337500D03*
D20*
X200025000Y-75343750D03*
X200025000Y-78643750D03*
X184943750Y-75343750D03*
X184943750Y-78643750D03*
X161131250Y-79312500D03*
X161131250Y-82612500D03*
X101600000Y-88837500D03*
X101600000Y-92137500D03*
X60325000Y-80900000D03*
X60325000Y-84200000D03*
X24606250Y-75343750D03*
X24606250Y-78643750D03*
X205581250Y-57881250D03*
X205581250Y-61181250D03*
X202406250Y-57881250D03*
X202406250Y-61181250D03*
X180181250Y-58675000D03*
X180181250Y-61975000D03*
X161131250Y-61850000D03*
X161131250Y-65150000D03*
X142081250Y-65025000D03*
X142081250Y-68325000D03*
X107950000Y-72962500D03*
X107950000Y-76262500D03*
X88900000Y-68993750D03*
X88900000Y-72293750D03*
X70643750Y-65818750D03*
X70643750Y-69118750D03*
X51593750Y-62643750D03*
X51593750Y-65943750D03*
X26193750Y-57881250D03*
X26193750Y-61181250D03*
X212725000Y-38831250D03*
X212725000Y-42131250D03*
X185737500Y-38831250D03*
X185737500Y-42131250D03*
X167481250Y-42006250D03*
X167481250Y-45306250D03*
X148431250Y-45181250D03*
X148431250Y-48481250D03*
X102393750Y-51531250D03*
X102393750Y-54831250D03*
X84137500Y-49150000D03*
X84137500Y-52450000D03*
X65087500Y-45975000D03*
X65087500Y-49275000D03*
X46831250Y-42800000D03*
X46831250Y-46100000D03*
X26193750Y-38831250D03*
X26193750Y-42131250D03*
X217487500Y-19781250D03*
X217487500Y-23081250D03*
X198437500Y-19781250D03*
X198437500Y-23081250D03*
X178593750Y-19781250D03*
X178593750Y-23081250D03*
X159543750Y-22956250D03*
X159543750Y-26256250D03*
X140493750Y-26925000D03*
X140493750Y-30225000D03*
X102393750Y-31687500D03*
X102393750Y-34987500D03*
X83343750Y-30100000D03*
X83343750Y-33400000D03*
X45243750Y-22956250D03*
X45243750Y-26256250D03*
X26193750Y-19781250D03*
X26193750Y-23081250D03*
X115887500Y-26131250D03*
X115887500Y-29431250D03*
X118268750Y-26131250D03*
X118268750Y-29431250D03*
X64293750Y-26131250D03*
X64293750Y-29431250D03*
D11*
G36*
X119367489Y-39080786D02*
G01*
X119391150Y-39084296D01*
X119414354Y-39090108D01*
X119436876Y-39098166D01*
X119458500Y-39108394D01*
X119479017Y-39120691D01*
X119498230Y-39134941D01*
X119515954Y-39151005D01*
X119860669Y-39495720D01*
X119876733Y-39513444D01*
X119890983Y-39532657D01*
X119903280Y-39553174D01*
X119913508Y-39574798D01*
X119921566Y-39597320D01*
X119927378Y-39620524D01*
X119930888Y-39644185D01*
X119932062Y-39668077D01*
X119930888Y-39691969D01*
X119927378Y-39715630D01*
X119921566Y-39738834D01*
X119913508Y-39761356D01*
X119903280Y-39782980D01*
X119890983Y-39803497D01*
X119876733Y-39822710D01*
X119860669Y-39840434D01*
X119215434Y-40485669D01*
X119197710Y-40501733D01*
X119178497Y-40515983D01*
X119157980Y-40528280D01*
X119136356Y-40538508D01*
X119113834Y-40546566D01*
X119090630Y-40552378D01*
X119066969Y-40555888D01*
X119043077Y-40557062D01*
X119019185Y-40555888D01*
X118995524Y-40552378D01*
X118972320Y-40546566D01*
X118949798Y-40538508D01*
X118928174Y-40528280D01*
X118907657Y-40515983D01*
X118888444Y-40501733D01*
X118870720Y-40485669D01*
X118526005Y-40140954D01*
X118509941Y-40123230D01*
X118495691Y-40104017D01*
X118483394Y-40083500D01*
X118473166Y-40061876D01*
X118465108Y-40039354D01*
X118459296Y-40016150D01*
X118455786Y-39992489D01*
X118454612Y-39968597D01*
X118455786Y-39944705D01*
X118459296Y-39921044D01*
X118465108Y-39897840D01*
X118473166Y-39875318D01*
X118483394Y-39853694D01*
X118495691Y-39833177D01*
X118509941Y-39813964D01*
X118526005Y-39796240D01*
X119171240Y-39151005D01*
X119188964Y-39134941D01*
X119208177Y-39120691D01*
X119228694Y-39108394D01*
X119250318Y-39098166D01*
X119272840Y-39090108D01*
X119296044Y-39084296D01*
X119319705Y-39080786D01*
X119343597Y-39079612D01*
X119367489Y-39080786D01*
X119367489Y-39080786D01*
G37*
D21*
X119193337Y-39818337D03*
D11*
G36*
X120693315Y-40406612D02*
G01*
X120716976Y-40410122D01*
X120740180Y-40415934D01*
X120762702Y-40423992D01*
X120784326Y-40434220D01*
X120804843Y-40446517D01*
X120824056Y-40460767D01*
X120841780Y-40476831D01*
X121186495Y-40821546D01*
X121202559Y-40839270D01*
X121216809Y-40858483D01*
X121229106Y-40879000D01*
X121239334Y-40900624D01*
X121247392Y-40923146D01*
X121253204Y-40946350D01*
X121256714Y-40970011D01*
X121257888Y-40993903D01*
X121256714Y-41017795D01*
X121253204Y-41041456D01*
X121247392Y-41064660D01*
X121239334Y-41087182D01*
X121229106Y-41108806D01*
X121216809Y-41129323D01*
X121202559Y-41148536D01*
X121186495Y-41166260D01*
X120541260Y-41811495D01*
X120523536Y-41827559D01*
X120504323Y-41841809D01*
X120483806Y-41854106D01*
X120462182Y-41864334D01*
X120439660Y-41872392D01*
X120416456Y-41878204D01*
X120392795Y-41881714D01*
X120368903Y-41882888D01*
X120345011Y-41881714D01*
X120321350Y-41878204D01*
X120298146Y-41872392D01*
X120275624Y-41864334D01*
X120254000Y-41854106D01*
X120233483Y-41841809D01*
X120214270Y-41827559D01*
X120196546Y-41811495D01*
X119851831Y-41466780D01*
X119835767Y-41449056D01*
X119821517Y-41429843D01*
X119809220Y-41409326D01*
X119798992Y-41387702D01*
X119790934Y-41365180D01*
X119785122Y-41341976D01*
X119781612Y-41318315D01*
X119780438Y-41294423D01*
X119781612Y-41270531D01*
X119785122Y-41246870D01*
X119790934Y-41223666D01*
X119798992Y-41201144D01*
X119809220Y-41179520D01*
X119821517Y-41159003D01*
X119835767Y-41139790D01*
X119851831Y-41122066D01*
X120497066Y-40476831D01*
X120514790Y-40460767D01*
X120534003Y-40446517D01*
X120554520Y-40434220D01*
X120576144Y-40423992D01*
X120598666Y-40415934D01*
X120621870Y-40410122D01*
X120645531Y-40406612D01*
X120669423Y-40405438D01*
X120693315Y-40406612D01*
X120693315Y-40406612D01*
G37*
D21*
X120519163Y-41144163D03*
D11*
G36*
X107441111Y-53658330D02*
G01*
X107462346Y-53661480D01*
X107483170Y-53666696D01*
X107503382Y-53673928D01*
X107522788Y-53683107D01*
X107541201Y-53694143D01*
X107558444Y-53706931D01*
X107574350Y-53721347D01*
X107883709Y-54030706D01*
X107898125Y-54046612D01*
X107910913Y-54063855D01*
X107921949Y-54082268D01*
X107931128Y-54101674D01*
X107938360Y-54121886D01*
X107943576Y-54142710D01*
X107946726Y-54163945D01*
X107947779Y-54185386D01*
X107946726Y-54206827D01*
X107943576Y-54228062D01*
X107938360Y-54248886D01*
X107931128Y-54269098D01*
X107921949Y-54288504D01*
X107910913Y-54306917D01*
X107898125Y-54324160D01*
X107883709Y-54340066D01*
X107521316Y-54702459D01*
X107505410Y-54716875D01*
X107488167Y-54729663D01*
X107469754Y-54740699D01*
X107450348Y-54749878D01*
X107430136Y-54757110D01*
X107409312Y-54762326D01*
X107388077Y-54765476D01*
X107366636Y-54766529D01*
X107345195Y-54765476D01*
X107323960Y-54762326D01*
X107303136Y-54757110D01*
X107282924Y-54749878D01*
X107263518Y-54740699D01*
X107245105Y-54729663D01*
X107227862Y-54716875D01*
X107211956Y-54702459D01*
X106902597Y-54393100D01*
X106888181Y-54377194D01*
X106875393Y-54359951D01*
X106864357Y-54341538D01*
X106855178Y-54322132D01*
X106847946Y-54301920D01*
X106842730Y-54281096D01*
X106839580Y-54259861D01*
X106838527Y-54238420D01*
X106839580Y-54216979D01*
X106842730Y-54195744D01*
X106847946Y-54174920D01*
X106855178Y-54154708D01*
X106864357Y-54135302D01*
X106875393Y-54116889D01*
X106888181Y-54099646D01*
X106902597Y-54083740D01*
X107264990Y-53721347D01*
X107280896Y-53706931D01*
X107298139Y-53694143D01*
X107316552Y-53683107D01*
X107335958Y-53673928D01*
X107356170Y-53666696D01*
X107376994Y-53661480D01*
X107398229Y-53658330D01*
X107419670Y-53657277D01*
X107441111Y-53658330D01*
X107441111Y-53658330D01*
G37*
D12*
X107393153Y-54211903D03*
D11*
G36*
X108554805Y-54772024D02*
G01*
X108576040Y-54775174D01*
X108596864Y-54780390D01*
X108617076Y-54787622D01*
X108636482Y-54796801D01*
X108654895Y-54807837D01*
X108672138Y-54820625D01*
X108688044Y-54835041D01*
X108997403Y-55144400D01*
X109011819Y-55160306D01*
X109024607Y-55177549D01*
X109035643Y-55195962D01*
X109044822Y-55215368D01*
X109052054Y-55235580D01*
X109057270Y-55256404D01*
X109060420Y-55277639D01*
X109061473Y-55299080D01*
X109060420Y-55320521D01*
X109057270Y-55341756D01*
X109052054Y-55362580D01*
X109044822Y-55382792D01*
X109035643Y-55402198D01*
X109024607Y-55420611D01*
X109011819Y-55437854D01*
X108997403Y-55453760D01*
X108635010Y-55816153D01*
X108619104Y-55830569D01*
X108601861Y-55843357D01*
X108583448Y-55854393D01*
X108564042Y-55863572D01*
X108543830Y-55870804D01*
X108523006Y-55876020D01*
X108501771Y-55879170D01*
X108480330Y-55880223D01*
X108458889Y-55879170D01*
X108437654Y-55876020D01*
X108416830Y-55870804D01*
X108396618Y-55863572D01*
X108377212Y-55854393D01*
X108358799Y-55843357D01*
X108341556Y-55830569D01*
X108325650Y-55816153D01*
X108016291Y-55506794D01*
X108001875Y-55490888D01*
X107989087Y-55473645D01*
X107978051Y-55455232D01*
X107968872Y-55435826D01*
X107961640Y-55415614D01*
X107956424Y-55394790D01*
X107953274Y-55373555D01*
X107952221Y-55352114D01*
X107953274Y-55330673D01*
X107956424Y-55309438D01*
X107961640Y-55288614D01*
X107968872Y-55268402D01*
X107978051Y-55248996D01*
X107989087Y-55230583D01*
X108001875Y-55213340D01*
X108016291Y-55197434D01*
X108378684Y-54835041D01*
X108394590Y-54820625D01*
X108411833Y-54807837D01*
X108430246Y-54796801D01*
X108449652Y-54787622D01*
X108469864Y-54780390D01*
X108490688Y-54775174D01*
X108511923Y-54772024D01*
X108533364Y-54770971D01*
X108554805Y-54772024D01*
X108554805Y-54772024D01*
G37*
D12*
X108506847Y-55325597D03*
D11*
G36*
X120881827Y-54772024D02*
G01*
X120903062Y-54775174D01*
X120923886Y-54780390D01*
X120944098Y-54787622D01*
X120963504Y-54796801D01*
X120981917Y-54807837D01*
X120999160Y-54820625D01*
X121015066Y-54835041D01*
X121377459Y-55197434D01*
X121391875Y-55213340D01*
X121404663Y-55230583D01*
X121415699Y-55248996D01*
X121424878Y-55268402D01*
X121432110Y-55288614D01*
X121437326Y-55309438D01*
X121440476Y-55330673D01*
X121441529Y-55352114D01*
X121440476Y-55373555D01*
X121437326Y-55394790D01*
X121432110Y-55415614D01*
X121424878Y-55435826D01*
X121415699Y-55455232D01*
X121404663Y-55473645D01*
X121391875Y-55490888D01*
X121377459Y-55506794D01*
X121068100Y-55816153D01*
X121052194Y-55830569D01*
X121034951Y-55843357D01*
X121016538Y-55854393D01*
X120997132Y-55863572D01*
X120976920Y-55870804D01*
X120956096Y-55876020D01*
X120934861Y-55879170D01*
X120913420Y-55880223D01*
X120891979Y-55879170D01*
X120870744Y-55876020D01*
X120849920Y-55870804D01*
X120829708Y-55863572D01*
X120810302Y-55854393D01*
X120791889Y-55843357D01*
X120774646Y-55830569D01*
X120758740Y-55816153D01*
X120396347Y-55453760D01*
X120381931Y-55437854D01*
X120369143Y-55420611D01*
X120358107Y-55402198D01*
X120348928Y-55382792D01*
X120341696Y-55362580D01*
X120336480Y-55341756D01*
X120333330Y-55320521D01*
X120332277Y-55299080D01*
X120333330Y-55277639D01*
X120336480Y-55256404D01*
X120341696Y-55235580D01*
X120348928Y-55215368D01*
X120358107Y-55195962D01*
X120369143Y-55177549D01*
X120381931Y-55160306D01*
X120396347Y-55144400D01*
X120705706Y-54835041D01*
X120721612Y-54820625D01*
X120738855Y-54807837D01*
X120757268Y-54796801D01*
X120776674Y-54787622D01*
X120796886Y-54780390D01*
X120817710Y-54775174D01*
X120838945Y-54772024D01*
X120860386Y-54770971D01*
X120881827Y-54772024D01*
X120881827Y-54772024D01*
G37*
D12*
X120886903Y-55325597D03*
D11*
G36*
X121995521Y-53658330D02*
G01*
X122016756Y-53661480D01*
X122037580Y-53666696D01*
X122057792Y-53673928D01*
X122077198Y-53683107D01*
X122095611Y-53694143D01*
X122112854Y-53706931D01*
X122128760Y-53721347D01*
X122491153Y-54083740D01*
X122505569Y-54099646D01*
X122518357Y-54116889D01*
X122529393Y-54135302D01*
X122538572Y-54154708D01*
X122545804Y-54174920D01*
X122551020Y-54195744D01*
X122554170Y-54216979D01*
X122555223Y-54238420D01*
X122554170Y-54259861D01*
X122551020Y-54281096D01*
X122545804Y-54301920D01*
X122538572Y-54322132D01*
X122529393Y-54341538D01*
X122518357Y-54359951D01*
X122505569Y-54377194D01*
X122491153Y-54393100D01*
X122181794Y-54702459D01*
X122165888Y-54716875D01*
X122148645Y-54729663D01*
X122130232Y-54740699D01*
X122110826Y-54749878D01*
X122090614Y-54757110D01*
X122069790Y-54762326D01*
X122048555Y-54765476D01*
X122027114Y-54766529D01*
X122005673Y-54765476D01*
X121984438Y-54762326D01*
X121963614Y-54757110D01*
X121943402Y-54749878D01*
X121923996Y-54740699D01*
X121905583Y-54729663D01*
X121888340Y-54716875D01*
X121872434Y-54702459D01*
X121510041Y-54340066D01*
X121495625Y-54324160D01*
X121482837Y-54306917D01*
X121471801Y-54288504D01*
X121462622Y-54269098D01*
X121455390Y-54248886D01*
X121450174Y-54228062D01*
X121447024Y-54206827D01*
X121445971Y-54185386D01*
X121447024Y-54163945D01*
X121450174Y-54142710D01*
X121455390Y-54121886D01*
X121462622Y-54101674D01*
X121471801Y-54082268D01*
X121482837Y-54063855D01*
X121495625Y-54046612D01*
X121510041Y-54030706D01*
X121819400Y-53721347D01*
X121835306Y-53706931D01*
X121852549Y-53694143D01*
X121870962Y-53683107D01*
X121890368Y-53673928D01*
X121910580Y-53666696D01*
X121931404Y-53661480D01*
X121952639Y-53658330D01*
X121974080Y-53657277D01*
X121995521Y-53658330D01*
X121995521Y-53658330D01*
G37*
D12*
X122000597Y-54211903D03*
D11*
G36*
X104062405Y-41546380D02*
G01*
X104083640Y-41549530D01*
X104104464Y-41554746D01*
X104124676Y-41561978D01*
X104144082Y-41571157D01*
X104162495Y-41582193D01*
X104179738Y-41594981D01*
X104195644Y-41609397D01*
X104505003Y-41918756D01*
X104519419Y-41934662D01*
X104532207Y-41951905D01*
X104543243Y-41970318D01*
X104552422Y-41989724D01*
X104559654Y-42009936D01*
X104564870Y-42030760D01*
X104568020Y-42051995D01*
X104569073Y-42073436D01*
X104568020Y-42094877D01*
X104564870Y-42116112D01*
X104559654Y-42136936D01*
X104552422Y-42157148D01*
X104543243Y-42176554D01*
X104532207Y-42194967D01*
X104519419Y-42212210D01*
X104505003Y-42228116D01*
X104142610Y-42590509D01*
X104126704Y-42604925D01*
X104109461Y-42617713D01*
X104091048Y-42628749D01*
X104071642Y-42637928D01*
X104051430Y-42645160D01*
X104030606Y-42650376D01*
X104009371Y-42653526D01*
X103987930Y-42654579D01*
X103966489Y-42653526D01*
X103945254Y-42650376D01*
X103924430Y-42645160D01*
X103904218Y-42637928D01*
X103884812Y-42628749D01*
X103866399Y-42617713D01*
X103849156Y-42604925D01*
X103833250Y-42590509D01*
X103523891Y-42281150D01*
X103509475Y-42265244D01*
X103496687Y-42248001D01*
X103485651Y-42229588D01*
X103476472Y-42210182D01*
X103469240Y-42189970D01*
X103464024Y-42169146D01*
X103460874Y-42147911D01*
X103459821Y-42126470D01*
X103460874Y-42105029D01*
X103464024Y-42083794D01*
X103469240Y-42062970D01*
X103476472Y-42042758D01*
X103485651Y-42023352D01*
X103496687Y-42004939D01*
X103509475Y-41987696D01*
X103523891Y-41971790D01*
X103886284Y-41609397D01*
X103902190Y-41594981D01*
X103919433Y-41582193D01*
X103937846Y-41571157D01*
X103957252Y-41561978D01*
X103977464Y-41554746D01*
X103998288Y-41549530D01*
X104019523Y-41546380D01*
X104040964Y-41545327D01*
X104062405Y-41546380D01*
X104062405Y-41546380D01*
G37*
D12*
X104014447Y-42099953D03*
D11*
G36*
X105176099Y-42660074D02*
G01*
X105197334Y-42663224D01*
X105218158Y-42668440D01*
X105238370Y-42675672D01*
X105257776Y-42684851D01*
X105276189Y-42695887D01*
X105293432Y-42708675D01*
X105309338Y-42723091D01*
X105618697Y-43032450D01*
X105633113Y-43048356D01*
X105645901Y-43065599D01*
X105656937Y-43084012D01*
X105666116Y-43103418D01*
X105673348Y-43123630D01*
X105678564Y-43144454D01*
X105681714Y-43165689D01*
X105682767Y-43187130D01*
X105681714Y-43208571D01*
X105678564Y-43229806D01*
X105673348Y-43250630D01*
X105666116Y-43270842D01*
X105656937Y-43290248D01*
X105645901Y-43308661D01*
X105633113Y-43325904D01*
X105618697Y-43341810D01*
X105256304Y-43704203D01*
X105240398Y-43718619D01*
X105223155Y-43731407D01*
X105204742Y-43742443D01*
X105185336Y-43751622D01*
X105165124Y-43758854D01*
X105144300Y-43764070D01*
X105123065Y-43767220D01*
X105101624Y-43768273D01*
X105080183Y-43767220D01*
X105058948Y-43764070D01*
X105038124Y-43758854D01*
X105017912Y-43751622D01*
X104998506Y-43742443D01*
X104980093Y-43731407D01*
X104962850Y-43718619D01*
X104946944Y-43704203D01*
X104637585Y-43394844D01*
X104623169Y-43378938D01*
X104610381Y-43361695D01*
X104599345Y-43343282D01*
X104590166Y-43323876D01*
X104582934Y-43303664D01*
X104577718Y-43282840D01*
X104574568Y-43261605D01*
X104573515Y-43240164D01*
X104574568Y-43218723D01*
X104577718Y-43197488D01*
X104582934Y-43176664D01*
X104590166Y-43156452D01*
X104599345Y-43137046D01*
X104610381Y-43118633D01*
X104623169Y-43101390D01*
X104637585Y-43085484D01*
X104999978Y-42723091D01*
X105015884Y-42708675D01*
X105033127Y-42695887D01*
X105051540Y-42684851D01*
X105070946Y-42675672D01*
X105091158Y-42668440D01*
X105111982Y-42663224D01*
X105133217Y-42660074D01*
X105154658Y-42659021D01*
X105176099Y-42660074D01*
X105176099Y-42660074D01*
G37*
D12*
X105128141Y-43213647D03*
D11*
G36*
X110788759Y-37047414D02*
G01*
X110809994Y-37050564D01*
X110830818Y-37055780D01*
X110851030Y-37063012D01*
X110870436Y-37072191D01*
X110888849Y-37083227D01*
X110906092Y-37096015D01*
X110921998Y-37110431D01*
X111231357Y-37419790D01*
X111245773Y-37435696D01*
X111258561Y-37452939D01*
X111269597Y-37471352D01*
X111278776Y-37490758D01*
X111286008Y-37510970D01*
X111291224Y-37531794D01*
X111294374Y-37553029D01*
X111295427Y-37574470D01*
X111294374Y-37595911D01*
X111291224Y-37617146D01*
X111286008Y-37637970D01*
X111278776Y-37658182D01*
X111269597Y-37677588D01*
X111258561Y-37696001D01*
X111245773Y-37713244D01*
X111231357Y-37729150D01*
X110868964Y-38091543D01*
X110853058Y-38105959D01*
X110835815Y-38118747D01*
X110817402Y-38129783D01*
X110797996Y-38138962D01*
X110777784Y-38146194D01*
X110756960Y-38151410D01*
X110735725Y-38154560D01*
X110714284Y-38155613D01*
X110692843Y-38154560D01*
X110671608Y-38151410D01*
X110650784Y-38146194D01*
X110630572Y-38138962D01*
X110611166Y-38129783D01*
X110592753Y-38118747D01*
X110575510Y-38105959D01*
X110559604Y-38091543D01*
X110250245Y-37782184D01*
X110235829Y-37766278D01*
X110223041Y-37749035D01*
X110212005Y-37730622D01*
X110202826Y-37711216D01*
X110195594Y-37691004D01*
X110190378Y-37670180D01*
X110187228Y-37648945D01*
X110186175Y-37627504D01*
X110187228Y-37606063D01*
X110190378Y-37584828D01*
X110195594Y-37564004D01*
X110202826Y-37543792D01*
X110212005Y-37524386D01*
X110223041Y-37505973D01*
X110235829Y-37488730D01*
X110250245Y-37472824D01*
X110612638Y-37110431D01*
X110628544Y-37096015D01*
X110645787Y-37083227D01*
X110664200Y-37072191D01*
X110683606Y-37063012D01*
X110703818Y-37055780D01*
X110724642Y-37050564D01*
X110745877Y-37047414D01*
X110767318Y-37046361D01*
X110788759Y-37047414D01*
X110788759Y-37047414D01*
G37*
D12*
X110740801Y-37600987D03*
D11*
G36*
X109675065Y-35933720D02*
G01*
X109696300Y-35936870D01*
X109717124Y-35942086D01*
X109737336Y-35949318D01*
X109756742Y-35958497D01*
X109775155Y-35969533D01*
X109792398Y-35982321D01*
X109808304Y-35996737D01*
X110117663Y-36306096D01*
X110132079Y-36322002D01*
X110144867Y-36339245D01*
X110155903Y-36357658D01*
X110165082Y-36377064D01*
X110172314Y-36397276D01*
X110177530Y-36418100D01*
X110180680Y-36439335D01*
X110181733Y-36460776D01*
X110180680Y-36482217D01*
X110177530Y-36503452D01*
X110172314Y-36524276D01*
X110165082Y-36544488D01*
X110155903Y-36563894D01*
X110144867Y-36582307D01*
X110132079Y-36599550D01*
X110117663Y-36615456D01*
X109755270Y-36977849D01*
X109739364Y-36992265D01*
X109722121Y-37005053D01*
X109703708Y-37016089D01*
X109684302Y-37025268D01*
X109664090Y-37032500D01*
X109643266Y-37037716D01*
X109622031Y-37040866D01*
X109600590Y-37041919D01*
X109579149Y-37040866D01*
X109557914Y-37037716D01*
X109537090Y-37032500D01*
X109516878Y-37025268D01*
X109497472Y-37016089D01*
X109479059Y-37005053D01*
X109461816Y-36992265D01*
X109445910Y-36977849D01*
X109136551Y-36668490D01*
X109122135Y-36652584D01*
X109109347Y-36635341D01*
X109098311Y-36616928D01*
X109089132Y-36597522D01*
X109081900Y-36577310D01*
X109076684Y-36556486D01*
X109073534Y-36535251D01*
X109072481Y-36513810D01*
X109073534Y-36492369D01*
X109076684Y-36471134D01*
X109081900Y-36450310D01*
X109089132Y-36430098D01*
X109098311Y-36410692D01*
X109109347Y-36392279D01*
X109122135Y-36375036D01*
X109136551Y-36359130D01*
X109498944Y-35996737D01*
X109514850Y-35982321D01*
X109532093Y-35969533D01*
X109550506Y-35958497D01*
X109569912Y-35949318D01*
X109590124Y-35942086D01*
X109610948Y-35936870D01*
X109632183Y-35933720D01*
X109653624Y-35932667D01*
X109675065Y-35933720D01*
X109675065Y-35933720D01*
G37*
D12*
X109627107Y-36487293D03*
M02*
