M48
; DRILL file {KiCad (5.1.4)-1} date 02/17/22 11:30:03
; FORMAT={-:-/ absolute / inch / decimal}
; #@! TF.CreationDate,2022-02-17T11:30:03+08:00
; #@! TF.GenerationSoftware,Kicad,Pcbnew,(5.1.4)-1
; #@! TF.FileFunction,NonPlated,1,2,NPTH
FMAT,2
INCH
T1C0.0390
T2C0.0689
T3C0.1200
T4C0.1570
%
G90
G05
T1
X3.4312Y-1.4062
X3.6313Y-1.3662
X3.6313Y-1.4463
T2
X6.4967Y-2.1771
X6.8906Y-2.1077
X5.2586Y-1.6339
X5.6525Y-1.5644
X5.6823Y-0.7976
X6.0762Y-0.7281
X1.544Y-2.1402
X1.9379Y-2.2097
X7.975Y-0.5625
X8.375Y-0.5625
X5.4267Y-3.1274
X5.8206Y-3.0579
X1.305Y-1.3365
X1.6989Y-1.406
X6.4967Y-2.1771
X6.8906Y-2.1077
X8.05Y-2.8125
X8.45Y-2.8125
X3.4664Y-0.956
X3.8603Y-1.0255
X5.0195Y-2.4376
X5.4134Y-2.3681
X3.5208Y-1.7272
X3.9147Y-1.7967
X1.544Y-2.1402
X1.9379Y-2.2097
X7.225Y-0.525
X7.625Y-0.525
X2.2826Y-2.2705
X2.6766Y-2.3399
X3.0212Y-2.4007
X3.4152Y-2.4702
X3.168Y-3.1881
X3.5619Y-3.2576
X6.7358Y-1.3734
X7.1297Y-1.3039
X0.4375Y-0.5625
X0.8375Y-0.5625
X5.4267Y-3.1274
X5.8206Y-3.0579
X1.305Y-1.3365
X1.6989Y-1.406
X0.4188Y-1.3125
X0.8187Y-1.3125
X7.975Y-0.5625
X8.375Y-0.5625
X3.7598Y-2.5309
X4.1538Y-2.6004
X0.4188Y-1.3125
X0.8187Y-1.3125
X2.0436Y-1.4667
X2.4375Y-1.5362
X0.4562Y-2.0625
X0.8562Y-2.0625
X2.7278Y-0.8258
X3.1217Y-0.8953
X6.4209Y-0.6674
X6.8148Y-0.5979
X5.7581Y-2.3074
X6.152Y-2.2379
X0.3625Y-2.8125
X0.7625Y-2.8125
X2.7822Y-1.597
X3.1761Y-1.6664
X3.7598Y-2.5309
X4.1538Y-2.6004
X7.3937Y-2.0625
X7.7938Y-2.0625
X5.6823Y-0.7976
X6.0762Y-0.7281
X0.4562Y-2.0625
X0.8562Y-2.0625
X1.9891Y-0.6956
X2.3831Y-0.765
X5.9972Y-1.5036
X6.3911Y-1.4342
X3.5208Y-1.7272
X3.9147Y-1.7967
X4.9437Y-0.9278
X5.3376Y-0.8584
X5.2586Y-1.6339
X5.6525Y-1.5644
X0.3625Y-2.8125
X0.7625Y-2.8125
X8.05Y-2.8125
X8.45Y-2.8125
X1.2505Y-0.5653
X1.6445Y-0.6348
X6.6269Y-2.9157
X7.0209Y-2.8463
X5.9972Y-1.5036
X6.3911Y-1.4342
X6.4209Y-0.6674
X6.8148Y-0.5979
X8.2375Y-2.0625
X8.6375Y-2.0625
X7.8062Y-1.3125
X8.2062Y-1.3125
X4.9437Y-0.9278
X5.3376Y-0.8584
X7.3937Y-2.0625
X7.7938Y-2.0625
X1.7831Y-2.9439
X2.177Y-3.0134
X2.0436Y-1.4667
X2.4375Y-1.5362
X5.0195Y-2.4376
X5.4134Y-2.3681
X8.2375Y-2.0625
X8.6375Y-2.0625
X1.2505Y-0.5653
X1.6445Y-0.6348
X2.2826Y-2.2705
X2.6766Y-2.3399
X1.9891Y-0.6956
X2.3831Y-0.765
X7.8062Y-1.3125
X8.2062Y-1.3125
X6.6269Y-2.9157
X7.0209Y-2.8463
X0.4375Y-0.5625
X0.8375Y-0.5625
X2.7822Y-1.597
X3.1761Y-1.6664
X1.7831Y-2.9439
X2.177Y-3.0134
X5.7581Y-2.3074
X6.152Y-2.2379
X3.0212Y-2.4007
X3.4152Y-2.4702
X2.7278Y-0.8258
X3.1217Y-0.8953
X3.4664Y-0.956
X3.8603Y-1.0255
X3.168Y-3.1881
X3.5619Y-3.2576
X7.225Y-0.525
X7.625Y-0.525
X6.7358Y-1.3734
X7.1297Y-1.3039
T3
X2.8543Y-3.4121
X3.78Y-3.5753
X5.2098Y-3.4449
X6.1331Y-3.2821
X2.8556Y-3.4123
X3.7788Y-3.5751
X5.2086Y-3.4451
X6.1343Y-3.2818
T4
X7.5938Y-2.0625
X1.98Y-2.9787
X2.2405Y-1.5015
X5.2165Y-2.4029
X8.4375Y-2.0625
X1.4475Y-0.6001
X2.4796Y-2.3052
X2.1861Y-0.7303
X8.0062Y-1.3125
X6.8239Y-2.881
X0.6375Y-0.5625
X2.9791Y-1.6317
X1.98Y-2.9787
X5.9551Y-2.2726
X3.2182Y-2.4354
X2.9247Y-0.8605
X3.6633Y-0.9908
X2.9585Y-2.8212
X3.3649Y-3.2229
X3.8842Y-2.9844
X7.425Y-0.525
X6.9327Y-1.3387
X6.6937Y-2.1424
X5.4555Y-1.5991
X5.8792Y-0.7629
X1.741Y-2.175
X8.175Y-0.5625
X5.1056Y-2.854
X5.6237Y-3.0926
X6.0289Y-2.6912
X1.5019Y-1.3712
X6.6937Y-2.1424
X8.25Y-2.8125
X3.6633Y-0.9908
X5.2165Y-2.4029
X3.7177Y-1.7619
X1.741Y-2.175
X7.425Y-0.525
X2.4796Y-2.3052
X3.2182Y-2.4354
X2.9597Y-2.8214
X3.3649Y-3.2229
X3.883Y-2.9842
X6.9327Y-1.3387
X0.6375Y-0.5625
X5.1044Y-2.8542
X5.6237Y-3.0926
X6.0301Y-2.691
X1.5019Y-1.3712
X0.6188Y-1.3125
X8.175Y-0.5625
X3.9568Y-2.5657
X0.6188Y-1.3125
X2.2405Y-1.5015
X0.6562Y-2.0625
X2.9247Y-0.8605
X6.6178Y-0.6326
X5.9551Y-2.2726
X0.5625Y-2.8125
X2.9791Y-1.6317
X3.9568Y-2.5657
X7.5938Y-2.0625
X5.8792Y-0.7629
X0.6562Y-2.0625
X2.1861Y-0.7303
X6.1941Y-1.4689
X3.7177Y-1.7619
X5.1406Y-0.8931
X5.4555Y-1.5991
X0.5625Y-2.8125
X8.25Y-2.8125
X1.4475Y-0.6001
X6.8239Y-2.881
X6.1941Y-1.4689
X6.6178Y-0.6326
X8.4375Y-2.0625
X8.0062Y-1.3125
X5.1406Y-0.8931
T0
M30
