M48
; DRILL file {KiCad (5.1.4)-1} date 22 Feb 2023 10:45:22 am
; FORMAT={-:-/ absolute / inch / decimal}
; #@! TF.CreationDate,2023-02-22T10:45:22+08:00
; #@! TF.GenerationSoftware,Kicad,Pcbnew,(5.1.4)-1
; #@! TF.FileFunction,Plated,1,2,PTH
FMAT,2
INCH
T1C0.0157
T2C0.0579
T3C0.1181
%
G90
G05
T1
X1.122Y-0.9449
X1.1516Y-1.0335
X1.19Y-2.59
X1.1909Y-2.5394
X1.2008Y-1.0335
X1.3484Y-2.5886
X2.5787Y-1.2106
X2.595Y-3.385
X2.6673Y-2.8543
X3.435Y-1.265
X3.475Y-1.475
X3.53Y-1.47
X3.58Y-1.345
X3.585Y-1.47
X3.68Y-1.3578
X3.71Y-1.3863
X3.7697Y-1.3007
X3.78Y-1.485
X4.105Y-1.375
X4.125Y-2.18
X4.1339Y-3.0512
X4.155Y-1.7535
X4.16Y-1.82
X4.1833Y-1.6573
X4.19Y-1.725
X4.195Y-1.7821
X4.195Y-2.105
X4.23Y-1.105
X4.2717Y-1.4805
X4.2812Y-1.7188
X4.305Y-2.21
X4.3093Y-1.6907
X4.345Y-1.825
X4.3962Y-2.0189
X4.4688Y-0.9688
X4.4793Y-1.4062
X4.49Y-1.22
X4.5166Y-1.2979
X4.5207Y-1.4062
X4.5459Y-1.3271
X4.5625Y-1.0
X4.62Y-3.485
X4.625Y-1.4688
X4.635Y-2.02
X4.6562Y-1.0
X4.6562Y-1.8125
X4.66Y-1.54
X4.685Y-2.435
X4.685Y-3.355
X4.7276Y-1.6876
X4.7785Y-1.4348
X4.7812Y-2.2188
X4.84Y-2.105
X4.905Y-1.59
X4.9688Y-1.4688
X5.0575Y-2.1375
X5.17Y-2.025
X5.465Y-1.19
X5.6693Y-1.1516
X5.7874Y-2.7953
X5.97Y-3.29
X7.2933Y-0.9103
X7.5197Y-0.9547
X7.5591Y-0.9252
X7.7264Y-2.5197
X7.7756Y-2.4409
X7.8051Y-2.4705
T2
X7.4437Y-1.9625
X7.6937Y-1.8625
X2.0558Y-0.6058
X2.3193Y-0.5507
X3.0878Y-2.3109
X3.3514Y-2.2558
X0.4125Y-2.7125
X0.6625Y-2.6125
X1.6106Y-2.0504
X1.8742Y-1.9954
X5.2904Y-1.5267
X5.5193Y-1.3848
X2.1102Y-1.3769
X2.3737Y-1.3219
X6.7676Y-1.2662
X6.9965Y-1.1243
X8.2875Y-1.9625
X8.5375Y-1.8625
X2.8488Y-1.5072
X3.1123Y-1.4521
X0.5062Y-1.9625
X0.7562Y-1.8625
X4.9755Y-0.8207
X5.2044Y-0.6788
X5.79Y-2.2002
X6.0188Y-2.0583
X5.4586Y-3.0202
X5.6874Y-2.8783
X0.4875Y-0.4625
X0.7375Y-0.3625
X8.025Y-0.4625
X8.275Y-0.3625
X6.4528Y-0.5602
X6.6816Y-0.4183
X6.029Y-1.3965
X6.2579Y-1.2546
X1.3716Y-1.2467
X1.6351Y-1.1916
X6.6588Y-2.8086
X6.8877Y-2.6667
X0.4688Y-1.2125
X0.7188Y-1.1125
X3.8264Y-2.4411
X4.09Y-2.3861
X3.2346Y-3.0983
X3.4981Y-3.0433
X7.8563Y-1.2125
X8.1062Y-1.1125
X2.7944Y-0.736
X3.0579Y-0.6809
X5.7142Y-0.6904
X5.943Y-0.5485
X1.3171Y-0.4755
X1.5807Y-0.4205
X1.8497Y-2.8541
X2.1133Y-2.7991
X6.5286Y-2.07
X6.7574Y-1.9281
X8.1Y-2.7125
X8.35Y-2.6125
X3.533Y-0.8662
X3.7965Y-0.8112
X7.275Y-0.425
X7.525Y-0.325
X3.5874Y-1.6374
X3.8509Y-1.5823
X5.0514Y-2.3304
X5.2802Y-2.1885
X2.3492Y-2.1807
X2.6128Y-2.1256
T3
X3.5301Y-1.1704
X3.7937Y-1.1153
X2.7915Y-1.0401
X3.0551Y-0.9851
X5.0769Y-1.1074
X5.3057Y-0.9655
X7.9062Y-1.5125
X8.1562Y-1.4125
X1.3687Y-1.5508
X1.6323Y-1.4958
X1.8468Y-3.1583
X2.1104Y-3.1032
X1.6078Y-2.3546
X1.8713Y-2.2995
X6.5541Y-0.847
X6.7829Y-0.7051
X6.869Y-1.553
X7.0978Y-1.4111
X3.085Y-2.615
X3.3486Y-2.56
X2.3464Y-2.4848
X2.6099Y-2.4297
X8.3375Y-2.2625
X8.5875Y-2.1625
X2.0529Y-0.9099
X2.3165Y-0.8548
X1.3143Y-0.7797
X1.5779Y-0.7246
X6.1304Y-1.6832
X6.3592Y-1.5413
X5.5599Y-3.307
X5.7888Y-3.1651
X0.5375Y-0.7625
X0.7875Y-0.6625
X2.8459Y-1.8113
X3.1095Y-1.7562
X0.4625Y-3.0125
X0.7125Y-2.9125
X6.7602Y-3.0953
X6.989Y-2.9534
X8.15Y-3.0125
X8.4Y-2.9125
X2.1073Y-1.6811
X2.3709Y-1.626
X0.5563Y-2.2625
X0.8063Y-2.1625
X8.075Y-0.7625
X8.325Y-0.6625
X6.6299Y-2.3567
X6.8588Y-2.2148
X5.8155Y-0.9772
X6.0443Y-0.8353
X5.8913Y-2.487
X6.1201Y-2.3451
X3.5845Y-1.9415
X3.8481Y-1.8865
X3.2317Y-3.4025
X3.4953Y-3.3474
X7.325Y-0.725
X7.575Y-0.625
X0.5187Y-1.5125
X0.7687Y-1.4125
X3.8236Y-2.7453
X4.0872Y-2.6902
X7.4937Y-2.2625
X7.7437Y-2.1625
X5.3918Y-1.8135
X5.6206Y-1.6716
X5.1527Y-2.6172
X5.3815Y-2.4753
T0
M30
