G04 #@! TF.GenerationSoftware,KiCad,Pcbnew,(5.1.4)-1*
G04 #@! TF.CreationDate,2022-02-17T11:30:01+08:00*
G04 #@! TF.ProjectId,C-13X-PCB,432d3133-582d-4504-9342-2e6b69636164,rev?*
G04 #@! TF.SameCoordinates,Original*
G04 #@! TF.FileFunction,Legend,Bot*
G04 #@! TF.FilePolarity,Positive*
%FSLAX46Y46*%
G04 Gerber Fmt 4.6, Leading zero omitted, Abs format (unit mm)*
G04 Created by KiCad (PCBNEW (5.1.4)-1) date 2022-02-17 11:30:01*
%MOMM*%
%LPD*%
G04 APERTURE LIST*
%ADD10C,0.375000*%
%ADD11C,0.120000*%
%ADD12C,0.150000*%
G04 APERTURE END LIST*
D10*
X124503571Y-42271428D02*
X123789285Y-41771428D01*
X124503571Y-41414285D02*
X123003571Y-41414285D01*
X123003571Y-41985714D01*
X123075000Y-42128571D01*
X123146428Y-42200000D01*
X123289285Y-42271428D01*
X123503571Y-42271428D01*
X123646428Y-42200000D01*
X123717857Y-42128571D01*
X123789285Y-41985714D01*
X123789285Y-41414285D01*
X123717857Y-42914285D02*
X123717857Y-43414285D01*
X124503571Y-43628571D02*
X124503571Y-42914285D01*
X123003571Y-42914285D01*
X123003571Y-43628571D01*
X124432142Y-44200000D02*
X124503571Y-44414285D01*
X124503571Y-44771428D01*
X124432142Y-44914285D01*
X124360714Y-44985714D01*
X124217857Y-45057142D01*
X124075000Y-45057142D01*
X123932142Y-44985714D01*
X123860714Y-44914285D01*
X123789285Y-44771428D01*
X123717857Y-44485714D01*
X123646428Y-44342857D01*
X123575000Y-44271428D01*
X123432142Y-44200000D01*
X123289285Y-44200000D01*
X123146428Y-44271428D01*
X123075000Y-44342857D01*
X123003571Y-44485714D01*
X123003571Y-44842857D01*
X123075000Y-45057142D01*
X123717857Y-45700000D02*
X123717857Y-46200000D01*
X124503571Y-46414285D02*
X124503571Y-45700000D01*
X123003571Y-45700000D01*
X123003571Y-46414285D01*
X123003571Y-46842857D02*
X123003571Y-47700000D01*
X124503571Y-47271428D02*
X123003571Y-47271428D01*
X123717857Y-33683035D02*
X123789285Y-33897321D01*
X123860714Y-33968750D01*
X124003571Y-34040178D01*
X124217857Y-34040178D01*
X124360714Y-33968750D01*
X124432142Y-33897321D01*
X124503571Y-33754464D01*
X124503571Y-33183035D01*
X123003571Y-33183035D01*
X123003571Y-33683035D01*
X123075000Y-33825892D01*
X123146428Y-33897321D01*
X123289285Y-33968750D01*
X123432142Y-33968750D01*
X123575000Y-33897321D01*
X123646428Y-33825892D01*
X123717857Y-33683035D01*
X123717857Y-33183035D01*
X123003571Y-34968750D02*
X123003571Y-35254464D01*
X123075000Y-35397321D01*
X123217857Y-35540178D01*
X123503571Y-35611607D01*
X124003571Y-35611607D01*
X124289285Y-35540178D01*
X124432142Y-35397321D01*
X124503571Y-35254464D01*
X124503571Y-34968750D01*
X124432142Y-34825892D01*
X124289285Y-34683035D01*
X124003571Y-34611607D01*
X123503571Y-34611607D01*
X123217857Y-34683035D01*
X123075000Y-34825892D01*
X123003571Y-34968750D01*
X123003571Y-36540178D02*
X123003571Y-36825892D01*
X123075000Y-36968750D01*
X123217857Y-37111607D01*
X123503571Y-37183035D01*
X124003571Y-37183035D01*
X124289285Y-37111607D01*
X124432142Y-36968750D01*
X124503571Y-36825892D01*
X124503571Y-36540178D01*
X124432142Y-36397321D01*
X124289285Y-36254464D01*
X124003571Y-36183035D01*
X123503571Y-36183035D01*
X123217857Y-36254464D01*
X123075000Y-36397321D01*
X123003571Y-36540178D01*
X123003571Y-37611607D02*
X123003571Y-38468750D01*
X124503571Y-38040178D02*
X123003571Y-38040178D01*
D11*
X101090000Y-38262779D02*
X101090000Y-37937221D01*
X102110000Y-38262779D02*
X102110000Y-37937221D01*
X111018750Y-29346250D02*
X113468750Y-29346250D01*
X112818750Y-32566250D02*
X111018750Y-32566250D01*
X88423750Y-34448750D02*
X87788750Y-34448750D01*
X87788750Y-34448750D02*
X87788750Y-35083750D01*
D12*
X145550000Y-30845000D02*
X145550000Y-28845000D01*
X145650000Y-30845000D02*
X145650000Y-28845000D01*
X145750000Y-30845000D02*
X145750000Y-28845000D01*
X146450000Y-30845000D02*
X146250000Y-30845000D01*
X145850000Y-28845000D02*
X145850000Y-30845000D01*
X147050000Y-28845000D02*
X147050000Y-30845000D01*
X145050000Y-28845000D02*
X147050000Y-28845000D01*
X145050000Y-30845000D02*
X145050000Y-28845000D01*
X147050000Y-30845000D02*
X145050000Y-30845000D01*
X187587000Y-24622000D02*
X187587000Y-22622000D01*
X187687000Y-24622000D02*
X187687000Y-22622000D01*
X187787000Y-24622000D02*
X187787000Y-22622000D01*
X188487000Y-24622000D02*
X188287000Y-24622000D01*
X187887000Y-22622000D02*
X187887000Y-24622000D01*
X189087000Y-22622000D02*
X189087000Y-24622000D01*
X187087000Y-22622000D02*
X189087000Y-22622000D01*
X187087000Y-24622000D02*
X187087000Y-22622000D01*
X189087000Y-24622000D02*
X187087000Y-24622000D01*
X194937000Y-62373000D02*
X194937000Y-64373000D01*
X194837000Y-62373000D02*
X194837000Y-64373000D01*
X194737000Y-62373000D02*
X194737000Y-64373000D01*
X194037000Y-62373000D02*
X194237000Y-62373000D01*
X194637000Y-64373000D02*
X194637000Y-62373000D01*
X193437000Y-64373000D02*
X193437000Y-62373000D01*
X195437000Y-64373000D02*
X193437000Y-64373000D01*
X195437000Y-62373000D02*
X195437000Y-64373000D01*
X193437000Y-62373000D02*
X195437000Y-62373000D01*
X146550000Y-68469000D02*
X146550000Y-70469000D01*
X146450000Y-68469000D02*
X146450000Y-70469000D01*
X146350000Y-68469000D02*
X146350000Y-70469000D01*
X145650000Y-68469000D02*
X145850000Y-68469000D01*
X146250000Y-70469000D02*
X146250000Y-68469000D01*
X145050000Y-70469000D02*
X145050000Y-68469000D01*
X147050000Y-70469000D02*
X145050000Y-70469000D01*
X147050000Y-68469000D02*
X147050000Y-70469000D01*
X145050000Y-68469000D02*
X147050000Y-68469000D01*
X104640000Y-74819000D02*
X104640000Y-76819000D01*
X104540000Y-74819000D02*
X104540000Y-76819000D01*
X104440000Y-74819000D02*
X104440000Y-76819000D01*
X103740000Y-74819000D02*
X103940000Y-74819000D01*
X104340000Y-76819000D02*
X104340000Y-74819000D01*
X103140000Y-76819000D02*
X103140000Y-74819000D01*
X105140000Y-76819000D02*
X103140000Y-76819000D01*
X105140000Y-74819000D02*
X105140000Y-76819000D01*
X103140000Y-74819000D02*
X105140000Y-74819000D01*
X67429000Y-69866000D02*
X67429000Y-71866000D01*
X67329000Y-69866000D02*
X67329000Y-71866000D01*
X67229000Y-69866000D02*
X67229000Y-71866000D01*
X66529000Y-69866000D02*
X66729000Y-69866000D01*
X67129000Y-71866000D02*
X67129000Y-69866000D01*
X65929000Y-71866000D02*
X65929000Y-69866000D01*
X67929000Y-71866000D02*
X65929000Y-71866000D01*
X67929000Y-69866000D02*
X67929000Y-71866000D01*
X65929000Y-69866000D02*
X67929000Y-69866000D01*
X32631000Y-64151000D02*
X32631000Y-66151000D01*
X32531000Y-64151000D02*
X32531000Y-66151000D01*
X32431000Y-64151000D02*
X32431000Y-66151000D01*
X31731000Y-64151000D02*
X31931000Y-64151000D01*
X32331000Y-66151000D02*
X32331000Y-64151000D01*
X31131000Y-66151000D02*
X31131000Y-64151000D01*
X33131000Y-66151000D02*
X31131000Y-66151000D01*
X33131000Y-64151000D02*
X33131000Y-66151000D01*
X31131000Y-64151000D02*
X33131000Y-64151000D01*
X30107000Y-25638000D02*
X30107000Y-23638000D01*
X30207000Y-25638000D02*
X30207000Y-23638000D01*
X30307000Y-25638000D02*
X30307000Y-23638000D01*
X31007000Y-25638000D02*
X30807000Y-25638000D01*
X30407000Y-23638000D02*
X30407000Y-25638000D01*
X31607000Y-23638000D02*
X31607000Y-25638000D01*
X29607000Y-23638000D02*
X31607000Y-23638000D01*
X29607000Y-25638000D02*
X29607000Y-23638000D01*
X31607000Y-25638000D02*
X29607000Y-25638000D01*
X66937000Y-32369000D02*
X66937000Y-30369000D01*
X67037000Y-32369000D02*
X67037000Y-30369000D01*
X67137000Y-32369000D02*
X67137000Y-30369000D01*
X67837000Y-32369000D02*
X67637000Y-32369000D01*
X67237000Y-30369000D02*
X67237000Y-32369000D01*
X68437000Y-30369000D02*
X68437000Y-32369000D01*
X66437000Y-30369000D02*
X68437000Y-30369000D01*
X66437000Y-32369000D02*
X66437000Y-30369000D01*
X68437000Y-32369000D02*
X66437000Y-32369000D01*
X96337500Y-35925000D02*
X96337500Y-33925000D01*
X96437500Y-35925000D02*
X96437500Y-33925000D01*
X96537500Y-35925000D02*
X96537500Y-33925000D01*
X97237500Y-35925000D02*
X97037500Y-35925000D01*
X96637500Y-33925000D02*
X96637500Y-35925000D01*
X97837500Y-33925000D02*
X97837500Y-35925000D01*
X95837500Y-33925000D02*
X97837500Y-33925000D01*
X95837500Y-35925000D02*
X95837500Y-33925000D01*
X97837500Y-35925000D02*
X95837500Y-35925000D01*
D11*
X109958564Y-39602983D02*
X107130137Y-42431410D01*
X107625111Y-37269530D02*
X109958564Y-39602983D01*
D12*
X107762113Y-47862874D02*
X106860552Y-46961312D01*
X114674082Y-55588015D02*
X114196785Y-55110718D01*
X121992637Y-48269460D02*
X121515340Y-47792163D01*
X114674082Y-40950905D02*
X115151379Y-41428202D01*
X107355527Y-48269460D02*
X107832824Y-48746757D01*
X114674082Y-40950905D02*
X114196785Y-41428202D01*
X121992637Y-48269460D02*
X121515340Y-48746757D01*
X114674082Y-55588015D02*
X115151379Y-55110718D01*
X107355527Y-48269460D02*
X107762113Y-47862874D01*
D11*
X130543750Y-36968750D02*
X130543750Y-34468750D01*
X128793750Y-38468750D02*
X126793750Y-38468750D01*
X125043750Y-36968750D02*
X125043750Y-34468750D01*
X128793750Y-32968750D02*
X126793750Y-32968750D01*
X130093750Y-37418750D02*
X130543750Y-36968750D01*
X130093750Y-34018750D02*
X130543750Y-34468750D01*
X125493750Y-34018750D02*
X125043750Y-34468750D01*
X125493750Y-37418750D02*
X125043750Y-36968750D01*
X130543750Y-45700000D02*
X130543750Y-43200000D01*
X128793750Y-47200000D02*
X126793750Y-47200000D01*
X125043750Y-45700000D02*
X125043750Y-43200000D01*
X128793750Y-41700000D02*
X126793750Y-41700000D01*
X130093750Y-46150000D02*
X130543750Y-45700000D01*
X130093750Y-42750000D02*
X130543750Y-43200000D01*
X125493750Y-42750000D02*
X125043750Y-43200000D01*
X125493750Y-46150000D02*
X125043750Y-45700000D01*
X114016250Y-37937221D02*
X114016250Y-38262779D01*
X112996250Y-37937221D02*
X112996250Y-38262779D01*
X114583750Y-38262779D02*
X114583750Y-37937221D01*
X115603750Y-38262779D02*
X115603750Y-37937221D01*
X108206000Y-23840221D02*
X108206000Y-24165779D01*
X107186000Y-23840221D02*
X107186000Y-24165779D01*
D12*
X215950000Y-76437500D02*
G75*
G02X214150000Y-78237500I-1800000J0D01*
G01*
X212150000Y-72237500D02*
G75*
G02X210350000Y-74037500I-1800000J0D01*
G01*
X210350000Y-74037500D02*
X204550000Y-74037500D01*
X215950000Y-76437500D02*
X215950000Y-72237500D01*
X204550000Y-78237500D02*
X214150000Y-78237500D01*
X204550000Y-74037500D02*
X204550000Y-78237500D01*
X215950000Y-72237500D02*
X212150000Y-72237500D01*
X180498181Y-76990096D02*
G75*
G02X179038093Y-79075316I-1772654J-312566D01*
G01*
X176026589Y-73513767D02*
G75*
G02X174566501Y-75598987I-1772654J-312566D01*
G01*
X168854616Y-76606146D02*
X169583939Y-80742339D01*
X169583939Y-80742339D02*
X179038093Y-79075316D01*
X180498181Y-76990095D02*
X179768858Y-72853903D01*
X174566501Y-75598987D02*
X168854616Y-76606146D01*
X179768858Y-72853903D02*
X176026589Y-73513766D01*
X145540634Y-78889263D02*
G75*
G02X144080546Y-80974483I-1772654J-312566D01*
G01*
X150012226Y-82365592D02*
G75*
G02X148552138Y-84450812I-1772654J-312566D01*
G01*
X149282903Y-78229399D02*
X145540634Y-78889262D01*
X144080546Y-80974483D02*
X138368661Y-81981642D01*
X150012226Y-82365591D02*
X149282903Y-78229399D01*
X139097984Y-86117835D02*
X148552138Y-84450812D01*
X138368661Y-81981642D02*
X139097984Y-86117835D01*
X87890954Y-83100230D02*
G75*
G02X85805733Y-84560317I-1772654J312567D01*
G01*
X90903901Y-87896285D02*
G75*
G02X88818680Y-89356372I-1772654J312567D01*
G01*
X80093848Y-83553157D02*
X79364526Y-87689350D01*
X79364526Y-87689350D02*
X88818680Y-89356372D01*
X90903901Y-87896285D02*
X91633223Y-83760093D01*
X85805733Y-84560317D02*
X80093848Y-83553157D01*
X91633223Y-83760093D02*
X87890954Y-83100229D01*
X55727799Y-81693789D02*
G75*
G02X53642578Y-83153876I-1772654J312567D01*
G01*
X52714852Y-76897734D02*
G75*
G02X50629631Y-78357821I-1772654J312567D01*
G01*
X44917746Y-77350661D02*
X44188424Y-81486854D01*
X44188424Y-81486854D02*
X53642578Y-83153876D01*
X55727799Y-81693789D02*
X56457121Y-77557597D01*
X50629631Y-78357821D02*
X44917746Y-77350661D01*
X56457121Y-77557597D02*
X52714852Y-76897733D01*
X20687500Y-76437500D02*
G75*
G02X18887500Y-78237500I-1800000J0D01*
G01*
X16887500Y-72237500D02*
G75*
G02X15087500Y-74037500I-1800000J0D01*
G01*
X15087500Y-74037500D02*
X9287500Y-74037500D01*
X20687500Y-76437500D02*
X20687500Y-72237500D01*
X9287500Y-78237500D02*
X18887500Y-78237500D01*
X9287500Y-74037500D02*
X9287500Y-78237500D01*
X20687500Y-72237500D02*
X16887500Y-72237500D01*
X220712500Y-57387500D02*
G75*
G02X218912500Y-59187500I-1800000J0D01*
G01*
X216912500Y-53187500D02*
G75*
G02X215112500Y-54987500I-1800000J0D01*
G01*
X209312500Y-54987500D02*
X209312500Y-59187500D01*
X209312500Y-59187500D02*
X218912500Y-59187500D01*
X220712500Y-57387500D02*
X220712500Y-53187500D01*
X215112500Y-54987500D02*
X209312500Y-54987500D01*
X220712500Y-53187500D02*
X216912500Y-53187500D01*
X195481250Y-53187500D02*
G75*
G02X193681250Y-54987500I-1800000J0D01*
G01*
X199281250Y-57387500D02*
G75*
G02X197481250Y-59187500I-1800000J0D01*
G01*
X187881250Y-54987500D02*
X187881250Y-59187500D01*
X187881250Y-59187500D02*
X197481250Y-59187500D01*
X199281250Y-57387500D02*
X199281250Y-53187500D01*
X193681250Y-54987500D02*
X187881250Y-54987500D01*
X199281250Y-53187500D02*
X195481250Y-53187500D01*
X177190183Y-58229507D02*
G75*
G02X175730095Y-60314727I-1772654J-312566D01*
G01*
X172718591Y-54753178D02*
G75*
G02X171258503Y-56838398I-1772654J-312566D01*
G01*
X165546618Y-57845557D02*
X166275941Y-61981750D01*
X166275941Y-61981750D02*
X175730095Y-60314727D01*
X177190183Y-58229506D02*
X176460860Y-54093314D01*
X171258503Y-56838398D02*
X165546618Y-57845557D01*
X176460860Y-54093314D02*
X172718591Y-54753177D01*
X158429596Y-61537505D02*
G75*
G02X156969508Y-63622725I-1772654J-312566D01*
G01*
X153958004Y-58061176D02*
G75*
G02X152497916Y-60146396I-1772654J-312566D01*
G01*
X146786031Y-61153555D02*
X147515354Y-65289748D01*
X147515354Y-65289748D02*
X156969508Y-63622725D01*
X158429596Y-61537504D02*
X157700273Y-57401312D01*
X152497916Y-60146396D02*
X146786031Y-61153555D01*
X157700273Y-57401312D02*
X153958004Y-58061175D01*
X139669008Y-64845503D02*
G75*
G02X138208920Y-66930723I-1772654J-312566D01*
G01*
X135197416Y-61369174D02*
G75*
G02X133737328Y-63454394I-1772654J-312566D01*
G01*
X128025443Y-64461553D02*
X128754766Y-68597746D01*
X128754766Y-68597746D02*
X138208920Y-66930723D01*
X139669008Y-64845502D02*
X138939685Y-60709310D01*
X133737328Y-63454394D02*
X128025443Y-64461553D01*
X138939685Y-60709310D02*
X135197416Y-61369173D01*
X105937266Y-71203197D02*
G75*
G02X103852045Y-72663284I-1772654J312567D01*
G01*
X102924319Y-66407142D02*
G75*
G02X100839098Y-67867229I-1772654J312567D01*
G01*
X95127213Y-66860069D02*
X94397891Y-70996262D01*
X94397891Y-70996262D02*
X103852045Y-72663284D01*
X105937266Y-71203197D02*
X106666588Y-67067005D01*
X100839098Y-67867229D02*
X95127213Y-66860069D01*
X106666588Y-67067005D02*
X102924319Y-66407141D01*
X87176678Y-67895198D02*
G75*
G02X85091457Y-69355285I-1772654J312567D01*
G01*
X84163731Y-63099143D02*
G75*
G02X82078510Y-64559230I-1772654J312567D01*
G01*
X76366625Y-63552070D02*
X75637303Y-67688263D01*
X75637303Y-67688263D02*
X85091457Y-69355285D01*
X87176678Y-67895198D02*
X87906000Y-63759006D01*
X82078510Y-64559230D02*
X76366625Y-63552070D01*
X87906000Y-63759006D02*
X84163731Y-63099142D01*
X68416091Y-64587201D02*
G75*
G02X66330870Y-66047288I-1772654J312567D01*
G01*
X65403144Y-59791146D02*
G75*
G02X63317923Y-61251233I-1772654J312567D01*
G01*
X57606038Y-60244073D02*
X56876716Y-64380266D01*
X56876716Y-64380266D02*
X66330870Y-66047288D01*
X68416091Y-64587201D02*
X69145413Y-60451009D01*
X63317923Y-61251233D02*
X57606038Y-60244073D01*
X69145413Y-60451009D02*
X65403144Y-59791145D01*
X49655503Y-61279203D02*
G75*
G02X47570282Y-62739290I-1772654J312567D01*
G01*
X46642556Y-56483148D02*
G75*
G02X44557335Y-57943235I-1772654J312567D01*
G01*
X38845450Y-56936075D02*
X38116128Y-61072268D01*
X38116128Y-61072268D02*
X47570282Y-62739290D01*
X49655503Y-61279203D02*
X50384825Y-57143011D01*
X44557335Y-57943235D02*
X38845450Y-56936075D01*
X50384825Y-57143011D02*
X46642556Y-56483147D01*
X19268750Y-53187500D02*
G75*
G02X17468750Y-54987500I-1800000J0D01*
G01*
X23068750Y-57387500D02*
G75*
G02X21268750Y-59187500I-1800000J0D01*
G01*
X11668750Y-54987500D02*
X11668750Y-59187500D01*
X11668750Y-59187500D02*
X21268750Y-59187500D01*
X23068750Y-57387500D02*
X23068750Y-53187500D01*
X17468750Y-54987500D02*
X11668750Y-54987500D01*
X23068750Y-53187500D02*
X19268750Y-53187500D01*
X205958750Y-34137500D02*
G75*
G02X204158750Y-35937500I-1800000J0D01*
G01*
X209758750Y-38337500D02*
G75*
G02X207958750Y-40137500I-1800000J0D01*
G01*
X198358750Y-35937500D02*
X198358750Y-40137500D01*
X198358750Y-40137500D02*
X207958750Y-40137500D01*
X209758750Y-38337500D02*
X209758750Y-34137500D01*
X204158750Y-35937500D02*
X198358750Y-35937500D01*
X209758750Y-34137500D02*
X205958750Y-34137500D01*
X183262479Y-37814921D02*
G75*
G02X181802391Y-39900141I-1772654J-312566D01*
G01*
X178790887Y-34338592D02*
G75*
G02X177330799Y-36423812I-1772654J-312566D01*
G01*
X171618914Y-37430971D02*
X172348237Y-41567164D01*
X172348237Y-41567164D02*
X181802391Y-39900141D01*
X183262479Y-37814920D02*
X182533156Y-33678728D01*
X177330799Y-36423812D02*
X171618914Y-37430971D01*
X182533156Y-33678728D02*
X178790887Y-34338591D01*
X164501892Y-41122919D02*
G75*
G02X163041804Y-43208139I-1772654J-312566D01*
G01*
X160030300Y-37646590D02*
G75*
G02X158570212Y-39731810I-1772654J-312566D01*
G01*
X152858327Y-40738969D02*
X153587650Y-44875162D01*
X153587650Y-44875162D02*
X163041804Y-43208139D01*
X164501892Y-41122918D02*
X163772569Y-36986726D01*
X158570212Y-39731810D02*
X152858327Y-40738969D01*
X163772569Y-36986726D02*
X160030300Y-37646589D01*
X145741303Y-44430917D02*
G75*
G02X144281215Y-46516137I-1772654J-312566D01*
G01*
X141269711Y-40954588D02*
G75*
G02X139809623Y-43039808I-1772654J-312566D01*
G01*
X134097738Y-44046967D02*
X134827061Y-48183160D01*
X134827061Y-48183160D02*
X144281215Y-46516137D01*
X145741303Y-44430916D02*
X145011980Y-40294724D01*
X139809623Y-43039808D02*
X134097738Y-44046967D01*
X145011980Y-40294724D02*
X141269711Y-40954587D01*
X99864970Y-50788610D02*
G75*
G02X97779749Y-52248697I-1772654J312567D01*
G01*
X96852023Y-45992555D02*
G75*
G02X94766802Y-47452642I-1772654J312567D01*
G01*
X89054917Y-46445482D02*
X88325595Y-50581675D01*
X88325595Y-50581675D02*
X97779749Y-52248697D01*
X99864970Y-50788610D02*
X100594292Y-46652418D01*
X94766802Y-47452642D02*
X89054917Y-46445482D01*
X100594292Y-46652418D02*
X96852023Y-45992554D01*
X81104383Y-47480612D02*
G75*
G02X79019162Y-48940699I-1772654J312567D01*
G01*
X78091436Y-42684557D02*
G75*
G02X76006215Y-44144644I-1772654J312567D01*
G01*
X70294330Y-43137484D02*
X69565008Y-47273677D01*
X69565008Y-47273677D02*
X79019162Y-48940699D01*
X81104383Y-47480612D02*
X81833705Y-43344420D01*
X76006215Y-44144644D02*
X70294330Y-43137484D01*
X81833705Y-43344420D02*
X78091436Y-42684556D01*
X62343795Y-44172615D02*
G75*
G02X60258574Y-45632702I-1772654J312567D01*
G01*
X59330848Y-39376560D02*
G75*
G02X57245627Y-40836647I-1772654J312567D01*
G01*
X51533742Y-39829487D02*
X50804420Y-43965680D01*
X50804420Y-43965680D02*
X60258574Y-45632702D01*
X62343795Y-44172615D02*
X63073117Y-40036423D01*
X57245627Y-40836647D02*
X51533742Y-39829487D01*
X63073117Y-40036423D02*
X59330848Y-39376559D01*
X43583207Y-40864617D02*
G75*
G02X41497986Y-42324704I-1772654J312567D01*
G01*
X40570260Y-36068562D02*
G75*
G02X38485039Y-37528649I-1772654J312567D01*
G01*
X32773154Y-36521489D02*
X32043832Y-40657682D01*
X32043832Y-40657682D02*
X41497986Y-42324704D01*
X43583207Y-40864617D02*
X44312529Y-36728425D01*
X38485039Y-37528649D02*
X32773154Y-36521489D01*
X44312529Y-36728425D02*
X40570260Y-36068561D01*
X18316250Y-34137500D02*
G75*
G02X16516250Y-35937500I-1800000J0D01*
G01*
X22116250Y-38337500D02*
G75*
G02X20316250Y-40137500I-1800000J0D01*
G01*
X10716250Y-35937500D02*
X10716250Y-40137500D01*
X10716250Y-40137500D02*
X20316250Y-40137500D01*
X22116250Y-38337500D02*
X22116250Y-34137500D01*
X16516250Y-35937500D02*
X10716250Y-35937500D01*
X22116250Y-34137500D02*
X18316250Y-34137500D01*
X214045000Y-19287500D02*
G75*
G02X212245000Y-21087500I-1800000J0D01*
G01*
X210245000Y-15087500D02*
G75*
G02X208445000Y-16887500I-1800000J0D01*
G01*
X202645000Y-16887500D02*
X202645000Y-21087500D01*
X202645000Y-21087500D02*
X212245000Y-21087500D01*
X214045000Y-19287500D02*
X214045000Y-15087500D01*
X208445000Y-16887500D02*
X202645000Y-16887500D01*
X214045000Y-15087500D02*
X210245000Y-15087500D01*
X194995000Y-18335000D02*
G75*
G02X193195000Y-20135000I-1800000J0D01*
G01*
X191195000Y-14135000D02*
G75*
G02X189395000Y-15935000I-1800000J0D01*
G01*
X183595000Y-15935000D02*
X183595000Y-20135000D01*
X183595000Y-20135000D02*
X193195000Y-20135000D01*
X194995000Y-18335000D02*
X194995000Y-14135000D01*
X189395000Y-15935000D02*
X183595000Y-15935000D01*
X194995000Y-14135000D02*
X191195000Y-14135000D01*
X175264334Y-19881333D02*
G75*
G02X173804246Y-21966553I-1772654J-312566D01*
G01*
X170792742Y-16405004D02*
G75*
G02X169332654Y-18490224I-1772654J-312566D01*
G01*
X163620769Y-19497383D02*
X164350092Y-23633576D01*
X164350092Y-23633576D02*
X173804246Y-21966553D01*
X175264334Y-19881332D02*
X174535011Y-15745140D01*
X169332654Y-18490224D02*
X163620769Y-19497383D01*
X174535011Y-15745140D02*
X170792742Y-16405003D01*
X156503747Y-23189330D02*
G75*
G02X155043659Y-25274550I-1772654J-312566D01*
G01*
X152032155Y-19713001D02*
G75*
G02X150572067Y-21798221I-1772654J-312566D01*
G01*
X144860182Y-22805380D02*
X145589505Y-26941573D01*
X145589505Y-26941573D02*
X155043659Y-25274550D01*
X156503747Y-23189329D02*
X155774424Y-19053137D01*
X150572067Y-21798221D02*
X144860182Y-22805380D01*
X155774424Y-19053137D02*
X152032155Y-19713000D01*
X137743159Y-26497329D02*
G75*
G02X136283071Y-28582549I-1772654J-312566D01*
G01*
X133271567Y-23021000D02*
G75*
G02X131811479Y-25106220I-1772654J-312566D01*
G01*
X126099594Y-26113379D02*
X126828917Y-30249572D01*
X126828917Y-30249572D02*
X136283071Y-28582549D01*
X137743159Y-26497328D02*
X137013836Y-22361136D01*
X131811479Y-25106220D02*
X126099594Y-26113379D01*
X137013836Y-22361136D02*
X133271567Y-23020999D01*
X98482821Y-31201022D02*
G75*
G02X96397600Y-32661109I-1772654J312567D01*
G01*
X95469874Y-26404967D02*
G75*
G02X93384653Y-27865054I-1772654J312567D01*
G01*
X87672768Y-26857894D02*
X86943446Y-30994087D01*
X86943446Y-30994087D02*
X96397600Y-32661109D01*
X98482821Y-31201022D02*
X99212143Y-27064830D01*
X93384653Y-27865054D02*
X87672768Y-26857894D01*
X99212143Y-27064830D02*
X95469874Y-26404966D01*
X79722233Y-27893025D02*
G75*
G02X77637012Y-29353112I-1772654J312567D01*
G01*
X76709286Y-23096970D02*
G75*
G02X74624065Y-24557057I-1772654J312567D01*
G01*
X68912180Y-23549897D02*
X68182858Y-27686090D01*
X68182858Y-27686090D02*
X77637012Y-29353112D01*
X79722233Y-27893025D02*
X80451555Y-23756833D01*
X74624065Y-24557057D02*
X68912180Y-23549897D01*
X80451555Y-23756833D02*
X76709286Y-23096969D01*
X60961646Y-24585027D02*
G75*
G02X58876425Y-26045114I-1772654J312567D01*
G01*
X57948699Y-19788972D02*
G75*
G02X55863478Y-21249059I-1772654J312567D01*
G01*
X50151593Y-20241899D02*
X49422271Y-24378092D01*
X49422271Y-24378092D02*
X58876425Y-26045114D01*
X60961646Y-24585027D02*
X61690968Y-20448835D01*
X55863478Y-21249059D02*
X50151593Y-20241899D01*
X61690968Y-20448835D02*
X57948699Y-19788971D01*
X42201058Y-21277029D02*
G75*
G02X40115837Y-22737116I-1772654J312567D01*
G01*
X39188111Y-16480974D02*
G75*
G02X37102890Y-17941061I-1772654J312567D01*
G01*
X31391005Y-16933901D02*
X30661683Y-21070094D01*
X30661683Y-21070094D02*
X40115837Y-22737116D01*
X42201058Y-21277029D02*
X42930380Y-17140837D01*
X37102890Y-17941061D02*
X31391005Y-16933901D01*
X42930380Y-17140837D02*
X39188111Y-16480973D01*
X22592500Y-19287500D02*
G75*
G02X20792500Y-21087500I-1800000J0D01*
G01*
X18792500Y-15087500D02*
G75*
G02X16992500Y-16887500I-1800000J0D01*
G01*
X11192500Y-16887500D02*
X11192500Y-21087500D01*
X11192500Y-21087500D02*
X20792500Y-21087500D01*
X22592500Y-19287500D02*
X22592500Y-15087500D01*
X16992500Y-16887500D02*
X11192500Y-16887500D01*
X22592500Y-15087500D02*
X18792500Y-15087500D01*
D11*
X109978750Y-18746250D02*
X113858750Y-18746250D01*
X115028750Y-23216250D02*
X113978750Y-23216250D01*
X115028750Y-20716250D02*
X115028750Y-23216250D01*
X109858750Y-23216250D02*
X109858750Y-24206250D01*
X108808750Y-23216250D02*
X109858750Y-23216250D01*
X108808750Y-20716250D02*
X108808750Y-23216250D01*
X106554186Y-32427500D02*
X107758314Y-32427500D01*
X106554186Y-34247500D02*
X107758314Y-34247500D01*
X201025000Y-79243750D02*
X201025000Y-75343750D01*
X199025000Y-79243750D02*
X199025000Y-75343750D01*
X201025000Y-79243750D02*
X199025000Y-79243750D01*
X185943750Y-79243750D02*
X185943750Y-75343750D01*
X183943750Y-79243750D02*
X183943750Y-75343750D01*
X185943750Y-79243750D02*
X183943750Y-79243750D01*
X162131250Y-83212500D02*
X162131250Y-79312500D01*
X160131250Y-83212500D02*
X160131250Y-79312500D01*
X162131250Y-83212500D02*
X160131250Y-83212500D01*
X102600000Y-92737500D02*
X102600000Y-88837500D01*
X100600000Y-92737500D02*
X100600000Y-88837500D01*
X102600000Y-92737500D02*
X100600000Y-92737500D01*
X61325000Y-84800000D02*
X61325000Y-80900000D01*
X59325000Y-84800000D02*
X59325000Y-80900000D01*
X61325000Y-84800000D02*
X59325000Y-84800000D01*
X25606250Y-79243750D02*
X25606250Y-75343750D01*
X23606250Y-79243750D02*
X23606250Y-75343750D01*
X25606250Y-79243750D02*
X23606250Y-79243750D01*
X206581250Y-61781250D02*
X206581250Y-57881250D01*
X204581250Y-61781250D02*
X204581250Y-57881250D01*
X206581250Y-61781250D02*
X204581250Y-61781250D01*
X203406250Y-61781250D02*
X203406250Y-57881250D01*
X201406250Y-61781250D02*
X201406250Y-57881250D01*
X203406250Y-61781250D02*
X201406250Y-61781250D01*
X181181250Y-62575000D02*
X181181250Y-58675000D01*
X179181250Y-62575000D02*
X179181250Y-58675000D01*
X181181250Y-62575000D02*
X179181250Y-62575000D01*
X162131250Y-65750000D02*
X162131250Y-61850000D01*
X160131250Y-65750000D02*
X160131250Y-61850000D01*
X162131250Y-65750000D02*
X160131250Y-65750000D01*
X143081250Y-68925000D02*
X143081250Y-65025000D01*
X141081250Y-68925000D02*
X141081250Y-65025000D01*
X143081250Y-68925000D02*
X141081250Y-68925000D01*
X108950000Y-76862500D02*
X108950000Y-72962500D01*
X106950000Y-76862500D02*
X106950000Y-72962500D01*
X108950000Y-76862500D02*
X106950000Y-76862500D01*
X89900000Y-72893750D02*
X89900000Y-68993750D01*
X87900000Y-72893750D02*
X87900000Y-68993750D01*
X89900000Y-72893750D02*
X87900000Y-72893750D01*
X71643750Y-69718750D02*
X71643750Y-65818750D01*
X69643750Y-69718750D02*
X69643750Y-65818750D01*
X71643750Y-69718750D02*
X69643750Y-69718750D01*
X52593750Y-66543750D02*
X52593750Y-62643750D01*
X50593750Y-66543750D02*
X50593750Y-62643750D01*
X52593750Y-66543750D02*
X50593750Y-66543750D01*
X27193750Y-61781250D02*
X27193750Y-57881250D01*
X25193750Y-61781250D02*
X25193750Y-57881250D01*
X27193750Y-61781250D02*
X25193750Y-61781250D01*
X213725000Y-42731250D02*
X213725000Y-38831250D01*
X211725000Y-42731250D02*
X211725000Y-38831250D01*
X213725000Y-42731250D02*
X211725000Y-42731250D01*
X186737500Y-42731250D02*
X186737500Y-38831250D01*
X184737500Y-42731250D02*
X184737500Y-38831250D01*
X186737500Y-42731250D02*
X184737500Y-42731250D01*
X168481250Y-45906250D02*
X168481250Y-42006250D01*
X166481250Y-45906250D02*
X166481250Y-42006250D01*
X168481250Y-45906250D02*
X166481250Y-45906250D01*
X149431250Y-49081250D02*
X149431250Y-45181250D01*
X147431250Y-49081250D02*
X147431250Y-45181250D01*
X149431250Y-49081250D02*
X147431250Y-49081250D01*
X103393750Y-55431250D02*
X103393750Y-51531250D01*
X101393750Y-55431250D02*
X101393750Y-51531250D01*
X103393750Y-55431250D02*
X101393750Y-55431250D01*
X85137500Y-53050000D02*
X85137500Y-49150000D01*
X83137500Y-53050000D02*
X83137500Y-49150000D01*
X85137500Y-53050000D02*
X83137500Y-53050000D01*
X66087500Y-49875000D02*
X66087500Y-45975000D01*
X64087500Y-49875000D02*
X64087500Y-45975000D01*
X66087500Y-49875000D02*
X64087500Y-49875000D01*
X47831250Y-46700000D02*
X47831250Y-42800000D01*
X45831250Y-46700000D02*
X45831250Y-42800000D01*
X47831250Y-46700000D02*
X45831250Y-46700000D01*
X27193750Y-42731250D02*
X27193750Y-38831250D01*
X25193750Y-42731250D02*
X25193750Y-38831250D01*
X27193750Y-42731250D02*
X25193750Y-42731250D01*
X218487500Y-23681250D02*
X218487500Y-19781250D01*
X216487500Y-23681250D02*
X216487500Y-19781250D01*
X218487500Y-23681250D02*
X216487500Y-23681250D01*
X199437500Y-23681250D02*
X199437500Y-19781250D01*
X197437500Y-23681250D02*
X197437500Y-19781250D01*
X199437500Y-23681250D02*
X197437500Y-23681250D01*
X179593750Y-23681250D02*
X179593750Y-19781250D01*
X177593750Y-23681250D02*
X177593750Y-19781250D01*
X179593750Y-23681250D02*
X177593750Y-23681250D01*
X160543750Y-26856250D02*
X160543750Y-22956250D01*
X158543750Y-26856250D02*
X158543750Y-22956250D01*
X160543750Y-26856250D02*
X158543750Y-26856250D01*
X141493750Y-30825000D02*
X141493750Y-26925000D01*
X139493750Y-30825000D02*
X139493750Y-26925000D01*
X141493750Y-30825000D02*
X139493750Y-30825000D01*
X103393750Y-35587500D02*
X103393750Y-31687500D01*
X101393750Y-35587500D02*
X101393750Y-31687500D01*
X103393750Y-35587500D02*
X101393750Y-35587500D01*
X84343750Y-34000000D02*
X84343750Y-30100000D01*
X82343750Y-34000000D02*
X82343750Y-30100000D01*
X84343750Y-34000000D02*
X82343750Y-34000000D01*
X46243750Y-26856250D02*
X46243750Y-22956250D01*
X44243750Y-26856250D02*
X44243750Y-22956250D01*
X46243750Y-26856250D02*
X44243750Y-26856250D01*
X27193750Y-23681250D02*
X27193750Y-19781250D01*
X25193750Y-23681250D02*
X25193750Y-19781250D01*
X27193750Y-23681250D02*
X25193750Y-23681250D01*
X116887500Y-30031250D02*
X116887500Y-26131250D01*
X114887500Y-30031250D02*
X114887500Y-26131250D01*
X116887500Y-30031250D02*
X114887500Y-30031250D01*
X119268750Y-30031250D02*
X119268750Y-26131250D01*
X117268750Y-30031250D02*
X117268750Y-26131250D01*
X119268750Y-30031250D02*
X117268750Y-30031250D01*
X65293750Y-30031250D02*
X65293750Y-26131250D01*
X63293750Y-30031250D02*
X63293750Y-26131250D01*
X65293750Y-30031250D02*
X63293750Y-30031250D01*
X119537046Y-41166138D02*
X119171362Y-40800454D01*
X120541138Y-40162046D02*
X120175454Y-39796362D01*
X107704478Y-55244477D02*
X107474273Y-55014272D01*
X108425727Y-54523228D02*
X108195522Y-54293023D01*
X121919477Y-55014272D02*
X121689272Y-55244477D01*
X121198228Y-54293023D02*
X120968023Y-54523228D01*
X104325772Y-43132527D02*
X104095567Y-42902322D01*
X105047021Y-42411278D02*
X104816816Y-42181073D01*
X110429476Y-36568413D02*
X110659681Y-36798618D01*
X109708227Y-37289662D02*
X109938432Y-37519867D01*
D12*
X103482380Y-37933333D02*
X103006190Y-37600000D01*
X103482380Y-37361904D02*
X102482380Y-37361904D01*
X102482380Y-37742857D01*
X102530000Y-37838095D01*
X102577619Y-37885714D01*
X102672857Y-37933333D01*
X102815714Y-37933333D01*
X102910952Y-37885714D01*
X102958571Y-37838095D01*
X103006190Y-37742857D01*
X103006190Y-37361904D01*
X102815714Y-38790476D02*
X103482380Y-38790476D01*
X102434761Y-38552380D02*
X103149047Y-38314285D01*
X103149047Y-38933333D01*
X112680654Y-27508630D02*
X112680654Y-28318154D01*
X112633035Y-28413392D01*
X112585416Y-28461011D01*
X112490178Y-28508630D01*
X112299702Y-28508630D01*
X112204464Y-28461011D01*
X112156845Y-28413392D01*
X112109226Y-28318154D01*
X112109226Y-27508630D01*
X111680654Y-27603869D02*
X111633035Y-27556250D01*
X111537797Y-27508630D01*
X111299702Y-27508630D01*
X111204464Y-27556250D01*
X111156845Y-27603869D01*
X111109226Y-27699107D01*
X111109226Y-27794345D01*
X111156845Y-27937202D01*
X111728273Y-28508630D01*
X111109226Y-28508630D01*
X90027083Y-32471130D02*
X90027083Y-33185416D01*
X90074702Y-33328273D01*
X90169940Y-33423511D01*
X90312797Y-33471130D01*
X90408035Y-33471130D01*
X89598511Y-32566369D02*
X89550892Y-32518750D01*
X89455654Y-32471130D01*
X89217559Y-32471130D01*
X89122321Y-32518750D01*
X89074702Y-32566369D01*
X89027083Y-32661607D01*
X89027083Y-32756845D01*
X89074702Y-32899702D01*
X89646130Y-33471130D01*
X89027083Y-33471130D01*
X147692857Y-32297380D02*
X148026190Y-31821190D01*
X148264285Y-32297380D02*
X148264285Y-31297380D01*
X147883333Y-31297380D01*
X147788095Y-31345000D01*
X147740476Y-31392619D01*
X147692857Y-31487857D01*
X147692857Y-31630714D01*
X147740476Y-31725952D01*
X147788095Y-31773571D01*
X147883333Y-31821190D01*
X148264285Y-31821190D01*
X146740476Y-31345000D02*
X146835714Y-31297380D01*
X146978571Y-31297380D01*
X147121428Y-31345000D01*
X147216666Y-31440238D01*
X147264285Y-31535476D01*
X147311904Y-31725952D01*
X147311904Y-31868809D01*
X147264285Y-32059285D01*
X147216666Y-32154523D01*
X147121428Y-32249761D01*
X146978571Y-32297380D01*
X146883333Y-32297380D01*
X146740476Y-32249761D01*
X146692857Y-32202142D01*
X146692857Y-31868809D01*
X146883333Y-31868809D01*
X145930952Y-31773571D02*
X145788095Y-31821190D01*
X145740476Y-31868809D01*
X145692857Y-31964047D01*
X145692857Y-32106904D01*
X145740476Y-32202142D01*
X145788095Y-32249761D01*
X145883333Y-32297380D01*
X146264285Y-32297380D01*
X146264285Y-31297380D01*
X145930952Y-31297380D01*
X145835714Y-31345000D01*
X145788095Y-31392619D01*
X145740476Y-31487857D01*
X145740476Y-31583095D01*
X145788095Y-31678333D01*
X145835714Y-31725952D01*
X145930952Y-31773571D01*
X146264285Y-31773571D01*
X144740476Y-32297380D02*
X145311904Y-32297380D01*
X145026190Y-32297380D02*
X145026190Y-31297380D01*
X145121428Y-31440238D01*
X145216666Y-31535476D01*
X145311904Y-31583095D01*
X144121428Y-31297380D02*
X144026190Y-31297380D01*
X143930952Y-31345000D01*
X143883333Y-31392619D01*
X143835714Y-31487857D01*
X143788095Y-31678333D01*
X143788095Y-31916428D01*
X143835714Y-32106904D01*
X143883333Y-32202142D01*
X143930952Y-32249761D01*
X144026190Y-32297380D01*
X144121428Y-32297380D01*
X144216666Y-32249761D01*
X144264285Y-32202142D01*
X144311904Y-32106904D01*
X144359523Y-31916428D01*
X144359523Y-31678333D01*
X144311904Y-31487857D01*
X144264285Y-31392619D01*
X144216666Y-31345000D01*
X144121428Y-31297380D01*
X143964285Y-30897380D02*
X144535714Y-30897380D01*
X144250000Y-30897380D02*
X144250000Y-29897380D01*
X144345238Y-30040238D01*
X144440476Y-30135476D01*
X144535714Y-30183095D01*
X189253666Y-26074380D02*
X189587000Y-25598190D01*
X189825095Y-26074380D02*
X189825095Y-25074380D01*
X189444142Y-25074380D01*
X189348904Y-25122000D01*
X189301285Y-25169619D01*
X189253666Y-25264857D01*
X189253666Y-25407714D01*
X189301285Y-25502952D01*
X189348904Y-25550571D01*
X189444142Y-25598190D01*
X189825095Y-25598190D01*
X188301285Y-25122000D02*
X188396523Y-25074380D01*
X188539380Y-25074380D01*
X188682238Y-25122000D01*
X188777476Y-25217238D01*
X188825095Y-25312476D01*
X188872714Y-25502952D01*
X188872714Y-25645809D01*
X188825095Y-25836285D01*
X188777476Y-25931523D01*
X188682238Y-26026761D01*
X188539380Y-26074380D01*
X188444142Y-26074380D01*
X188301285Y-26026761D01*
X188253666Y-25979142D01*
X188253666Y-25645809D01*
X188444142Y-25645809D01*
X187491761Y-25550571D02*
X187348904Y-25598190D01*
X187301285Y-25645809D01*
X187253666Y-25741047D01*
X187253666Y-25883904D01*
X187301285Y-25979142D01*
X187348904Y-26026761D01*
X187444142Y-26074380D01*
X187825095Y-26074380D01*
X187825095Y-25074380D01*
X187491761Y-25074380D01*
X187396523Y-25122000D01*
X187348904Y-25169619D01*
X187301285Y-25264857D01*
X187301285Y-25360095D01*
X187348904Y-25455333D01*
X187396523Y-25502952D01*
X187491761Y-25550571D01*
X187825095Y-25550571D01*
X186777476Y-26074380D02*
X186587000Y-26074380D01*
X186491761Y-26026761D01*
X186444142Y-25979142D01*
X186348904Y-25836285D01*
X186301285Y-25645809D01*
X186301285Y-25264857D01*
X186348904Y-25169619D01*
X186396523Y-25122000D01*
X186491761Y-25074380D01*
X186682238Y-25074380D01*
X186777476Y-25122000D01*
X186825095Y-25169619D01*
X186872714Y-25264857D01*
X186872714Y-25502952D01*
X186825095Y-25598190D01*
X186777476Y-25645809D01*
X186682238Y-25693428D01*
X186491761Y-25693428D01*
X186396523Y-25645809D01*
X186348904Y-25598190D01*
X186301285Y-25502952D01*
X186001285Y-24674380D02*
X186572714Y-24674380D01*
X186287000Y-24674380D02*
X186287000Y-23674380D01*
X186382238Y-23817238D01*
X186477476Y-23912476D01*
X186572714Y-23960095D01*
X195603666Y-61825380D02*
X195937000Y-61349190D01*
X196175095Y-61825380D02*
X196175095Y-60825380D01*
X195794142Y-60825380D01*
X195698904Y-60873000D01*
X195651285Y-60920619D01*
X195603666Y-61015857D01*
X195603666Y-61158714D01*
X195651285Y-61253952D01*
X195698904Y-61301571D01*
X195794142Y-61349190D01*
X196175095Y-61349190D01*
X194651285Y-60873000D02*
X194746523Y-60825380D01*
X194889380Y-60825380D01*
X195032238Y-60873000D01*
X195127476Y-60968238D01*
X195175095Y-61063476D01*
X195222714Y-61253952D01*
X195222714Y-61396809D01*
X195175095Y-61587285D01*
X195127476Y-61682523D01*
X195032238Y-61777761D01*
X194889380Y-61825380D01*
X194794142Y-61825380D01*
X194651285Y-61777761D01*
X194603666Y-61730142D01*
X194603666Y-61396809D01*
X194794142Y-61396809D01*
X193841761Y-61301571D02*
X193698904Y-61349190D01*
X193651285Y-61396809D01*
X193603666Y-61492047D01*
X193603666Y-61634904D01*
X193651285Y-61730142D01*
X193698904Y-61777761D01*
X193794142Y-61825380D01*
X194175095Y-61825380D01*
X194175095Y-60825380D01*
X193841761Y-60825380D01*
X193746523Y-60873000D01*
X193698904Y-60920619D01*
X193651285Y-61015857D01*
X193651285Y-61111095D01*
X193698904Y-61206333D01*
X193746523Y-61253952D01*
X193841761Y-61301571D01*
X194175095Y-61301571D01*
X193032238Y-61253952D02*
X193127476Y-61206333D01*
X193175095Y-61158714D01*
X193222714Y-61063476D01*
X193222714Y-61015857D01*
X193175095Y-60920619D01*
X193127476Y-60873000D01*
X193032238Y-60825380D01*
X192841761Y-60825380D01*
X192746523Y-60873000D01*
X192698904Y-60920619D01*
X192651285Y-61015857D01*
X192651285Y-61063476D01*
X192698904Y-61158714D01*
X192746523Y-61206333D01*
X192841761Y-61253952D01*
X193032238Y-61253952D01*
X193127476Y-61301571D01*
X193175095Y-61349190D01*
X193222714Y-61444428D01*
X193222714Y-61634904D01*
X193175095Y-61730142D01*
X193127476Y-61777761D01*
X193032238Y-61825380D01*
X192841761Y-61825380D01*
X192746523Y-61777761D01*
X192698904Y-61730142D01*
X192651285Y-61634904D01*
X192651285Y-61444428D01*
X192698904Y-61349190D01*
X192746523Y-61301571D01*
X192841761Y-61253952D01*
X195951285Y-63225380D02*
X196522714Y-63225380D01*
X196237000Y-63225380D02*
X196237000Y-62225380D01*
X196332238Y-62368238D01*
X196427476Y-62463476D01*
X196522714Y-62511095D01*
X147216666Y-67921380D02*
X147550000Y-67445190D01*
X147788095Y-67921380D02*
X147788095Y-66921380D01*
X147407142Y-66921380D01*
X147311904Y-66969000D01*
X147264285Y-67016619D01*
X147216666Y-67111857D01*
X147216666Y-67254714D01*
X147264285Y-67349952D01*
X147311904Y-67397571D01*
X147407142Y-67445190D01*
X147788095Y-67445190D01*
X146264285Y-66969000D02*
X146359523Y-66921380D01*
X146502380Y-66921380D01*
X146645238Y-66969000D01*
X146740476Y-67064238D01*
X146788095Y-67159476D01*
X146835714Y-67349952D01*
X146835714Y-67492809D01*
X146788095Y-67683285D01*
X146740476Y-67778523D01*
X146645238Y-67873761D01*
X146502380Y-67921380D01*
X146407142Y-67921380D01*
X146264285Y-67873761D01*
X146216666Y-67826142D01*
X146216666Y-67492809D01*
X146407142Y-67492809D01*
X145454761Y-67397571D02*
X145311904Y-67445190D01*
X145264285Y-67492809D01*
X145216666Y-67588047D01*
X145216666Y-67730904D01*
X145264285Y-67826142D01*
X145311904Y-67873761D01*
X145407142Y-67921380D01*
X145788095Y-67921380D01*
X145788095Y-66921380D01*
X145454761Y-66921380D01*
X145359523Y-66969000D01*
X145311904Y-67016619D01*
X145264285Y-67111857D01*
X145264285Y-67207095D01*
X145311904Y-67302333D01*
X145359523Y-67349952D01*
X145454761Y-67397571D01*
X145788095Y-67397571D01*
X144883333Y-66921380D02*
X144216666Y-66921380D01*
X144645238Y-67921380D01*
X147564285Y-69321380D02*
X148135714Y-69321380D01*
X147850000Y-69321380D02*
X147850000Y-68321380D01*
X147945238Y-68464238D01*
X148040476Y-68559476D01*
X148135714Y-68607095D01*
X105306666Y-74271380D02*
X105640000Y-73795190D01*
X105878095Y-74271380D02*
X105878095Y-73271380D01*
X105497142Y-73271380D01*
X105401904Y-73319000D01*
X105354285Y-73366619D01*
X105306666Y-73461857D01*
X105306666Y-73604714D01*
X105354285Y-73699952D01*
X105401904Y-73747571D01*
X105497142Y-73795190D01*
X105878095Y-73795190D01*
X104354285Y-73319000D02*
X104449523Y-73271380D01*
X104592380Y-73271380D01*
X104735238Y-73319000D01*
X104830476Y-73414238D01*
X104878095Y-73509476D01*
X104925714Y-73699952D01*
X104925714Y-73842809D01*
X104878095Y-74033285D01*
X104830476Y-74128523D01*
X104735238Y-74223761D01*
X104592380Y-74271380D01*
X104497142Y-74271380D01*
X104354285Y-74223761D01*
X104306666Y-74176142D01*
X104306666Y-73842809D01*
X104497142Y-73842809D01*
X103544761Y-73747571D02*
X103401904Y-73795190D01*
X103354285Y-73842809D01*
X103306666Y-73938047D01*
X103306666Y-74080904D01*
X103354285Y-74176142D01*
X103401904Y-74223761D01*
X103497142Y-74271380D01*
X103878095Y-74271380D01*
X103878095Y-73271380D01*
X103544761Y-73271380D01*
X103449523Y-73319000D01*
X103401904Y-73366619D01*
X103354285Y-73461857D01*
X103354285Y-73557095D01*
X103401904Y-73652333D01*
X103449523Y-73699952D01*
X103544761Y-73747571D01*
X103878095Y-73747571D01*
X102449523Y-73271380D02*
X102640000Y-73271380D01*
X102735238Y-73319000D01*
X102782857Y-73366619D01*
X102878095Y-73509476D01*
X102925714Y-73699952D01*
X102925714Y-74080904D01*
X102878095Y-74176142D01*
X102830476Y-74223761D01*
X102735238Y-74271380D01*
X102544761Y-74271380D01*
X102449523Y-74223761D01*
X102401904Y-74176142D01*
X102354285Y-74080904D01*
X102354285Y-73842809D01*
X102401904Y-73747571D01*
X102449523Y-73699952D01*
X102544761Y-73652333D01*
X102735238Y-73652333D01*
X102830476Y-73699952D01*
X102878095Y-73747571D01*
X102925714Y-73842809D01*
X105654285Y-75671380D02*
X106225714Y-75671380D01*
X105940000Y-75671380D02*
X105940000Y-74671380D01*
X106035238Y-74814238D01*
X106130476Y-74909476D01*
X106225714Y-74957095D01*
X68095666Y-69318380D02*
X68429000Y-68842190D01*
X68667095Y-69318380D02*
X68667095Y-68318380D01*
X68286142Y-68318380D01*
X68190904Y-68366000D01*
X68143285Y-68413619D01*
X68095666Y-68508857D01*
X68095666Y-68651714D01*
X68143285Y-68746952D01*
X68190904Y-68794571D01*
X68286142Y-68842190D01*
X68667095Y-68842190D01*
X67143285Y-68366000D02*
X67238523Y-68318380D01*
X67381380Y-68318380D01*
X67524238Y-68366000D01*
X67619476Y-68461238D01*
X67667095Y-68556476D01*
X67714714Y-68746952D01*
X67714714Y-68889809D01*
X67667095Y-69080285D01*
X67619476Y-69175523D01*
X67524238Y-69270761D01*
X67381380Y-69318380D01*
X67286142Y-69318380D01*
X67143285Y-69270761D01*
X67095666Y-69223142D01*
X67095666Y-68889809D01*
X67286142Y-68889809D01*
X66333761Y-68794571D02*
X66190904Y-68842190D01*
X66143285Y-68889809D01*
X66095666Y-68985047D01*
X66095666Y-69127904D01*
X66143285Y-69223142D01*
X66190904Y-69270761D01*
X66286142Y-69318380D01*
X66667095Y-69318380D01*
X66667095Y-68318380D01*
X66333761Y-68318380D01*
X66238523Y-68366000D01*
X66190904Y-68413619D01*
X66143285Y-68508857D01*
X66143285Y-68604095D01*
X66190904Y-68699333D01*
X66238523Y-68746952D01*
X66333761Y-68794571D01*
X66667095Y-68794571D01*
X65190904Y-68318380D02*
X65667095Y-68318380D01*
X65714714Y-68794571D01*
X65667095Y-68746952D01*
X65571857Y-68699333D01*
X65333761Y-68699333D01*
X65238523Y-68746952D01*
X65190904Y-68794571D01*
X65143285Y-68889809D01*
X65143285Y-69127904D01*
X65190904Y-69223142D01*
X65238523Y-69270761D01*
X65333761Y-69318380D01*
X65571857Y-69318380D01*
X65667095Y-69270761D01*
X65714714Y-69223142D01*
X68443285Y-70718380D02*
X69014714Y-70718380D01*
X68729000Y-70718380D02*
X68729000Y-69718380D01*
X68824238Y-69861238D01*
X68919476Y-69956476D01*
X69014714Y-70004095D01*
X33297666Y-63603380D02*
X33631000Y-63127190D01*
X33869095Y-63603380D02*
X33869095Y-62603380D01*
X33488142Y-62603380D01*
X33392904Y-62651000D01*
X33345285Y-62698619D01*
X33297666Y-62793857D01*
X33297666Y-62936714D01*
X33345285Y-63031952D01*
X33392904Y-63079571D01*
X33488142Y-63127190D01*
X33869095Y-63127190D01*
X32345285Y-62651000D02*
X32440523Y-62603380D01*
X32583380Y-62603380D01*
X32726238Y-62651000D01*
X32821476Y-62746238D01*
X32869095Y-62841476D01*
X32916714Y-63031952D01*
X32916714Y-63174809D01*
X32869095Y-63365285D01*
X32821476Y-63460523D01*
X32726238Y-63555761D01*
X32583380Y-63603380D01*
X32488142Y-63603380D01*
X32345285Y-63555761D01*
X32297666Y-63508142D01*
X32297666Y-63174809D01*
X32488142Y-63174809D01*
X31535761Y-63079571D02*
X31392904Y-63127190D01*
X31345285Y-63174809D01*
X31297666Y-63270047D01*
X31297666Y-63412904D01*
X31345285Y-63508142D01*
X31392904Y-63555761D01*
X31488142Y-63603380D01*
X31869095Y-63603380D01*
X31869095Y-62603380D01*
X31535761Y-62603380D01*
X31440523Y-62651000D01*
X31392904Y-62698619D01*
X31345285Y-62793857D01*
X31345285Y-62889095D01*
X31392904Y-62984333D01*
X31440523Y-63031952D01*
X31535761Y-63079571D01*
X31869095Y-63079571D01*
X30440523Y-62936714D02*
X30440523Y-63603380D01*
X30678619Y-62555761D02*
X30916714Y-63270047D01*
X30297666Y-63270047D01*
X33645285Y-65003380D02*
X34216714Y-65003380D01*
X33931000Y-65003380D02*
X33931000Y-64003380D01*
X34026238Y-64146238D01*
X34121476Y-64241476D01*
X34216714Y-64289095D01*
X31773666Y-27090380D02*
X32107000Y-26614190D01*
X32345095Y-27090380D02*
X32345095Y-26090380D01*
X31964142Y-26090380D01*
X31868904Y-26138000D01*
X31821285Y-26185619D01*
X31773666Y-26280857D01*
X31773666Y-26423714D01*
X31821285Y-26518952D01*
X31868904Y-26566571D01*
X31964142Y-26614190D01*
X32345095Y-26614190D01*
X30821285Y-26138000D02*
X30916523Y-26090380D01*
X31059380Y-26090380D01*
X31202238Y-26138000D01*
X31297476Y-26233238D01*
X31345095Y-26328476D01*
X31392714Y-26518952D01*
X31392714Y-26661809D01*
X31345095Y-26852285D01*
X31297476Y-26947523D01*
X31202238Y-27042761D01*
X31059380Y-27090380D01*
X30964142Y-27090380D01*
X30821285Y-27042761D01*
X30773666Y-26995142D01*
X30773666Y-26661809D01*
X30964142Y-26661809D01*
X30011761Y-26566571D02*
X29868904Y-26614190D01*
X29821285Y-26661809D01*
X29773666Y-26757047D01*
X29773666Y-26899904D01*
X29821285Y-26995142D01*
X29868904Y-27042761D01*
X29964142Y-27090380D01*
X30345095Y-27090380D01*
X30345095Y-26090380D01*
X30011761Y-26090380D01*
X29916523Y-26138000D01*
X29868904Y-26185619D01*
X29821285Y-26280857D01*
X29821285Y-26376095D01*
X29868904Y-26471333D01*
X29916523Y-26518952D01*
X30011761Y-26566571D01*
X30345095Y-26566571D01*
X29440333Y-26090380D02*
X28821285Y-26090380D01*
X29154619Y-26471333D01*
X29011761Y-26471333D01*
X28916523Y-26518952D01*
X28868904Y-26566571D01*
X28821285Y-26661809D01*
X28821285Y-26899904D01*
X28868904Y-26995142D01*
X28916523Y-27042761D01*
X29011761Y-27090380D01*
X29297476Y-27090380D01*
X29392714Y-27042761D01*
X29440333Y-26995142D01*
X28521285Y-25690380D02*
X29092714Y-25690380D01*
X28807000Y-25690380D02*
X28807000Y-24690380D01*
X28902238Y-24833238D01*
X28997476Y-24928476D01*
X29092714Y-24976095D01*
X68603666Y-33821380D02*
X68937000Y-33345190D01*
X69175095Y-33821380D02*
X69175095Y-32821380D01*
X68794142Y-32821380D01*
X68698904Y-32869000D01*
X68651285Y-32916619D01*
X68603666Y-33011857D01*
X68603666Y-33154714D01*
X68651285Y-33249952D01*
X68698904Y-33297571D01*
X68794142Y-33345190D01*
X69175095Y-33345190D01*
X67651285Y-32869000D02*
X67746523Y-32821380D01*
X67889380Y-32821380D01*
X68032238Y-32869000D01*
X68127476Y-32964238D01*
X68175095Y-33059476D01*
X68222714Y-33249952D01*
X68222714Y-33392809D01*
X68175095Y-33583285D01*
X68127476Y-33678523D01*
X68032238Y-33773761D01*
X67889380Y-33821380D01*
X67794142Y-33821380D01*
X67651285Y-33773761D01*
X67603666Y-33726142D01*
X67603666Y-33392809D01*
X67794142Y-33392809D01*
X66841761Y-33297571D02*
X66698904Y-33345190D01*
X66651285Y-33392809D01*
X66603666Y-33488047D01*
X66603666Y-33630904D01*
X66651285Y-33726142D01*
X66698904Y-33773761D01*
X66794142Y-33821380D01*
X67175095Y-33821380D01*
X67175095Y-32821380D01*
X66841761Y-32821380D01*
X66746523Y-32869000D01*
X66698904Y-32916619D01*
X66651285Y-33011857D01*
X66651285Y-33107095D01*
X66698904Y-33202333D01*
X66746523Y-33249952D01*
X66841761Y-33297571D01*
X67175095Y-33297571D01*
X66222714Y-32916619D02*
X66175095Y-32869000D01*
X66079857Y-32821380D01*
X65841761Y-32821380D01*
X65746523Y-32869000D01*
X65698904Y-32916619D01*
X65651285Y-33011857D01*
X65651285Y-33107095D01*
X65698904Y-33249952D01*
X66270333Y-33821380D01*
X65651285Y-33821380D01*
X65351285Y-32421380D02*
X65922714Y-32421380D01*
X65637000Y-32421380D02*
X65637000Y-31421380D01*
X65732238Y-31564238D01*
X65827476Y-31659476D01*
X65922714Y-31707095D01*
X98004166Y-37377380D02*
X98337500Y-36901190D01*
X98575595Y-37377380D02*
X98575595Y-36377380D01*
X98194642Y-36377380D01*
X98099404Y-36425000D01*
X98051785Y-36472619D01*
X98004166Y-36567857D01*
X98004166Y-36710714D01*
X98051785Y-36805952D01*
X98099404Y-36853571D01*
X98194642Y-36901190D01*
X98575595Y-36901190D01*
X97051785Y-36425000D02*
X97147023Y-36377380D01*
X97289880Y-36377380D01*
X97432738Y-36425000D01*
X97527976Y-36520238D01*
X97575595Y-36615476D01*
X97623214Y-36805952D01*
X97623214Y-36948809D01*
X97575595Y-37139285D01*
X97527976Y-37234523D01*
X97432738Y-37329761D01*
X97289880Y-37377380D01*
X97194642Y-37377380D01*
X97051785Y-37329761D01*
X97004166Y-37282142D01*
X97004166Y-36948809D01*
X97194642Y-36948809D01*
X96242261Y-36853571D02*
X96099404Y-36901190D01*
X96051785Y-36948809D01*
X96004166Y-37044047D01*
X96004166Y-37186904D01*
X96051785Y-37282142D01*
X96099404Y-37329761D01*
X96194642Y-37377380D01*
X96575595Y-37377380D01*
X96575595Y-36377380D01*
X96242261Y-36377380D01*
X96147023Y-36425000D01*
X96099404Y-36472619D01*
X96051785Y-36567857D01*
X96051785Y-36663095D01*
X96099404Y-36758333D01*
X96147023Y-36805952D01*
X96242261Y-36853571D01*
X96575595Y-36853571D01*
X95051785Y-37377380D02*
X95623214Y-37377380D01*
X95337500Y-37377380D02*
X95337500Y-36377380D01*
X95432738Y-36520238D01*
X95527976Y-36615476D01*
X95623214Y-36663095D01*
X94751785Y-35977380D02*
X95323214Y-35977380D01*
X95037500Y-35977380D02*
X95037500Y-34977380D01*
X95132738Y-35120238D01*
X95227976Y-35215476D01*
X95323214Y-35263095D01*
X105965093Y-37764504D02*
X106301811Y-38101222D01*
X105830406Y-37158413D02*
X105965093Y-37764504D01*
X105359002Y-37629817D01*
X105460017Y-38943015D02*
X105864078Y-38538954D01*
X105662047Y-38740985D02*
X104954941Y-38033878D01*
X105123299Y-38067550D01*
X105257986Y-38067550D01*
X105359002Y-38033878D01*
X110332109Y-53688928D02*
X109759689Y-54261348D01*
X109658674Y-54295020D01*
X109591330Y-54295020D01*
X109490315Y-54261348D01*
X109355628Y-54126661D01*
X109321956Y-54025646D01*
X109321956Y-53958302D01*
X109355628Y-53857287D01*
X109928048Y-53284867D01*
X108513834Y-53284867D02*
X108917895Y-53688928D01*
X108715865Y-53486898D02*
X109422971Y-52779791D01*
X109389300Y-52948150D01*
X109389300Y-53082837D01*
X109422971Y-53183852D01*
X113958630Y-35552083D02*
X113482440Y-35218750D01*
X113958630Y-34980654D02*
X112958630Y-34980654D01*
X112958630Y-35361607D01*
X113006250Y-35456845D01*
X113053869Y-35504464D01*
X113149107Y-35552083D01*
X113291964Y-35552083D01*
X113387202Y-35504464D01*
X113434821Y-35456845D01*
X113482440Y-35361607D01*
X113482440Y-34980654D01*
X112958630Y-35885416D02*
X112958630Y-36504464D01*
X113339583Y-36171130D01*
X113339583Y-36313988D01*
X113387202Y-36409226D01*
X113434821Y-36456845D01*
X113530059Y-36504464D01*
X113768154Y-36504464D01*
X113863392Y-36456845D01*
X113911011Y-36409226D01*
X113958630Y-36313988D01*
X113958630Y-36028273D01*
X113911011Y-35933035D01*
X113863392Y-35885416D01*
X115546130Y-35552083D02*
X115069940Y-35218750D01*
X115546130Y-34980654D02*
X114546130Y-34980654D01*
X114546130Y-35361607D01*
X114593750Y-35456845D01*
X114641369Y-35504464D01*
X114736607Y-35552083D01*
X114879464Y-35552083D01*
X114974702Y-35504464D01*
X115022321Y-35456845D01*
X115069940Y-35361607D01*
X115069940Y-34980654D01*
X114641369Y-35933035D02*
X114593750Y-35980654D01*
X114546130Y-36075892D01*
X114546130Y-36313988D01*
X114593750Y-36409226D01*
X114641369Y-36456845D01*
X114736607Y-36504464D01*
X114831845Y-36504464D01*
X114974702Y-36456845D01*
X115546130Y-35885416D01*
X115546130Y-36504464D01*
X106718380Y-23836333D02*
X106242190Y-23503000D01*
X106718380Y-23264904D02*
X105718380Y-23264904D01*
X105718380Y-23645857D01*
X105766000Y-23741095D01*
X105813619Y-23788714D01*
X105908857Y-23836333D01*
X106051714Y-23836333D01*
X106146952Y-23788714D01*
X106194571Y-23741095D01*
X106242190Y-23645857D01*
X106242190Y-23264904D01*
X106718380Y-24788714D02*
X106718380Y-24217285D01*
X106718380Y-24503000D02*
X105718380Y-24503000D01*
X105861238Y-24407761D01*
X105956476Y-24312523D01*
X106004095Y-24217285D01*
X112252083Y-24863630D02*
X112252083Y-25577916D01*
X112299702Y-25720773D01*
X112394940Y-25816011D01*
X112537797Y-25863630D01*
X112633035Y-25863630D01*
X111252083Y-25863630D02*
X111823511Y-25863630D01*
X111537797Y-25863630D02*
X111537797Y-24863630D01*
X111633035Y-25006488D01*
X111728273Y-25101726D01*
X111823511Y-25149345D01*
X107489583Y-35086071D02*
X107822916Y-35086071D01*
X107822916Y-35609880D02*
X107822916Y-34609880D01*
X107346726Y-34609880D01*
X106441964Y-35609880D02*
X107013392Y-35609880D01*
X106727678Y-35609880D02*
X106727678Y-34609880D01*
X106822916Y-34752738D01*
X106918154Y-34847976D01*
X107013392Y-34895595D01*
X198096130Y-75779464D02*
X197096130Y-75779464D01*
X197096130Y-76017559D01*
X197143750Y-76160416D01*
X197238988Y-76255654D01*
X197334226Y-76303273D01*
X197524702Y-76350892D01*
X197667559Y-76350892D01*
X197858035Y-76303273D01*
X197953273Y-76255654D01*
X198048511Y-76160416D01*
X198096130Y-76017559D01*
X198096130Y-75779464D01*
X197096130Y-76684226D02*
X197096130Y-77303273D01*
X197477083Y-76969940D01*
X197477083Y-77112797D01*
X197524702Y-77208035D01*
X197572321Y-77255654D01*
X197667559Y-77303273D01*
X197905654Y-77303273D01*
X198000892Y-77255654D01*
X198048511Y-77208035D01*
X198096130Y-77112797D01*
X198096130Y-76827083D01*
X198048511Y-76731845D01*
X198000892Y-76684226D01*
X197096130Y-77636607D02*
X197096130Y-78303273D01*
X198096130Y-77874702D01*
X187396130Y-75779464D02*
X186396130Y-75779464D01*
X186396130Y-76017559D01*
X186443750Y-76160416D01*
X186538988Y-76255654D01*
X186634226Y-76303273D01*
X186824702Y-76350892D01*
X186967559Y-76350892D01*
X187158035Y-76303273D01*
X187253273Y-76255654D01*
X187348511Y-76160416D01*
X187396130Y-76017559D01*
X187396130Y-75779464D01*
X186396130Y-76684226D02*
X186396130Y-77303273D01*
X186777083Y-76969940D01*
X186777083Y-77112797D01*
X186824702Y-77208035D01*
X186872321Y-77255654D01*
X186967559Y-77303273D01*
X187205654Y-77303273D01*
X187300892Y-77255654D01*
X187348511Y-77208035D01*
X187396130Y-77112797D01*
X187396130Y-76827083D01*
X187348511Y-76731845D01*
X187300892Y-76684226D01*
X186396130Y-78160416D02*
X186396130Y-77969940D01*
X186443750Y-77874702D01*
X186491369Y-77827083D01*
X186634226Y-77731845D01*
X186824702Y-77684226D01*
X187205654Y-77684226D01*
X187300892Y-77731845D01*
X187348511Y-77779464D01*
X187396130Y-77874702D01*
X187396130Y-78065178D01*
X187348511Y-78160416D01*
X187300892Y-78208035D01*
X187205654Y-78255654D01*
X186967559Y-78255654D01*
X186872321Y-78208035D01*
X186824702Y-78160416D01*
X186777083Y-78065178D01*
X186777083Y-77874702D01*
X186824702Y-77779464D01*
X186872321Y-77731845D01*
X186967559Y-77684226D01*
X163583630Y-79748214D02*
X162583630Y-79748214D01*
X162583630Y-79986309D01*
X162631250Y-80129166D01*
X162726488Y-80224404D01*
X162821726Y-80272023D01*
X163012202Y-80319642D01*
X163155059Y-80319642D01*
X163345535Y-80272023D01*
X163440773Y-80224404D01*
X163536011Y-80129166D01*
X163583630Y-79986309D01*
X163583630Y-79748214D01*
X162583630Y-80652976D02*
X162583630Y-81272023D01*
X162964583Y-80938690D01*
X162964583Y-81081547D01*
X163012202Y-81176785D01*
X163059821Y-81224404D01*
X163155059Y-81272023D01*
X163393154Y-81272023D01*
X163488392Y-81224404D01*
X163536011Y-81176785D01*
X163583630Y-81081547D01*
X163583630Y-80795833D01*
X163536011Y-80700595D01*
X163488392Y-80652976D01*
X162583630Y-82176785D02*
X162583630Y-81700595D01*
X163059821Y-81652976D01*
X163012202Y-81700595D01*
X162964583Y-81795833D01*
X162964583Y-82033928D01*
X163012202Y-82129166D01*
X163059821Y-82176785D01*
X163155059Y-82224404D01*
X163393154Y-82224404D01*
X163488392Y-82176785D01*
X163536011Y-82129166D01*
X163583630Y-82033928D01*
X163583630Y-81795833D01*
X163536011Y-81700595D01*
X163488392Y-81652976D01*
X104052380Y-89273214D02*
X103052380Y-89273214D01*
X103052380Y-89511309D01*
X103100000Y-89654166D01*
X103195238Y-89749404D01*
X103290476Y-89797023D01*
X103480952Y-89844642D01*
X103623809Y-89844642D01*
X103814285Y-89797023D01*
X103909523Y-89749404D01*
X104004761Y-89654166D01*
X104052380Y-89511309D01*
X104052380Y-89273214D01*
X103052380Y-90177976D02*
X103052380Y-90797023D01*
X103433333Y-90463690D01*
X103433333Y-90606547D01*
X103480952Y-90701785D01*
X103528571Y-90749404D01*
X103623809Y-90797023D01*
X103861904Y-90797023D01*
X103957142Y-90749404D01*
X104004761Y-90701785D01*
X104052380Y-90606547D01*
X104052380Y-90320833D01*
X104004761Y-90225595D01*
X103957142Y-90177976D01*
X103385714Y-91654166D02*
X104052380Y-91654166D01*
X103004761Y-91416071D02*
X103719047Y-91177976D01*
X103719047Y-91797023D01*
X62777380Y-81335714D02*
X61777380Y-81335714D01*
X61777380Y-81573809D01*
X61825000Y-81716666D01*
X61920238Y-81811904D01*
X62015476Y-81859523D01*
X62205952Y-81907142D01*
X62348809Y-81907142D01*
X62539285Y-81859523D01*
X62634523Y-81811904D01*
X62729761Y-81716666D01*
X62777380Y-81573809D01*
X62777380Y-81335714D01*
X61777380Y-82240476D02*
X61777380Y-82859523D01*
X62158333Y-82526190D01*
X62158333Y-82669047D01*
X62205952Y-82764285D01*
X62253571Y-82811904D01*
X62348809Y-82859523D01*
X62586904Y-82859523D01*
X62682142Y-82811904D01*
X62729761Y-82764285D01*
X62777380Y-82669047D01*
X62777380Y-82383333D01*
X62729761Y-82288095D01*
X62682142Y-82240476D01*
X61777380Y-83192857D02*
X61777380Y-83811904D01*
X62158333Y-83478571D01*
X62158333Y-83621428D01*
X62205952Y-83716666D01*
X62253571Y-83764285D01*
X62348809Y-83811904D01*
X62586904Y-83811904D01*
X62682142Y-83764285D01*
X62729761Y-83716666D01*
X62777380Y-83621428D01*
X62777380Y-83335714D01*
X62729761Y-83240476D01*
X62682142Y-83192857D01*
X27058630Y-75779464D02*
X26058630Y-75779464D01*
X26058630Y-76017559D01*
X26106250Y-76160416D01*
X26201488Y-76255654D01*
X26296726Y-76303273D01*
X26487202Y-76350892D01*
X26630059Y-76350892D01*
X26820535Y-76303273D01*
X26915773Y-76255654D01*
X27011011Y-76160416D01*
X27058630Y-76017559D01*
X27058630Y-75779464D01*
X26058630Y-76684226D02*
X26058630Y-77303273D01*
X26439583Y-76969940D01*
X26439583Y-77112797D01*
X26487202Y-77208035D01*
X26534821Y-77255654D01*
X26630059Y-77303273D01*
X26868154Y-77303273D01*
X26963392Y-77255654D01*
X27011011Y-77208035D01*
X27058630Y-77112797D01*
X27058630Y-76827083D01*
X27011011Y-76731845D01*
X26963392Y-76684226D01*
X26153869Y-77684226D02*
X26106250Y-77731845D01*
X26058630Y-77827083D01*
X26058630Y-78065178D01*
X26106250Y-78160416D01*
X26153869Y-78208035D01*
X26249107Y-78255654D01*
X26344345Y-78255654D01*
X26487202Y-78208035D01*
X27058630Y-77636607D01*
X27058630Y-78255654D01*
X206795535Y-63158630D02*
X206795535Y-62158630D01*
X206557440Y-62158630D01*
X206414583Y-62206250D01*
X206319345Y-62301488D01*
X206271726Y-62396726D01*
X206224107Y-62587202D01*
X206224107Y-62730059D01*
X206271726Y-62920535D01*
X206319345Y-63015773D01*
X206414583Y-63111011D01*
X206557440Y-63158630D01*
X206795535Y-63158630D01*
X205890773Y-62158630D02*
X205271726Y-62158630D01*
X205605059Y-62539583D01*
X205462202Y-62539583D01*
X205366964Y-62587202D01*
X205319345Y-62634821D01*
X205271726Y-62730059D01*
X205271726Y-62968154D01*
X205319345Y-63063392D01*
X205366964Y-63111011D01*
X205462202Y-63158630D01*
X205747916Y-63158630D01*
X205843154Y-63111011D01*
X205890773Y-63063392D01*
X204319345Y-63158630D02*
X204890773Y-63158630D01*
X204605059Y-63158630D02*
X204605059Y-62158630D01*
X204700297Y-62301488D01*
X204795535Y-62396726D01*
X204890773Y-62444345D01*
X203620535Y-63158630D02*
X203620535Y-62158630D01*
X203382440Y-62158630D01*
X203239583Y-62206250D01*
X203144345Y-62301488D01*
X203096726Y-62396726D01*
X203049107Y-62587202D01*
X203049107Y-62730059D01*
X203096726Y-62920535D01*
X203144345Y-63015773D01*
X203239583Y-63111011D01*
X203382440Y-63158630D01*
X203620535Y-63158630D01*
X202715773Y-62158630D02*
X202096726Y-62158630D01*
X202430059Y-62539583D01*
X202287202Y-62539583D01*
X202191964Y-62587202D01*
X202144345Y-62634821D01*
X202096726Y-62730059D01*
X202096726Y-62968154D01*
X202144345Y-63063392D01*
X202191964Y-63111011D01*
X202287202Y-63158630D01*
X202572916Y-63158630D01*
X202668154Y-63111011D01*
X202715773Y-63063392D01*
X201477678Y-62158630D02*
X201382440Y-62158630D01*
X201287202Y-62206250D01*
X201239583Y-62253869D01*
X201191964Y-62349107D01*
X201144345Y-62539583D01*
X201144345Y-62777678D01*
X201191964Y-62968154D01*
X201239583Y-63063392D01*
X201287202Y-63111011D01*
X201382440Y-63158630D01*
X201477678Y-63158630D01*
X201572916Y-63111011D01*
X201620535Y-63063392D01*
X201668154Y-62968154D01*
X201715773Y-62777678D01*
X201715773Y-62539583D01*
X201668154Y-62349107D01*
X201620535Y-62253869D01*
X201572916Y-62206250D01*
X201477678Y-62158630D01*
X181395535Y-63952380D02*
X181395535Y-62952380D01*
X181157440Y-62952380D01*
X181014583Y-63000000D01*
X180919345Y-63095238D01*
X180871726Y-63190476D01*
X180824107Y-63380952D01*
X180824107Y-63523809D01*
X180871726Y-63714285D01*
X180919345Y-63809523D01*
X181014583Y-63904761D01*
X181157440Y-63952380D01*
X181395535Y-63952380D01*
X180443154Y-63047619D02*
X180395535Y-63000000D01*
X180300297Y-62952380D01*
X180062202Y-62952380D01*
X179966964Y-63000000D01*
X179919345Y-63047619D01*
X179871726Y-63142857D01*
X179871726Y-63238095D01*
X179919345Y-63380952D01*
X180490773Y-63952380D01*
X179871726Y-63952380D01*
X179395535Y-63952380D02*
X179205059Y-63952380D01*
X179109821Y-63904761D01*
X179062202Y-63857142D01*
X178966964Y-63714285D01*
X178919345Y-63523809D01*
X178919345Y-63142857D01*
X178966964Y-63047619D01*
X179014583Y-63000000D01*
X179109821Y-62952380D01*
X179300297Y-62952380D01*
X179395535Y-63000000D01*
X179443154Y-63047619D01*
X179490773Y-63142857D01*
X179490773Y-63380952D01*
X179443154Y-63476190D01*
X179395535Y-63523809D01*
X179300297Y-63571428D01*
X179109821Y-63571428D01*
X179014583Y-63523809D01*
X178966964Y-63476190D01*
X178919345Y-63380952D01*
X162345535Y-67127380D02*
X162345535Y-66127380D01*
X162107440Y-66127380D01*
X161964583Y-66175000D01*
X161869345Y-66270238D01*
X161821726Y-66365476D01*
X161774107Y-66555952D01*
X161774107Y-66698809D01*
X161821726Y-66889285D01*
X161869345Y-66984523D01*
X161964583Y-67079761D01*
X162107440Y-67127380D01*
X162345535Y-67127380D01*
X161393154Y-66222619D02*
X161345535Y-66175000D01*
X161250297Y-66127380D01*
X161012202Y-66127380D01*
X160916964Y-66175000D01*
X160869345Y-66222619D01*
X160821726Y-66317857D01*
X160821726Y-66413095D01*
X160869345Y-66555952D01*
X161440773Y-67127380D01*
X160821726Y-67127380D01*
X160250297Y-66555952D02*
X160345535Y-66508333D01*
X160393154Y-66460714D01*
X160440773Y-66365476D01*
X160440773Y-66317857D01*
X160393154Y-66222619D01*
X160345535Y-66175000D01*
X160250297Y-66127380D01*
X160059821Y-66127380D01*
X159964583Y-66175000D01*
X159916964Y-66222619D01*
X159869345Y-66317857D01*
X159869345Y-66365476D01*
X159916964Y-66460714D01*
X159964583Y-66508333D01*
X160059821Y-66555952D01*
X160250297Y-66555952D01*
X160345535Y-66603571D01*
X160393154Y-66651190D01*
X160440773Y-66746428D01*
X160440773Y-66936904D01*
X160393154Y-67032142D01*
X160345535Y-67079761D01*
X160250297Y-67127380D01*
X160059821Y-67127380D01*
X159964583Y-67079761D01*
X159916964Y-67032142D01*
X159869345Y-66936904D01*
X159869345Y-66746428D01*
X159916964Y-66651190D01*
X159964583Y-66603571D01*
X160059821Y-66555952D01*
X143295535Y-70302380D02*
X143295535Y-69302380D01*
X143057440Y-69302380D01*
X142914583Y-69350000D01*
X142819345Y-69445238D01*
X142771726Y-69540476D01*
X142724107Y-69730952D01*
X142724107Y-69873809D01*
X142771726Y-70064285D01*
X142819345Y-70159523D01*
X142914583Y-70254761D01*
X143057440Y-70302380D01*
X143295535Y-70302380D01*
X142343154Y-69397619D02*
X142295535Y-69350000D01*
X142200297Y-69302380D01*
X141962202Y-69302380D01*
X141866964Y-69350000D01*
X141819345Y-69397619D01*
X141771726Y-69492857D01*
X141771726Y-69588095D01*
X141819345Y-69730952D01*
X142390773Y-70302380D01*
X141771726Y-70302380D01*
X141438392Y-69302380D02*
X140771726Y-69302380D01*
X141200297Y-70302380D01*
X109164285Y-78239880D02*
X109164285Y-77239880D01*
X108926190Y-77239880D01*
X108783333Y-77287500D01*
X108688095Y-77382738D01*
X108640476Y-77477976D01*
X108592857Y-77668452D01*
X108592857Y-77811309D01*
X108640476Y-78001785D01*
X108688095Y-78097023D01*
X108783333Y-78192261D01*
X108926190Y-78239880D01*
X109164285Y-78239880D01*
X108211904Y-77335119D02*
X108164285Y-77287500D01*
X108069047Y-77239880D01*
X107830952Y-77239880D01*
X107735714Y-77287500D01*
X107688095Y-77335119D01*
X107640476Y-77430357D01*
X107640476Y-77525595D01*
X107688095Y-77668452D01*
X108259523Y-78239880D01*
X107640476Y-78239880D01*
X106783333Y-77239880D02*
X106973809Y-77239880D01*
X107069047Y-77287500D01*
X107116666Y-77335119D01*
X107211904Y-77477976D01*
X107259523Y-77668452D01*
X107259523Y-78049404D01*
X107211904Y-78144642D01*
X107164285Y-78192261D01*
X107069047Y-78239880D01*
X106878571Y-78239880D01*
X106783333Y-78192261D01*
X106735714Y-78144642D01*
X106688095Y-78049404D01*
X106688095Y-77811309D01*
X106735714Y-77716071D01*
X106783333Y-77668452D01*
X106878571Y-77620833D01*
X107069047Y-77620833D01*
X107164285Y-77668452D01*
X107211904Y-77716071D01*
X107259523Y-77811309D01*
X90114285Y-74271130D02*
X90114285Y-73271130D01*
X89876190Y-73271130D01*
X89733333Y-73318750D01*
X89638095Y-73413988D01*
X89590476Y-73509226D01*
X89542857Y-73699702D01*
X89542857Y-73842559D01*
X89590476Y-74033035D01*
X89638095Y-74128273D01*
X89733333Y-74223511D01*
X89876190Y-74271130D01*
X90114285Y-74271130D01*
X89161904Y-73366369D02*
X89114285Y-73318750D01*
X89019047Y-73271130D01*
X88780952Y-73271130D01*
X88685714Y-73318750D01*
X88638095Y-73366369D01*
X88590476Y-73461607D01*
X88590476Y-73556845D01*
X88638095Y-73699702D01*
X89209523Y-74271130D01*
X88590476Y-74271130D01*
X87685714Y-73271130D02*
X88161904Y-73271130D01*
X88209523Y-73747321D01*
X88161904Y-73699702D01*
X88066666Y-73652083D01*
X87828571Y-73652083D01*
X87733333Y-73699702D01*
X87685714Y-73747321D01*
X87638095Y-73842559D01*
X87638095Y-74080654D01*
X87685714Y-74175892D01*
X87733333Y-74223511D01*
X87828571Y-74271130D01*
X88066666Y-74271130D01*
X88161904Y-74223511D01*
X88209523Y-74175892D01*
X71858035Y-71096130D02*
X71858035Y-70096130D01*
X71619940Y-70096130D01*
X71477083Y-70143750D01*
X71381845Y-70238988D01*
X71334226Y-70334226D01*
X71286607Y-70524702D01*
X71286607Y-70667559D01*
X71334226Y-70858035D01*
X71381845Y-70953273D01*
X71477083Y-71048511D01*
X71619940Y-71096130D01*
X71858035Y-71096130D01*
X70905654Y-70191369D02*
X70858035Y-70143750D01*
X70762797Y-70096130D01*
X70524702Y-70096130D01*
X70429464Y-70143750D01*
X70381845Y-70191369D01*
X70334226Y-70286607D01*
X70334226Y-70381845D01*
X70381845Y-70524702D01*
X70953273Y-71096130D01*
X70334226Y-71096130D01*
X69477083Y-70429464D02*
X69477083Y-71096130D01*
X69715178Y-70048511D02*
X69953273Y-70762797D01*
X69334226Y-70762797D01*
X52808035Y-67921130D02*
X52808035Y-66921130D01*
X52569940Y-66921130D01*
X52427083Y-66968750D01*
X52331845Y-67063988D01*
X52284226Y-67159226D01*
X52236607Y-67349702D01*
X52236607Y-67492559D01*
X52284226Y-67683035D01*
X52331845Y-67778273D01*
X52427083Y-67873511D01*
X52569940Y-67921130D01*
X52808035Y-67921130D01*
X51855654Y-67016369D02*
X51808035Y-66968750D01*
X51712797Y-66921130D01*
X51474702Y-66921130D01*
X51379464Y-66968750D01*
X51331845Y-67016369D01*
X51284226Y-67111607D01*
X51284226Y-67206845D01*
X51331845Y-67349702D01*
X51903273Y-67921130D01*
X51284226Y-67921130D01*
X50950892Y-66921130D02*
X50331845Y-66921130D01*
X50665178Y-67302083D01*
X50522321Y-67302083D01*
X50427083Y-67349702D01*
X50379464Y-67397321D01*
X50331845Y-67492559D01*
X50331845Y-67730654D01*
X50379464Y-67825892D01*
X50427083Y-67873511D01*
X50522321Y-67921130D01*
X50808035Y-67921130D01*
X50903273Y-67873511D01*
X50950892Y-67825892D01*
X27408035Y-63158630D02*
X27408035Y-62158630D01*
X27169940Y-62158630D01*
X27027083Y-62206250D01*
X26931845Y-62301488D01*
X26884226Y-62396726D01*
X26836607Y-62587202D01*
X26836607Y-62730059D01*
X26884226Y-62920535D01*
X26931845Y-63015773D01*
X27027083Y-63111011D01*
X27169940Y-63158630D01*
X27408035Y-63158630D01*
X26455654Y-62253869D02*
X26408035Y-62206250D01*
X26312797Y-62158630D01*
X26074702Y-62158630D01*
X25979464Y-62206250D01*
X25931845Y-62253869D01*
X25884226Y-62349107D01*
X25884226Y-62444345D01*
X25931845Y-62587202D01*
X26503273Y-63158630D01*
X25884226Y-63158630D01*
X25503273Y-62253869D02*
X25455654Y-62206250D01*
X25360416Y-62158630D01*
X25122321Y-62158630D01*
X25027083Y-62206250D01*
X24979464Y-62253869D01*
X24931845Y-62349107D01*
X24931845Y-62444345D01*
X24979464Y-62587202D01*
X25550892Y-63158630D01*
X24931845Y-63158630D01*
X213939285Y-44108630D02*
X213939285Y-43108630D01*
X213701190Y-43108630D01*
X213558333Y-43156250D01*
X213463095Y-43251488D01*
X213415476Y-43346726D01*
X213367857Y-43537202D01*
X213367857Y-43680059D01*
X213415476Y-43870535D01*
X213463095Y-43965773D01*
X213558333Y-44061011D01*
X213701190Y-44108630D01*
X213939285Y-44108630D01*
X212986904Y-43203869D02*
X212939285Y-43156250D01*
X212844047Y-43108630D01*
X212605952Y-43108630D01*
X212510714Y-43156250D01*
X212463095Y-43203869D01*
X212415476Y-43299107D01*
X212415476Y-43394345D01*
X212463095Y-43537202D01*
X213034523Y-44108630D01*
X212415476Y-44108630D01*
X211463095Y-44108630D02*
X212034523Y-44108630D01*
X211748809Y-44108630D02*
X211748809Y-43108630D01*
X211844047Y-43251488D01*
X211939285Y-43346726D01*
X212034523Y-43394345D01*
X186951785Y-44108630D02*
X186951785Y-43108630D01*
X186713690Y-43108630D01*
X186570833Y-43156250D01*
X186475595Y-43251488D01*
X186427976Y-43346726D01*
X186380357Y-43537202D01*
X186380357Y-43680059D01*
X186427976Y-43870535D01*
X186475595Y-43965773D01*
X186570833Y-44061011D01*
X186713690Y-44108630D01*
X186951785Y-44108630D01*
X185999404Y-43203869D02*
X185951785Y-43156250D01*
X185856547Y-43108630D01*
X185618452Y-43108630D01*
X185523214Y-43156250D01*
X185475595Y-43203869D01*
X185427976Y-43299107D01*
X185427976Y-43394345D01*
X185475595Y-43537202D01*
X186047023Y-44108630D01*
X185427976Y-44108630D01*
X184808928Y-43108630D02*
X184713690Y-43108630D01*
X184618452Y-43156250D01*
X184570833Y-43203869D01*
X184523214Y-43299107D01*
X184475595Y-43489583D01*
X184475595Y-43727678D01*
X184523214Y-43918154D01*
X184570833Y-44013392D01*
X184618452Y-44061011D01*
X184713690Y-44108630D01*
X184808928Y-44108630D01*
X184904166Y-44061011D01*
X184951785Y-44013392D01*
X184999404Y-43918154D01*
X185047023Y-43727678D01*
X185047023Y-43489583D01*
X184999404Y-43299107D01*
X184951785Y-43203869D01*
X184904166Y-43156250D01*
X184808928Y-43108630D01*
X168695535Y-47283630D02*
X168695535Y-46283630D01*
X168457440Y-46283630D01*
X168314583Y-46331250D01*
X168219345Y-46426488D01*
X168171726Y-46521726D01*
X168124107Y-46712202D01*
X168124107Y-46855059D01*
X168171726Y-47045535D01*
X168219345Y-47140773D01*
X168314583Y-47236011D01*
X168457440Y-47283630D01*
X168695535Y-47283630D01*
X167171726Y-47283630D02*
X167743154Y-47283630D01*
X167457440Y-47283630D02*
X167457440Y-46283630D01*
X167552678Y-46426488D01*
X167647916Y-46521726D01*
X167743154Y-46569345D01*
X166695535Y-47283630D02*
X166505059Y-47283630D01*
X166409821Y-47236011D01*
X166362202Y-47188392D01*
X166266964Y-47045535D01*
X166219345Y-46855059D01*
X166219345Y-46474107D01*
X166266964Y-46378869D01*
X166314583Y-46331250D01*
X166409821Y-46283630D01*
X166600297Y-46283630D01*
X166695535Y-46331250D01*
X166743154Y-46378869D01*
X166790773Y-46474107D01*
X166790773Y-46712202D01*
X166743154Y-46807440D01*
X166695535Y-46855059D01*
X166600297Y-46902678D01*
X166409821Y-46902678D01*
X166314583Y-46855059D01*
X166266964Y-46807440D01*
X166219345Y-46712202D01*
X149645535Y-50458630D02*
X149645535Y-49458630D01*
X149407440Y-49458630D01*
X149264583Y-49506250D01*
X149169345Y-49601488D01*
X149121726Y-49696726D01*
X149074107Y-49887202D01*
X149074107Y-50030059D01*
X149121726Y-50220535D01*
X149169345Y-50315773D01*
X149264583Y-50411011D01*
X149407440Y-50458630D01*
X149645535Y-50458630D01*
X148121726Y-50458630D02*
X148693154Y-50458630D01*
X148407440Y-50458630D02*
X148407440Y-49458630D01*
X148502678Y-49601488D01*
X148597916Y-49696726D01*
X148693154Y-49744345D01*
X147550297Y-49887202D02*
X147645535Y-49839583D01*
X147693154Y-49791964D01*
X147740773Y-49696726D01*
X147740773Y-49649107D01*
X147693154Y-49553869D01*
X147645535Y-49506250D01*
X147550297Y-49458630D01*
X147359821Y-49458630D01*
X147264583Y-49506250D01*
X147216964Y-49553869D01*
X147169345Y-49649107D01*
X147169345Y-49696726D01*
X147216964Y-49791964D01*
X147264583Y-49839583D01*
X147359821Y-49887202D01*
X147550297Y-49887202D01*
X147645535Y-49934821D01*
X147693154Y-49982440D01*
X147740773Y-50077678D01*
X147740773Y-50268154D01*
X147693154Y-50363392D01*
X147645535Y-50411011D01*
X147550297Y-50458630D01*
X147359821Y-50458630D01*
X147264583Y-50411011D01*
X147216964Y-50363392D01*
X147169345Y-50268154D01*
X147169345Y-50077678D01*
X147216964Y-49982440D01*
X147264583Y-49934821D01*
X147359821Y-49887202D01*
X103608035Y-56808630D02*
X103608035Y-55808630D01*
X103369940Y-55808630D01*
X103227083Y-55856250D01*
X103131845Y-55951488D01*
X103084226Y-56046726D01*
X103036607Y-56237202D01*
X103036607Y-56380059D01*
X103084226Y-56570535D01*
X103131845Y-56665773D01*
X103227083Y-56761011D01*
X103369940Y-56808630D01*
X103608035Y-56808630D01*
X102084226Y-56808630D02*
X102655654Y-56808630D01*
X102369940Y-56808630D02*
X102369940Y-55808630D01*
X102465178Y-55951488D01*
X102560416Y-56046726D01*
X102655654Y-56094345D01*
X101750892Y-55808630D02*
X101084226Y-55808630D01*
X101512797Y-56808630D01*
X85351785Y-54427380D02*
X85351785Y-53427380D01*
X85113690Y-53427380D01*
X84970833Y-53475000D01*
X84875595Y-53570238D01*
X84827976Y-53665476D01*
X84780357Y-53855952D01*
X84780357Y-53998809D01*
X84827976Y-54189285D01*
X84875595Y-54284523D01*
X84970833Y-54379761D01*
X85113690Y-54427380D01*
X85351785Y-54427380D01*
X83827976Y-54427380D02*
X84399404Y-54427380D01*
X84113690Y-54427380D02*
X84113690Y-53427380D01*
X84208928Y-53570238D01*
X84304166Y-53665476D01*
X84399404Y-53713095D01*
X82970833Y-53427380D02*
X83161309Y-53427380D01*
X83256547Y-53475000D01*
X83304166Y-53522619D01*
X83399404Y-53665476D01*
X83447023Y-53855952D01*
X83447023Y-54236904D01*
X83399404Y-54332142D01*
X83351785Y-54379761D01*
X83256547Y-54427380D01*
X83066071Y-54427380D01*
X82970833Y-54379761D01*
X82923214Y-54332142D01*
X82875595Y-54236904D01*
X82875595Y-53998809D01*
X82923214Y-53903571D01*
X82970833Y-53855952D01*
X83066071Y-53808333D01*
X83256547Y-53808333D01*
X83351785Y-53855952D01*
X83399404Y-53903571D01*
X83447023Y-53998809D01*
X66301785Y-51252380D02*
X66301785Y-50252380D01*
X66063690Y-50252380D01*
X65920833Y-50300000D01*
X65825595Y-50395238D01*
X65777976Y-50490476D01*
X65730357Y-50680952D01*
X65730357Y-50823809D01*
X65777976Y-51014285D01*
X65825595Y-51109523D01*
X65920833Y-51204761D01*
X66063690Y-51252380D01*
X66301785Y-51252380D01*
X64777976Y-51252380D02*
X65349404Y-51252380D01*
X65063690Y-51252380D02*
X65063690Y-50252380D01*
X65158928Y-50395238D01*
X65254166Y-50490476D01*
X65349404Y-50538095D01*
X63873214Y-50252380D02*
X64349404Y-50252380D01*
X64397023Y-50728571D01*
X64349404Y-50680952D01*
X64254166Y-50633333D01*
X64016071Y-50633333D01*
X63920833Y-50680952D01*
X63873214Y-50728571D01*
X63825595Y-50823809D01*
X63825595Y-51061904D01*
X63873214Y-51157142D01*
X63920833Y-51204761D01*
X64016071Y-51252380D01*
X64254166Y-51252380D01*
X64349404Y-51204761D01*
X64397023Y-51157142D01*
X48045535Y-48077380D02*
X48045535Y-47077380D01*
X47807440Y-47077380D01*
X47664583Y-47125000D01*
X47569345Y-47220238D01*
X47521726Y-47315476D01*
X47474107Y-47505952D01*
X47474107Y-47648809D01*
X47521726Y-47839285D01*
X47569345Y-47934523D01*
X47664583Y-48029761D01*
X47807440Y-48077380D01*
X48045535Y-48077380D01*
X46521726Y-48077380D02*
X47093154Y-48077380D01*
X46807440Y-48077380D02*
X46807440Y-47077380D01*
X46902678Y-47220238D01*
X46997916Y-47315476D01*
X47093154Y-47363095D01*
X45664583Y-47410714D02*
X45664583Y-48077380D01*
X45902678Y-47029761D02*
X46140773Y-47744047D01*
X45521726Y-47744047D01*
X27408035Y-44108630D02*
X27408035Y-43108630D01*
X27169940Y-43108630D01*
X27027083Y-43156250D01*
X26931845Y-43251488D01*
X26884226Y-43346726D01*
X26836607Y-43537202D01*
X26836607Y-43680059D01*
X26884226Y-43870535D01*
X26931845Y-43965773D01*
X27027083Y-44061011D01*
X27169940Y-44108630D01*
X27408035Y-44108630D01*
X25884226Y-44108630D02*
X26455654Y-44108630D01*
X26169940Y-44108630D02*
X26169940Y-43108630D01*
X26265178Y-43251488D01*
X26360416Y-43346726D01*
X26455654Y-43394345D01*
X25550892Y-43108630D02*
X24931845Y-43108630D01*
X25265178Y-43489583D01*
X25122321Y-43489583D01*
X25027083Y-43537202D01*
X24979464Y-43584821D01*
X24931845Y-43680059D01*
X24931845Y-43918154D01*
X24979464Y-44013392D01*
X25027083Y-44061011D01*
X25122321Y-44108630D01*
X25408035Y-44108630D01*
X25503273Y-44061011D01*
X25550892Y-44013392D01*
X218701785Y-25058630D02*
X218701785Y-24058630D01*
X218463690Y-24058630D01*
X218320833Y-24106250D01*
X218225595Y-24201488D01*
X218177976Y-24296726D01*
X218130357Y-24487202D01*
X218130357Y-24630059D01*
X218177976Y-24820535D01*
X218225595Y-24915773D01*
X218320833Y-25011011D01*
X218463690Y-25058630D01*
X218701785Y-25058630D01*
X217177976Y-25058630D02*
X217749404Y-25058630D01*
X217463690Y-25058630D02*
X217463690Y-24058630D01*
X217558928Y-24201488D01*
X217654166Y-24296726D01*
X217749404Y-24344345D01*
X216797023Y-24153869D02*
X216749404Y-24106250D01*
X216654166Y-24058630D01*
X216416071Y-24058630D01*
X216320833Y-24106250D01*
X216273214Y-24153869D01*
X216225595Y-24249107D01*
X216225595Y-24344345D01*
X216273214Y-24487202D01*
X216844642Y-25058630D01*
X216225595Y-25058630D01*
X199651785Y-25058630D02*
X199651785Y-24058630D01*
X199413690Y-24058630D01*
X199270833Y-24106250D01*
X199175595Y-24201488D01*
X199127976Y-24296726D01*
X199080357Y-24487202D01*
X199080357Y-24630059D01*
X199127976Y-24820535D01*
X199175595Y-24915773D01*
X199270833Y-25011011D01*
X199413690Y-25058630D01*
X199651785Y-25058630D01*
X198127976Y-25058630D02*
X198699404Y-25058630D01*
X198413690Y-25058630D02*
X198413690Y-24058630D01*
X198508928Y-24201488D01*
X198604166Y-24296726D01*
X198699404Y-24344345D01*
X197175595Y-25058630D02*
X197747023Y-25058630D01*
X197461309Y-25058630D02*
X197461309Y-24058630D01*
X197556547Y-24201488D01*
X197651785Y-24296726D01*
X197747023Y-24344345D01*
X179808035Y-25058630D02*
X179808035Y-24058630D01*
X179569940Y-24058630D01*
X179427083Y-24106250D01*
X179331845Y-24201488D01*
X179284226Y-24296726D01*
X179236607Y-24487202D01*
X179236607Y-24630059D01*
X179284226Y-24820535D01*
X179331845Y-24915773D01*
X179427083Y-25011011D01*
X179569940Y-25058630D01*
X179808035Y-25058630D01*
X178284226Y-25058630D02*
X178855654Y-25058630D01*
X178569940Y-25058630D02*
X178569940Y-24058630D01*
X178665178Y-24201488D01*
X178760416Y-24296726D01*
X178855654Y-24344345D01*
X177665178Y-24058630D02*
X177569940Y-24058630D01*
X177474702Y-24106250D01*
X177427083Y-24153869D01*
X177379464Y-24249107D01*
X177331845Y-24439583D01*
X177331845Y-24677678D01*
X177379464Y-24868154D01*
X177427083Y-24963392D01*
X177474702Y-25011011D01*
X177569940Y-25058630D01*
X177665178Y-25058630D01*
X177760416Y-25011011D01*
X177808035Y-24963392D01*
X177855654Y-24868154D01*
X177903273Y-24677678D01*
X177903273Y-24439583D01*
X177855654Y-24249107D01*
X177808035Y-24153869D01*
X177760416Y-24106250D01*
X177665178Y-24058630D01*
X160281845Y-28233630D02*
X160281845Y-27233630D01*
X160043750Y-27233630D01*
X159900892Y-27281250D01*
X159805654Y-27376488D01*
X159758035Y-27471726D01*
X159710416Y-27662202D01*
X159710416Y-27805059D01*
X159758035Y-27995535D01*
X159805654Y-28090773D01*
X159900892Y-28186011D01*
X160043750Y-28233630D01*
X160281845Y-28233630D01*
X159234226Y-28233630D02*
X159043750Y-28233630D01*
X158948511Y-28186011D01*
X158900892Y-28138392D01*
X158805654Y-27995535D01*
X158758035Y-27805059D01*
X158758035Y-27424107D01*
X158805654Y-27328869D01*
X158853273Y-27281250D01*
X158948511Y-27233630D01*
X159138988Y-27233630D01*
X159234226Y-27281250D01*
X159281845Y-27328869D01*
X159329464Y-27424107D01*
X159329464Y-27662202D01*
X159281845Y-27757440D01*
X159234226Y-27805059D01*
X159138988Y-27852678D01*
X158948511Y-27852678D01*
X158853273Y-27805059D01*
X158805654Y-27757440D01*
X158758035Y-27662202D01*
X141231845Y-32202380D02*
X141231845Y-31202380D01*
X140993750Y-31202380D01*
X140850892Y-31250000D01*
X140755654Y-31345238D01*
X140708035Y-31440476D01*
X140660416Y-31630952D01*
X140660416Y-31773809D01*
X140708035Y-31964285D01*
X140755654Y-32059523D01*
X140850892Y-32154761D01*
X140993750Y-32202380D01*
X141231845Y-32202380D01*
X140088988Y-31630952D02*
X140184226Y-31583333D01*
X140231845Y-31535714D01*
X140279464Y-31440476D01*
X140279464Y-31392857D01*
X140231845Y-31297619D01*
X140184226Y-31250000D01*
X140088988Y-31202380D01*
X139898511Y-31202380D01*
X139803273Y-31250000D01*
X139755654Y-31297619D01*
X139708035Y-31392857D01*
X139708035Y-31440476D01*
X139755654Y-31535714D01*
X139803273Y-31583333D01*
X139898511Y-31630952D01*
X140088988Y-31630952D01*
X140184226Y-31678571D01*
X140231845Y-31726190D01*
X140279464Y-31821428D01*
X140279464Y-32011904D01*
X140231845Y-32107142D01*
X140184226Y-32154761D01*
X140088988Y-32202380D01*
X139898511Y-32202380D01*
X139803273Y-32154761D01*
X139755654Y-32107142D01*
X139708035Y-32011904D01*
X139708035Y-31821428D01*
X139755654Y-31726190D01*
X139803273Y-31678571D01*
X139898511Y-31630952D01*
X103131845Y-36964880D02*
X103131845Y-35964880D01*
X102893750Y-35964880D01*
X102750892Y-36012500D01*
X102655654Y-36107738D01*
X102608035Y-36202976D01*
X102560416Y-36393452D01*
X102560416Y-36536309D01*
X102608035Y-36726785D01*
X102655654Y-36822023D01*
X102750892Y-36917261D01*
X102893750Y-36964880D01*
X103131845Y-36964880D01*
X102227083Y-35964880D02*
X101560416Y-35964880D01*
X101988988Y-36964880D01*
X84081845Y-35377380D02*
X84081845Y-34377380D01*
X83843750Y-34377380D01*
X83700892Y-34425000D01*
X83605654Y-34520238D01*
X83558035Y-34615476D01*
X83510416Y-34805952D01*
X83510416Y-34948809D01*
X83558035Y-35139285D01*
X83605654Y-35234523D01*
X83700892Y-35329761D01*
X83843750Y-35377380D01*
X84081845Y-35377380D01*
X82653273Y-34377380D02*
X82843750Y-34377380D01*
X82938988Y-34425000D01*
X82986607Y-34472619D01*
X83081845Y-34615476D01*
X83129464Y-34805952D01*
X83129464Y-35186904D01*
X83081845Y-35282142D01*
X83034226Y-35329761D01*
X82938988Y-35377380D01*
X82748511Y-35377380D01*
X82653273Y-35329761D01*
X82605654Y-35282142D01*
X82558035Y-35186904D01*
X82558035Y-34948809D01*
X82605654Y-34853571D01*
X82653273Y-34805952D01*
X82748511Y-34758333D01*
X82938988Y-34758333D01*
X83034226Y-34805952D01*
X83081845Y-34853571D01*
X83129464Y-34948809D01*
X45981845Y-28233630D02*
X45981845Y-27233630D01*
X45743750Y-27233630D01*
X45600892Y-27281250D01*
X45505654Y-27376488D01*
X45458035Y-27471726D01*
X45410416Y-27662202D01*
X45410416Y-27805059D01*
X45458035Y-27995535D01*
X45505654Y-28090773D01*
X45600892Y-28186011D01*
X45743750Y-28233630D01*
X45981845Y-28233630D01*
X44553273Y-27566964D02*
X44553273Y-28233630D01*
X44791369Y-27186011D02*
X45029464Y-27900297D01*
X44410416Y-27900297D01*
X26931845Y-25058630D02*
X26931845Y-24058630D01*
X26693750Y-24058630D01*
X26550892Y-24106250D01*
X26455654Y-24201488D01*
X26408035Y-24296726D01*
X26360416Y-24487202D01*
X26360416Y-24630059D01*
X26408035Y-24820535D01*
X26455654Y-24915773D01*
X26550892Y-25011011D01*
X26693750Y-25058630D01*
X26931845Y-25058630D01*
X26027083Y-24058630D02*
X25408035Y-24058630D01*
X25741369Y-24439583D01*
X25598511Y-24439583D01*
X25503273Y-24487202D01*
X25455654Y-24534821D01*
X25408035Y-24630059D01*
X25408035Y-24868154D01*
X25455654Y-24963392D01*
X25503273Y-25011011D01*
X25598511Y-25058630D01*
X25884226Y-25058630D01*
X25979464Y-25011011D01*
X26027083Y-24963392D01*
X116625595Y-31408630D02*
X116625595Y-30408630D01*
X116387500Y-30408630D01*
X116244642Y-30456250D01*
X116149404Y-30551488D01*
X116101785Y-30646726D01*
X116054166Y-30837202D01*
X116054166Y-30980059D01*
X116101785Y-31170535D01*
X116149404Y-31265773D01*
X116244642Y-31361011D01*
X116387500Y-31408630D01*
X116625595Y-31408630D01*
X115673214Y-30503869D02*
X115625595Y-30456250D01*
X115530357Y-30408630D01*
X115292261Y-30408630D01*
X115197023Y-30456250D01*
X115149404Y-30503869D01*
X115101785Y-30599107D01*
X115101785Y-30694345D01*
X115149404Y-30837202D01*
X115720833Y-31408630D01*
X115101785Y-31408630D01*
X119006845Y-31408630D02*
X119006845Y-30408630D01*
X118768750Y-30408630D01*
X118625892Y-30456250D01*
X118530654Y-30551488D01*
X118483035Y-30646726D01*
X118435416Y-30837202D01*
X118435416Y-30980059D01*
X118483035Y-31170535D01*
X118530654Y-31265773D01*
X118625892Y-31361011D01*
X118768750Y-31408630D01*
X119006845Y-31408630D01*
X117483035Y-31408630D02*
X118054464Y-31408630D01*
X117768750Y-31408630D02*
X117768750Y-30408630D01*
X117863988Y-30551488D01*
X117959226Y-30646726D01*
X118054464Y-30694345D01*
X65031845Y-31408630D02*
X65031845Y-30408630D01*
X64793750Y-30408630D01*
X64650892Y-30456250D01*
X64555654Y-30551488D01*
X64508035Y-30646726D01*
X64460416Y-30837202D01*
X64460416Y-30980059D01*
X64508035Y-31170535D01*
X64555654Y-31265773D01*
X64650892Y-31361011D01*
X64793750Y-31408630D01*
X65031845Y-31408630D01*
X63555654Y-30408630D02*
X64031845Y-30408630D01*
X64079464Y-30884821D01*
X64031845Y-30837202D01*
X63936607Y-30789583D01*
X63698511Y-30789583D01*
X63603273Y-30837202D01*
X63555654Y-30884821D01*
X63508035Y-30980059D01*
X63508035Y-31218154D01*
X63555654Y-31313392D01*
X63603273Y-31361011D01*
X63698511Y-31408630D01*
X63936607Y-31408630D01*
X64031845Y-31361011D01*
X64079464Y-31313392D01*
X120888288Y-39684913D02*
X120888288Y-39752256D01*
X120955632Y-39886943D01*
X121022976Y-39954287D01*
X121157663Y-40021630D01*
X121292350Y-40021630D01*
X121393365Y-39987959D01*
X121561724Y-39886943D01*
X121662739Y-39785928D01*
X121763754Y-39617569D01*
X121797426Y-39516554D01*
X121797426Y-39381867D01*
X121730082Y-39247180D01*
X121662739Y-39179836D01*
X121528052Y-39112493D01*
X121460708Y-39112493D01*
X120888288Y-38405386D02*
X121225006Y-38742104D01*
X120921960Y-39112493D01*
X120921960Y-39045149D01*
X120888288Y-38944134D01*
X120719930Y-38775775D01*
X120618914Y-38742104D01*
X120551571Y-38742104D01*
X120450556Y-38775775D01*
X120282197Y-38944134D01*
X120248525Y-39045149D01*
X120248525Y-39112493D01*
X120282197Y-39213508D01*
X120450556Y-39381867D01*
X120551571Y-39415539D01*
X120618914Y-39415539D01*
X106672312Y-56250388D02*
X106672312Y-56317731D01*
X106739656Y-56452418D01*
X106807000Y-56519762D01*
X106941687Y-56587105D01*
X107076374Y-56587105D01*
X107177389Y-56553434D01*
X107345748Y-56452418D01*
X107446763Y-56351403D01*
X107547778Y-56183044D01*
X107581450Y-56082029D01*
X107581450Y-55947342D01*
X107514106Y-55812655D01*
X107446763Y-55745311D01*
X107312076Y-55677968D01*
X107244732Y-55677968D01*
X106470282Y-55240235D02*
X105998877Y-55711640D01*
X106908015Y-55139220D02*
X106571297Y-55812655D01*
X106133564Y-55374922D01*
X120802976Y-53892274D02*
X120870319Y-53892274D01*
X121005006Y-53824930D01*
X121072350Y-53757587D01*
X121139693Y-53622899D01*
X121139693Y-53488212D01*
X121106022Y-53387197D01*
X121005006Y-53218838D01*
X120903991Y-53117823D01*
X120735632Y-53016808D01*
X120634617Y-52983136D01*
X120499930Y-52983136D01*
X120365243Y-53050480D01*
X120297899Y-53117823D01*
X120230556Y-53252510D01*
X120230556Y-53319854D01*
X119927510Y-53488212D02*
X119489777Y-53925945D01*
X119994854Y-53959617D01*
X119893838Y-54060632D01*
X119860167Y-54161648D01*
X119860167Y-54228991D01*
X119893838Y-54330006D01*
X120062197Y-54498365D01*
X120163212Y-54532037D01*
X120230556Y-54532037D01*
X120331571Y-54498365D01*
X120533602Y-54296335D01*
X120567274Y-54195319D01*
X120567274Y-54127976D01*
X105447769Y-42016026D02*
X105447769Y-42083369D01*
X105515113Y-42218056D01*
X105582457Y-42285400D01*
X105717144Y-42352743D01*
X105851831Y-42352743D01*
X105952846Y-42319072D01*
X106121205Y-42218056D01*
X106222220Y-42117041D01*
X106323235Y-41948682D01*
X106356907Y-41847667D01*
X106356907Y-41712980D01*
X106289563Y-41578293D01*
X106222220Y-41510949D01*
X106087533Y-41443606D01*
X106020189Y-41443606D01*
X105750815Y-41174232D02*
X105750815Y-41106888D01*
X105717144Y-41005873D01*
X105548785Y-40837514D01*
X105447769Y-40803843D01*
X105380426Y-40803843D01*
X105279411Y-40837514D01*
X105212067Y-40904858D01*
X105144724Y-41039545D01*
X105144724Y-41847667D01*
X104706991Y-41409934D01*
X109038103Y-38425692D02*
X109038103Y-38493035D01*
X109105447Y-38627722D01*
X109172791Y-38695066D01*
X109307478Y-38762409D01*
X109442165Y-38762409D01*
X109543180Y-38728738D01*
X109711539Y-38627722D01*
X109812554Y-38526707D01*
X109913569Y-38358348D01*
X109947241Y-38257333D01*
X109947241Y-38122646D01*
X109879897Y-37987959D01*
X109812554Y-37920615D01*
X109677867Y-37853272D01*
X109610523Y-37853272D01*
X108297325Y-37819600D02*
X108701386Y-38223661D01*
X108499355Y-38021631D02*
X109206462Y-37314524D01*
X109172791Y-37482883D01*
X109172791Y-37617570D01*
X109206462Y-37718585D01*
M02*
